<?xml version="1.0" encoding="UTF-8"?>
<svg xmlns="http://www.w3.org/2000/svg" xmlns:xlink="http://www.w3.org/1999/xlink" class="svglite" width="720.00pt" height="576.00pt" viewBox="0 0 720.00 576.00">
  <defs>
    <style type="text/css"><![CDATA[
    .svglite line, .svglite polyline, .svglite polygon, .svglite path, .svglite rect, .svglite circle {
      fill: none;
      stroke: #000000;
      stroke-linecap: round;
      stroke-linejoin: round;
      stroke-miterlimit: 10.00;
    }
    .svglite text {
      white-space: pre;
    }
  ]]></style>
  </defs>
  <rect width="100%" height="100%" style="stroke: none; fill: #FFFFFF;"/>
  <defs>
    <clipPath id="cpMC4wMHw3MjAuMDB8MC4wMHw1NzYuMDA=">
      <rect x="0.00" y="0.00" width="720.00" height="576.00"/>
    </clipPath>
  </defs>
  <g clip-path="url(#cpMC4wMHw3MjAuMDB8MC4wMHw1NzYuMDA=)">
</g>
  <defs>
    <clipPath id="cpMTYzLjA3fDU1Ni45M3w1OS4wNHw1MTYuOTY=">
      <rect x="163.07" y="59.04" width="393.86" height="457.92"/>
    </clipPath>
  </defs>
  <g clip-path="url(#cpMTYzLjA3fDU1Ni45M3w1OS4wNHw1MTYuOTY=)">
    <polygon points="276.05,278.37 274.75,278.37 260.67,278.37 260.24,279.19 259.15,279.46 258.29,278.65 258.07,278.65 258.07,277.83 256.34,277.29 254.60,276.20 253.52,275.39 252.87,273.22 252.00,270.51 250.92,268.07 249.19,266.44 247.24,265.09 245.94,263.73 246.15,261.83 245.94,261.02 245.94,259.94 245.94,258.58 247.02,259.12 248.75,260.21 249.40,262.38 251.35,262.38 251.79,263.73 254.60,263.73 256.77,265.09 256.99,267.80 271.72,262.92 273.24,262.65 273.24,264.27 273.24,275.66 275.18,276.20 275.62,277.29 276.05,278.37 " style="stroke-width: 0.75; fill: #FFFFFF;" id="alameda" onclick="top.showCountyTimeSeries('PNG/alameda.png')"/>
    <polygon points="329.13,220.35 330.00,219.80 333.68,217.09 333.90,215.74 335.19,214.65 335.41,213.57 336.28,213.30 336.71,212.75 336.28,212.48 336.93,210.86 348.19,220.89 347.11,222.24 346.68,223.60 346.89,226.31 349.06,228.48 349.49,230.92 348.63,233.09 349.06,234.18 347.76,235.26 347.33,234.45 346.46,234.99 346.68,236.89 345.81,237.16 345.38,238.24 344.51,237.70 343.21,236.89 342.56,234.45 341.04,234.18 338.66,234.99 337.14,236.89 331.08,233.63 330.00,232.82 329.13,232.28 329.13,230.38 329.35,229.29 329.13,220.35 " style="stroke-width: 0.75; fill: #FFFFFF;" id="alpine" onclick="top.showCountyTimeSeries('PNG/alpine.png')"/>
    <polygon points="329.13,220.35 329.35,229.29 327.18,229.84 323.71,230.11 318.51,231.73 317.00,231.73 315.26,231.73 314.40,232.82 312.88,232.55 308.55,235.53 307.90,236.62 302.27,240.14 298.37,242.85 296.63,243.39 294.90,243.39 294.03,239.87 293.38,229.57 294.47,229.57 296.20,229.02 297.28,229.29 301.18,227.40 307.68,229.57 310.28,229.84 312.88,229.57 315.48,228.48 318.51,228.21 321.11,226.85 323.06,225.77 323.50,224.41 325.66,223.87 327.61,220.89 328.26,220.35 329.13,220.35 " style="stroke-width: 0.75; fill: #FFFFFF;" id="amador" onclick="top.showCountyTimeSeries('PNG/amador.png')"/>
    <polygon points="270.64,191.87 259.80,192.69 259.80,190.79 260.45,189.16 260.67,188.35 261.10,186.18 261.54,184.28 261.10,182.38 261.97,181.03 256.99,181.57 255.90,179.94 256.77,177.77 256.55,176.69 257.42,176.15 256.55,175.06 258.72,174.79 258.50,172.62 255.25,169.91 255.47,169.10 254.17,168.56 253.95,167.20 253.95,165.57 254.39,164.49 263.27,164.76 263.70,164.22 265.22,163.95 266.52,163.13 266.09,161.78 267.60,159.88 269.12,159.88 269.77,159.88 270.20,157.17 271.72,156.62 271.50,154.46 273.67,154.18 276.70,152.56 276.92,150.93 278.43,151.47 278.65,153.10 280.17,154.46 278.43,156.62 278.00,159.06 278.43,160.69 278.22,162.59 278.43,162.86 277.57,163.13 277.57,163.95 279.30,165.84 281.68,168.01 285.58,172.08 285.80,173.44 289.05,176.15 290.78,177.50 292.08,177.77 291.43,178.86 290.78,178.86 290.57,179.94 289.27,180.21 288.62,181.84 285.58,181.57 285.37,182.38 284.07,182.38 283.85,182.11 283.42,182.11 281.25,185.10 279.95,189.43 276.27,191.06 275.18,191.60 273.67,192.69 272.15,192.15 271.07,191.33 270.64,191.87 " style="stroke-width: 0.75; fill: #FFFFFF;" id="butte" onclick="top.showCountyTimeSeries('PNG/butte.png')"/>
    <polygon points="329.35,229.29 329.13,230.38 329.13,232.28 330.00,232.82 329.13,234.18 327.83,234.72 324.80,237.16 322.63,239.60 317.21,248.00 314.40,252.61 313.10,254.24 312.23,253.97 311.58,255.33 312.45,255.87 310.71,258.31 308.11,261.02 307.46,261.83 297.28,250.44 296.63,249.36 295.55,247.19 294.90,244.48 294.90,243.39 296.63,243.39 298.37,242.85 302.27,240.14 307.90,236.62 308.55,235.53 312.88,232.55 314.40,232.82 315.26,231.73 317.00,231.73 318.51,231.73 323.71,230.11 327.18,229.84 329.35,229.29 " style="stroke-width: 0.75; fill: #FFFFFF;" id="calaveras" onclick="top.showCountyTimeSeries('PNG/calaveras.png')"/>
    <polygon points="263.05,209.50 241.17,209.77 240.96,208.14 240.31,206.79 238.36,205.43 237.71,204.35 237.92,202.18 237.06,200.82 238.14,200.01 238.14,198.11 236.84,196.48 233.59,196.76 232.94,196.21 231.42,196.48 230.12,194.32 227.52,192.69 227.31,190.52 227.74,188.89 226.87,188.62 225.79,188.35 226.87,188.08 228.82,188.08 232.29,188.08 250.92,188.08 250.92,186.99 255.90,186.99 255.90,188.08 260.67,188.35 260.45,189.16 259.80,190.79 259.80,192.69 259.15,193.23 258.72,193.77 258.94,196.76 258.50,198.38 259.15,200.82 260.67,202.72 262.40,203.53 264.35,206.79 262.84,207.87 263.05,209.50 " style="stroke-width: 0.75; fill: #FFFFFF;" id="colusa" onclick="top.showCountyTimeSeries('PNG/colusa.png')"/>
    <polygon points="272.59,249.36 272.15,250.44 271.93,251.53 273.02,252.61 271.93,253.70 272.15,255.60 273.24,256.68 272.37,260.21 273.67,261.29 273.24,262.65 271.72,262.92 256.99,267.80 256.77,265.09 254.60,263.73 251.79,263.73 251.35,262.38 249.40,262.38 248.75,260.21 247.02,259.12 245.94,258.58 244.86,257.77 243.77,257.22 242.69,256.95 242.04,255.60 242.47,255.33 243.12,254.24 243.55,253.16 243.55,252.61 245.29,252.61 246.37,252.61 247.02,251.53 248.10,250.99 247.45,250.99 251.57,252.61 252.87,251.26 256.12,250.72 258.72,251.26 260.24,251.53 261.97,250.72 262.62,250.99 262.84,251.80 264.14,252.89 266.09,252.89 267.39,252.61 268.25,250.99 268.47,249.36 269.55,249.36 270.64,249.36 271.29,248.82 272.59,249.36 " style="stroke-width: 0.75; fill: #FFFFFF;" id="contra costa" onclick="top.showCountyTimeSeries('PNG/contra costa.png')"/>
    <polygon points="192.64,93.44 190.69,93.44 188.53,93.44 188.53,89.65 180.51,89.38 179.21,89.92 178.56,87.75 178.13,86.94 177.91,85.85 179.21,85.85 178.56,84.23 177.05,82.33 176.61,79.62 175.75,77.72 174.88,75.82 173.58,75.01 172.28,73.65 171.85,71.75 172.28,69.58 173.15,67.41 173.58,65.79 173.80,64.43 186.58,64.16 197.84,64.16 197.19,65.24 197.41,66.87 194.59,69.58 193.29,69.58 192.21,72.29 190.91,72.29 192.21,73.65 191.78,74.19 191.34,76.09 192.86,76.90 191.78,79.62 191.78,81.24 190.91,81.78 190.48,83.41 191.78,83.41 191.78,85.85 193.51,86.67 193.51,87.48 192.21,88.84 192.64,91.82 192.64,93.44 " style="stroke-width: 0.75; fill: #FFFFFF;" id="del norte" onclick="top.showCountyTimeSeries('PNG/del norte.png')"/>
    <polygon points="288.40,219.80 288.40,219.26 290.35,215.47 291.00,215.19 292.52,210.86 297.07,208.96 298.80,208.96 301.18,206.25 303.78,206.25 304.86,207.60 305.73,207.60 310.28,210.58 311.36,209.77 314.40,207.33 315.05,205.16 322.41,205.43 322.63,204.89 325.23,204.62 326.75,202.99 329.13,203.53 331.73,203.53 332.16,207.06 336.93,210.86 336.28,212.48 336.71,212.75 336.28,213.30 335.41,213.57 335.19,214.65 333.90,215.74 333.68,217.09 330.00,219.80 329.13,220.35 328.26,220.35 327.61,220.89 325.66,223.87 323.50,224.41 323.06,225.77 321.11,226.85 318.51,228.21 315.48,228.48 312.88,229.57 310.28,229.84 307.68,229.57 301.18,227.40 297.28,229.29 296.20,229.02 294.47,229.57 293.38,229.57 292.73,229.02 289.27,219.80 288.62,220.62 288.40,219.80 " style="stroke-width: 0.75; fill: #FFFFFF;" id="el dorado" onclick="top.showCountyTimeSeries('PNG/el dorado.png')"/>
    <polygon points="306.16,335.59 306.16,334.77 306.81,333.96 309.85,333.15 309.85,326.10 304.86,321.22 298.80,314.98 297.93,313.62 311.80,299.52 312.45,300.61 314.40,303.32 314.83,305.22 314.83,307.39 315.48,308.74 317.43,310.37 317.86,311.46 319.60,311.46 321.55,312.81 327.83,310.64 332.81,309.56 334.11,309.29 340.39,307.39 340.83,305.76 341.91,304.68 342.34,301.96 344.94,300.34 344.94,299.25 345.59,299.25 346.03,300.34 346.68,299.25 346.89,297.90 348.41,297.90 349.49,296.54 348.41,295.46 348.41,294.37 349.93,294.64 351.01,294.37 351.44,294.64 352.09,295.73 354.48,293.02 355.34,293.83 357.08,291.93 357.73,288.41 357.73,285.70 359.89,282.71 368.12,274.58 369.21,273.76 370.51,274.58 372.02,274.58 375.49,278.37 377.87,277.83 378.52,278.65 379.17,279.19 379.17,280.54 378.31,281.09 378.09,282.17 378.96,283.53 378.31,284.61 380.04,285.97 381.12,285.70 383.29,288.41 382.21,289.76 383.07,294.10 391.09,297.90 394.34,306.30 393.90,308.47 392.82,309.29 393.69,310.37 393.47,312.00 394.12,312.81 391.95,313.35 370.94,313.62 370.94,317.42 358.81,317.15 358.59,321.49 352.96,321.49 349.93,324.47 348.63,325.56 347.76,326.37 345.38,328.54 344.94,328.54 342.13,329.35 341.48,329.89 333.90,329.89 333.90,339.66 321.98,351.86 320.68,353.21 319.81,352.94 315.05,351.04 315.70,350.50 313.53,347.52 312.01,347.79 311.36,346.43 309.85,345.62 309.41,344.27 307.90,344.27 306.38,341.28 308.33,338.57 306.16,337.49 306.38,336.67 306.16,335.59 " style="stroke-width: 0.75; fill: #FFFFFF;" id="fresno" onclick="top.showCountyTimeSeries('PNG/fresno.png')"/>
    <polygon points="220.81,168.28 254.17,168.56 255.47,169.10 255.25,169.91 258.50,172.62 258.72,174.79 256.55,175.06 257.42,176.15 256.55,176.69 256.77,177.77 255.90,179.94 256.99,181.57 261.97,181.03 261.10,182.38 261.54,184.28 261.10,186.18 260.67,188.35 255.90,188.08 255.90,186.99 250.92,186.99 250.92,188.08 232.29,188.08 228.82,188.08 229.47,185.37 228.39,182.93 228.17,178.86 224.27,178.86 222.97,178.86 222.76,176.96 222.32,176.15 222.32,172.35 221.67,172.35 221.67,170.18 220.59,170.18 220.81,168.28 " style="stroke-width: 0.75; fill: #FFFFFF;" id="glenn" onclick="top.showCountyTimeSeries('PNG/glenn.png')"/>
    <polygon points="202.61,102.94 201.31,103.75 201.53,105.38 201.31,106.73 199.79,107.00 202.39,109.44 202.39,110.53 200.88,113.24 201.09,114.05 199.36,115.95 196.98,114.05 195.46,114.59 194.59,115.95 194.81,117.31 196.33,118.66 196.33,121.10 196.33,123.27 197.41,124.36 197.41,141.17 197.84,156.90 197.84,158.79 180.73,158.79 179.65,157.71 179.00,156.90 177.91,155.00 177.70,153.37 175.96,152.29 174.88,151.47 173.15,149.85 171.20,147.95 169.25,146.86 167.51,145.24 167.30,144.15 168.16,141.71 167.73,139.54 166.21,137.91 166.43,134.66 168.16,129.78 169.90,125.98 172.71,120.83 174.88,116.22 176.40,112.70 177.26,109.99 175.96,107.27 174.88,104.56 175.31,103.21 175.75,101.85 177.26,102.94 177.70,101.85 177.26,98.60 178.56,95.61 179.00,92.63 179.21,90.46 179.21,89.92 180.51,89.38 188.53,89.65 188.53,93.44 190.69,93.44 192.64,93.44 198.71,93.72 199.79,94.26 199.58,95.07 200.88,98.87 200.88,100.22 201.96,101.85 202.61,102.94 " style="stroke-width: 0.75; fill: #FFFFFF;" id="humboldt" onclick="top.showCountyTimeSeries('PNG/humboldt.png')"/>
    <polygon points="532.77,470.08 531.26,471.44 531.69,473.61 530.82,475.78 532.77,477.95 531.91,484.18 532.34,486.62 533.86,487.98 538.40,488.52 540.57,490.69 540.79,493.67 540.79,496.38 539.05,498.82 537.97,501.81 536.46,502.89 534.07,502.89 532.77,502.62 531.04,503.16 479.26,508.32 479.05,505.87 479.05,486.62 479.91,486.62 479.91,471.44 480.34,470.08 532.77,470.08 " style="stroke-width: 0.75; fill: #FFFFFF;" id="imperial" onclick="top.showCountyTimeSeries('PNG/imperial.png')"/>
    <polygon points="487.06,348.33 495.51,356.47 491.18,356.74 478.83,357.28 463.23,357.82 446.98,358.37 432.03,358.64 423.80,358.64 421.63,358.64 420.33,358.37 410.80,358.09 410.80,358.64 408.85,358.64 407.34,358.37 407.77,357.28 407.34,355.65 408.20,354.84 407.99,351.59 406.47,351.04 407.12,349.42 406.04,344.54 405.17,343.99 406.04,341.28 405.17,339.38 404.09,338.84 403.00,335.59 403.87,333.15 403.87,332.06 402.14,330.98 401.92,329.62 402.35,329.35 402.14,328.00 400.40,328.27 398.45,326.10 398.89,323.66 396.94,321.76 397.37,319.86 396.07,319.59 395.20,317.15 393.47,316.06 394.99,314.71 394.99,313.90 394.12,312.81 393.47,312.00 393.69,310.37 392.82,309.29 393.90,308.47 394.34,306.30 391.09,297.90 383.07,294.10 382.21,289.76 383.29,288.41 381.12,285.70 380.04,285.97 378.31,284.61 378.96,283.53 378.09,282.17 378.31,281.09 379.17,280.54 379.17,279.19 413.40,278.65 438.53,301.96 487.06,348.33 " style="stroke-width: 0.75; fill: #FFFFFF;" id="inyo" onclick="top.showCountyTimeSeries('PNG/inyo.png')"/>
    <polygon points="420.77,404.46 373.76,404.46 372.24,404.46 371.81,404.73 360.54,404.73 360.54,403.11 359.03,402.56 359.03,401.48 355.13,401.48 354.91,400.67 352.96,400.67 352.09,400.39 352.09,399.31 352.09,393.07 351.44,391.99 349.06,391.45 348.63,387.11 344.94,387.38 344.51,383.85 339.53,383.31 339.53,379.24 336.71,379.24 336.71,375.18 332.16,375.18 328.48,371.11 328.48,367.04 324.36,366.77 324.58,360.81 324.36,359.18 350.36,358.91 407.34,358.37 408.85,358.64 410.80,358.64 410.80,358.09 420.33,358.37 421.63,358.64 420.77,404.46 " style="stroke-width: 0.75; fill: #FFFFFF;" id="kern" onclick="top.showCountyTimeSeries('PNG/kern.png')"/>
    <polygon points="350.36,358.91 324.36,359.18 324.15,357.82 322.41,356.74 323.06,354.84 321.76,353.21 320.68,353.21 321.98,351.86 333.90,339.66 333.90,329.89 341.48,329.89 342.13,329.35 344.94,328.54 345.38,328.54 347.76,326.37 348.63,325.56 350.14,325.83 350.36,329.62 352.53,329.62 352.31,336.13 349.93,336.40 350.14,342.10 349.71,342.91 350.14,357.28 350.36,358.91 " style="stroke-width: 0.75; fill: #FFFFFF;" id="kings" onclick="top.showCountyTimeSeries('PNG/kings.png')"/>
    <polygon points="241.17,209.77 240.52,210.58 240.52,211.67 241.17,212.21 241.39,213.03 240.74,213.84 241.39,214.65 241.61,215.47 240.96,215.74 240.31,216.55 240.74,217.91 238.36,220.89 233.59,221.97 232.72,222.52 231.42,220.89 230.34,220.62 229.47,218.99 228.17,217.09 227.96,215.74 226.87,215.47 226.87,214.65 226.01,213.84 225.57,213.03 223.84,212.48 221.67,210.58 220.37,210.58 220.16,209.50 218.86,206.52 215.61,205.16 215.61,203.53 214.52,202.99 214.31,201.37 215.61,198.11 218.21,195.94 218.21,194.04 217.56,193.77 217.13,191.06 214.96,186.18 215.61,182.38 217.13,181.57 222.76,181.03 222.97,178.86 224.27,178.86 228.17,178.86 228.39,182.93 229.47,185.37 228.82,188.08 226.87,188.08 225.79,188.35 226.87,188.62 227.74,188.89 227.31,190.52 227.52,192.69 230.12,194.32 231.42,196.48 232.94,196.21 233.59,196.76 236.84,196.48 238.14,198.11 238.14,200.01 237.06,200.82 237.92,202.18 237.71,204.35 238.36,205.43 240.31,206.79 240.96,208.14 241.17,209.77 " style="stroke-width: 0.75; fill: #FFFFFF;" id="lake" onclick="top.showCountyTimeSeries('PNG/lake.png')"/>
    <polygon points="331.73,102.39 331.73,173.44 326.10,172.89 325.88,171.54 326.53,171.27 327.61,169.91 328.05,165.30 327.61,162.86 325.23,160.42 323.28,155.54 321.55,153.37 318.95,153.37 310.28,145.51 307.25,144.42 303.13,143.34 298.58,147.40 298.37,149.03 297.07,149.57 295.12,148.22 291.22,146.32 291.43,137.10 284.50,137.10 281.68,136.83 281.25,102.39 331.73,102.39 " style="stroke-width: 0.75; fill: #FFFFFF;" id="lassen" onclick="top.showCountyTimeSeries('PNG/lassen.png')"/>
    <polygon points="373.76,404.46 420.77,404.46 420.33,406.09 420.33,416.66 420.77,416.94 420.55,421.27 420.99,430.49 417.52,442.15 416.44,441.88 415.14,444.32 415.57,444.86 415.57,445.95 414.27,445.95 408.64,446.22 408.42,447.85 405.17,451.10 404.09,452.46 404.09,453.81 402.35,453.27 401.05,453.00 399.75,453.81 398.67,453.81 398.67,454.90 398.24,455.71 396.94,455.71 396.07,455.17 395.20,454.90 393.69,454.36 392.82,453.54 392.82,452.46 393.47,451.37 393.69,450.02 392.82,447.30 390.87,444.05 390.44,442.70 389.36,441.88 387.41,441.34 382.64,440.80 380.04,441.34 378.31,441.61 377.01,441.34 372.46,439.98 371.81,439.44 371.59,438.09 378.31,434.83 382.42,434.83 382.21,431.85 383.72,431.58 384.16,429.68 374.19,406.09 373.76,404.46 " style="stroke-width: 0.75; fill: #FFFFFF;" id="los angeles" onclick="top.showCountyTimeSeries('PNG/los angeles.png')"/>
    <polygon points="358.59,264.54 359.68,265.90 360.97,266.99 361.84,266.71 363.57,266.44 365.74,266.71 367.47,269.43 368.77,271.87 369.21,273.76 368.12,274.58 359.89,282.71 357.73,285.70 357.73,288.41 357.08,291.93 355.34,293.83 354.48,293.02 352.09,295.73 351.44,294.64 351.01,294.37 349.93,294.64 348.41,294.37 348.41,295.46 349.49,296.54 348.41,297.90 346.89,297.90 346.68,299.25 346.03,300.34 345.59,299.25 344.94,299.25 344.94,300.34 342.34,301.96 341.91,304.68 340.83,305.76 340.39,307.39 334.11,309.29 332.81,309.56 327.83,310.64 321.55,312.81 319.60,311.46 317.86,311.46 317.43,310.37 315.48,308.74 314.83,307.39 314.83,305.22 314.40,303.32 312.45,300.61 311.80,299.52 312.45,298.44 314.40,296.54 316.78,295.46 318.95,295.19 320.25,293.83 321.98,293.29 324.80,293.29 327.61,293.83 328.70,293.02 330.21,292.47 331.30,291.39 336.28,286.51 341.26,281.63 345.38,281.36 345.38,279.46 346.68,279.19 346.68,277.83 347.98,277.83 347.98,274.85 357.08,265.63 358.59,264.54 " style="stroke-width: 0.75; fill: #FFFFFF;" id="madera" onclick="top.showCountyTimeSeries('PNG/madera.png')"/>
    <polygon points="220.59,239.60 222.32,239.06 227.52,243.39 232.07,245.84 234.24,245.29 237.27,248.55 238.79,248.00 238.57,250.17 238.14,251.26 238.14,252.61 238.57,252.89 239.66,253.43 240.09,253.70 240.09,254.51 239.01,254.78 238.79,255.60 239.01,256.41 239.44,257.22 240.31,258.04 240.96,258.58 240.96,259.39 240.52,259.66 239.66,258.85 239.01,258.58 238.57,258.85 239.01,259.94 239.22,261.02 239.01,261.56 237.92,261.29 237.27,261.02 236.19,260.21 235.54,259.39 233.81,258.85 232.94,257.77 232.29,257.22 231.86,257.22 231.42,257.77 230.99,257.22 229.26,256.14 227.74,255.33 226.87,253.97 224.92,252.61 223.19,252.07 222.97,251.53 222.76,250.44 221.46,251.26 221.02,252.89 220.59,253.43 219.72,253.70 219.07,252.89 219.29,251.26 220.37,248.55 220.81,247.19 220.59,245.02 219.94,243.39 220.81,243.12 221.67,244.48 222.76,245.02 223.19,244.48 222.76,242.58 221.24,240.95 220.59,239.60 " style="stroke-width: 0.75; fill: #FFFFFF;" id="marin" onclick="top.showCountyTimeSeries('PNG/marin.png')"/>
    <polygon points="317.43,271.32 318.95,270.51 319.81,270.24 319.81,269.15 318.51,267.53 319.38,266.44 321.55,266.71 324.36,265.36 325.45,264.00 327.18,264.82 327.83,264.00 328.91,262.92 330.65,263.73 336.28,265.09 337.36,264.54 338.23,265.09 339.96,264.82 345.59,262.38 346.24,260.21 349.71,258.31 354.91,261.02 356.64,262.10 357.08,263.19 358.38,263.73 358.59,264.54 357.08,265.63 347.98,274.85 347.98,277.83 346.68,277.83 346.68,279.19 345.38,279.46 345.38,281.36 341.26,281.63 336.28,286.51 331.30,291.39 330.21,292.47 328.91,290.85 326.31,290.03 324.80,288.14 324.36,285.70 320.90,281.63 321.11,279.46 320.03,277.83 317.86,273.22 317.43,271.32 " style="stroke-width: 0.75; fill: #FFFFFF;" id="mariposa" onclick="top.showCountyTimeSeries('PNG/mariposa.png')"/>
    <polygon points="197.84,158.79 197.84,159.06 221.02,159.06 221.24,159.88 221.46,161.23 220.37,162.59 219.72,163.13 219.94,165.30 220.16,166.66 220.81,168.28 220.59,170.18 221.67,170.18 221.67,172.35 222.32,172.35 222.32,176.15 222.76,176.96 222.97,178.86 222.76,181.03 217.13,181.57 215.61,182.38 214.96,186.18 217.13,191.06 217.56,193.77 218.21,194.04 218.21,195.94 215.61,198.11 214.31,201.37 214.52,202.99 215.61,203.53 215.61,205.16 218.86,206.52 220.16,209.50 220.37,210.58 221.67,210.58 223.84,212.48 225.57,213.03 223.19,213.03 215.82,213.03 215.61,213.84 213.66,213.84 213.66,215.19 204.99,215.47 204.99,216.55 200.88,217.09 200.44,218.18 199.79,217.09 198.28,215.74 196.98,214.65 196.33,213.03 194.16,211.94 192.43,209.77 191.34,208.42 191.78,206.79 192.64,204.62 193.08,202.99 190.91,198.92 188.74,193.50 188.09,190.25 187.88,185.91 188.74,182.93 189.83,179.94 189.61,177.23 189.83,175.06 189.18,173.44 188.09,171.00 188.09,168.28 186.14,165.84 184.41,165.30 183.98,163.13 182.68,161.51 181.60,160.42 180.73,158.79 197.84,158.79 " style="stroke-width: 0.75; fill: #FFFFFF;" id="mendocino" onclick="top.showCountyTimeSeries('PNG/mendocino.png')"/>
    <polygon points="311.80,299.52 297.93,313.62 296.63,313.08 288.83,309.01 288.40,307.66 287.97,305.76 286.02,305.76 285.58,304.13 285.15,303.32 284.72,301.96 284.50,300.07 286.02,298.44 286.02,297.63 284.93,297.35 284.72,297.08 285.58,296.00 285.58,294.64 286.67,293.83 292.52,288.14 295.33,285.42 294.68,282.71 305.30,277.29 315.26,272.41 317.43,271.32 317.86,273.22 320.03,277.83 321.11,279.46 320.90,281.63 324.36,285.70 324.80,288.14 326.31,290.03 328.91,290.85 330.21,292.47 328.70,293.02 327.61,293.83 324.80,293.29 321.98,293.29 320.25,293.83 318.95,295.19 316.78,295.46 314.40,296.54 312.45,298.44 311.80,299.52 " style="stroke-width: 0.75; fill: #FFFFFF;" id="merced" onclick="top.showCountyTimeSeries('PNG/merced.png')"/>
    <polygon points="281.25,102.39 276.48,102.39 276.27,64.16 298.37,63.62 331.73,64.16 331.73,102.39 281.25,102.39 " style="stroke-width: 0.75; fill: #FFFFFF;" id="modoc" onclick="top.showCountyTimeSeries('PNG/modoc.png')"/>
    <polygon points="364.44,234.99 391.74,259.39 413.40,278.65 379.17,279.19 378.52,278.65 377.87,277.83 375.49,278.37 372.02,274.58 370.51,274.58 369.21,273.76 368.77,271.87 367.47,269.43 365.74,266.71 363.57,266.44 361.84,266.71 360.97,266.99 359.68,265.90 360.32,265.09 362.71,263.73 361.63,262.65 362.71,261.02 361.63,260.48 361.84,258.85 358.38,256.68 357.73,255.33 358.16,253.43 358.16,250.99 354.04,248.28 352.53,249.09 351.01,246.38 349.93,247.19 348.41,244.75 346.68,244.75 346.46,243.12 346.89,241.23 345.59,240.14 345.81,239.06 344.94,239.06 345.38,238.24 345.81,237.16 346.68,236.89 346.46,234.99 347.33,234.45 347.76,235.26 349.06,234.18 348.63,233.09 349.49,230.92 349.06,228.48 346.89,226.31 346.68,223.60 347.11,222.24 348.19,220.89 357.29,228.75 364.44,234.99 " style="stroke-width: 0.75; fill: #FFFFFF;" id="mono" onclick="top.showCountyTimeSeries('PNG/mono.png')"/>
    <polygon points="324.36,359.18 283.85,358.64 282.55,358.09 281.47,356.47 279.95,355.11 278.65,354.03 277.35,352.40 276.48,349.42 275.40,347.52 273.88,346.43 272.59,343.99 270.64,340.74 268.90,339.38 267.82,338.03 266.52,337.76 264.57,336.67 262.84,334.77 261.54,333.42 261.54,332.06 261.54,330.44 260.45,326.64 260.24,325.01 258.94,323.66 258.94,323.11 259.80,322.84 259.37,321.22 258.94,320.95 259.59,319.05 260.45,318.23 261.97,318.51 262.62,318.78 264.14,317.42 265.00,314.44 265.44,311.73 265.22,308.74 265.00,308.20 265.22,306.85 265.65,306.03 266.52,305.49 267.82,305.49 268.90,305.76 269.77,306.57 270.20,308.20 273.02,310.64 275.18,313.08 276.27,312.81 276.48,313.62 277.57,314.17 276.27,315.52 276.92,316.61 281.03,318.23 282.77,319.32 282.77,320.40 281.90,321.76 283.42,322.84 282.77,324.74 285.15,324.47 287.10,327.72 292.52,333.42 292.52,336.13 294.47,336.40 294.90,335.05 296.63,335.32 297.07,333.42 304.00,339.38 305.30,339.11 304.65,336.67 303.78,335.59 304.00,334.23 304.86,334.77 306.16,335.59 306.38,336.67 306.16,337.49 308.33,338.57 306.38,341.28 307.90,344.27 309.41,344.27 309.85,345.62 311.36,346.43 312.01,347.79 313.53,347.52 315.70,350.50 315.05,351.04 319.81,352.94 320.68,353.21 321.76,353.21 323.06,354.84 322.41,356.74 324.15,357.82 324.36,359.18 " style="stroke-width: 0.75; fill: #FFFFFF;" id="monterey" onclick="top.showCountyTimeSeries('PNG/monterey.png')"/>
    <polygon points="241.39,213.03 242.26,213.84 243.34,213.57 245.72,214.65 246.80,218.18 247.45,219.26 247.02,220.08 247.67,221.16 248.75,221.43 248.75,222.52 250.05,223.33 249.62,224.41 250.70,224.68 251.57,228.48 252.00,229.57 251.57,230.92 251.35,234.18 254.17,239.06 248.10,239.06 247.89,245.56 248.97,246.65 246.80,247.19 245.50,246.65 244.64,247.19 243.12,246.38 242.26,245.56 242.69,243.39 242.04,242.04 240.31,237.43 239.01,237.16 239.44,235.80 237.71,234.72 238.14,233.09 235.97,231.46 234.89,229.02 232.29,227.13 231.64,226.04 232.29,224.96 232.29,223.87 232.72,222.52 233.59,221.97 238.36,220.89 240.74,217.91 240.31,216.55 240.96,215.74 241.61,215.47 241.39,214.65 240.74,213.84 241.39,213.03 " style="stroke-width: 0.75; fill: #FFFFFF;" id="napa" onclick="top.showCountyTimeSeries('PNG/napa.png')"/>
    <polygon points="283.85,204.89 283.42,202.99 283.42,198.65 284.07,193.50 286.02,192.69 286.88,190.52 288.40,190.25 289.27,188.35 292.52,187.27 293.82,186.99 295.12,186.45 302.92,185.37 304.86,182.66 308.76,181.03 309.85,181.57 313.10,185.64 328.26,185.64 332.16,185.64 331.73,191.60 328.48,191.87 316.78,191.60 307.03,191.60 303.78,193.23 298.15,198.11 294.03,202.45 292.08,206.25 288.83,204.89 286.67,206.25 284.93,205.70 283.85,204.89 " style="stroke-width: 0.75; fill: #FFFFFF;" id="nevada" onclick="top.showCountyTimeSeries('PNG/nevada.png')"/>
    <polygon points="419.90,448.66 420.55,449.47 421.20,452.19 421.63,453.00 422.93,453.00 423.80,454.08 424.67,454.90 424.67,456.25 425.97,457.61 427.05,457.61 429.00,459.24 425.97,464.39 426.18,466.29 425.97,467.37 425.53,468.18 423.37,468.73 423.37,470.08 420.99,468.73 419.69,467.64 418.38,466.56 417.30,464.93 415.57,462.76 413.84,461.13 412.54,460.59 411.67,460.59 410.15,459.24 407.34,456.25 405.39,454.90 404.52,454.36 404.09,453.81 404.09,452.46 405.17,451.10 408.42,447.85 408.64,446.22 414.27,445.95 415.57,445.95 419.90,448.66 " style="stroke-width: 0.75; fill: #FFFFFF;" id="orange" onclick="top.showCountyTimeSeries('PNG/orange.png')"/>
    <polygon points="331.73,201.09 331.73,203.53 329.13,203.53 326.75,202.99 325.23,204.62 322.63,204.89 322.41,205.43 315.05,205.16 314.40,207.33 311.36,209.77 310.28,210.58 305.73,207.60 304.86,207.60 303.78,206.25 301.18,206.25 298.80,208.96 297.07,208.96 292.52,210.86 291.00,215.19 290.35,215.47 288.40,219.26 288.40,219.80 276.05,219.26 275.83,218.18 276.70,218.18 276.70,210.04 278.43,210.04 278.65,207.87 278.43,206.79 279.73,205.70 280.82,205.16 282.33,204.35 283.85,204.89 284.93,205.70 286.67,206.25 288.83,204.89 292.08,206.25 294.03,202.45 298.15,198.11 303.78,193.23 307.03,191.60 316.78,191.60 328.48,191.87 331.73,191.60 331.73,198.92 331.73,201.09 " style="stroke-width: 0.75; fill: #FFFFFF;" id="placer" onclick="top.showCountyTimeSeries('PNG/placer.png')"/>
    <polygon points="292.08,177.77 290.78,177.50 289.05,176.15 285.80,173.44 285.58,172.08 281.68,168.01 279.30,165.84 277.57,163.95 277.57,163.13 278.43,162.86 278.22,162.59 278.43,160.69 278.00,159.06 278.43,156.62 280.17,154.46 278.65,153.10 278.43,151.47 276.92,150.93 276.05,150.93 276.27,149.57 278.43,148.76 280.38,147.13 279.95,143.88 279.30,142.25 276.92,141.98 275.62,141.17 275.62,139.81 275.40,138.73 275.18,137.10 281.68,136.83 284.50,137.10 291.43,137.10 291.22,146.32 295.12,148.22 297.07,149.57 298.37,149.03 298.58,147.40 303.13,143.34 307.25,144.42 310.28,145.51 318.95,153.37 321.55,153.37 323.28,155.54 325.23,160.42 327.61,162.86 328.05,165.30 327.61,169.91 326.53,171.27 325.88,171.54 326.10,172.89 323.93,172.89 313.96,172.89 313.53,173.71 307.25,173.44 306.16,174.52 305.30,173.44 302.70,172.35 302.27,172.89 301.40,171.81 298.80,169.64 296.63,170.72 295.77,171.54 295.77,174.79 294.68,175.61 293.82,176.69 292.08,177.77 " style="stroke-width: 0.75; fill: #FFFFFF;" id="plumas" onclick="top.showCountyTimeSeries('PNG/plumas.png')"/>
    <polygon points="480.34,470.08 477.96,470.08 444.38,470.08 435.93,470.08 435.72,469.27 431.17,467.37 431.60,466.29 427.92,466.29 426.18,466.29 425.97,464.39 429.00,459.24 427.05,457.61 425.97,457.61 424.67,456.25 424.67,454.90 423.80,454.08 422.93,453.00 421.63,453.00 421.20,452.19 420.55,449.47 419.90,448.66 420.12,447.85 420.12,447.03 422.07,446.76 422.07,444.86 423.80,444.05 424.23,441.61 430.73,441.34 430.73,442.15 436.58,442.15 436.80,442.70 447.63,442.70 447.85,441.61 470.81,441.61 476.45,441.88 508.94,441.61 508.94,439.44 540.35,439.44 542.95,439.44 541.87,441.34 541.00,442.42 541.65,443.24 539.27,444.86 538.40,446.76 538.40,453.54 539.05,455.98 538.40,457.61 538.84,460.59 537.75,463.30 537.32,464.66 535.37,465.47 535.81,466.83 534.72,467.64 534.29,469.00 532.77,470.08 480.34,470.08 " style="stroke-width: 0.75; fill: #FFFFFF;" id="riverside" onclick="top.showCountyTimeSeries('PNG/riverside.png')"/>
    <polygon points="294.03,239.87 291.65,239.60 288.62,241.23 286.02,242.04 283.85,241.77 282.55,242.58 278.87,243.12 277.78,241.77 276.05,241.77 275.83,242.31 275.18,242.85 274.75,243.94 273.88,244.75 273.67,245.84 272.15,248.00 272.80,248.82 272.59,249.36 271.29,248.82 270.64,249.36 269.55,249.36 268.47,249.36 268.25,250.99 267.39,252.61 266.09,252.89 264.14,252.89 262.84,251.80 262.62,250.99 263.49,250.99 264.35,250.99 265.22,249.90 266.52,249.90 267.17,249.36 268.25,246.65 270.85,244.48 271.29,243.12 271.50,240.41 271.72,239.06 272.37,237.97 274.10,236.34 274.75,234.72 274.32,233.63 275.18,232.55 275.18,231.19 273.24,230.11 275.18,228.48 275.18,226.85 273.88,225.23 272.59,223.33 271.29,223.33 270.64,221.97 270.64,220.89 271.07,219.80 271.50,218.99 276.05,219.26 288.40,219.80 288.62,220.62 289.27,219.80 292.73,229.02 293.38,229.57 294.03,239.87 " style="stroke-width: 0.75; fill: #FFFFFF;" id="sacramento" onclick="top.showCountyTimeSeries('PNG/sacramento.png')"/>
    <polygon points="297.93,313.62 298.80,314.98 304.86,321.22 309.85,326.10 309.85,333.15 306.81,333.96 306.16,334.77 306.16,335.59 304.86,334.77 304.00,334.23 303.78,335.59 304.65,336.67 305.30,339.11 304.00,339.38 297.07,333.42 296.63,335.32 294.90,335.05 294.47,336.40 292.52,336.13 292.52,333.42 287.10,327.72 285.15,324.47 282.77,324.74 283.42,322.84 281.90,321.76 282.77,320.40 282.77,319.32 281.03,318.23 276.92,316.61 276.27,315.52 277.57,314.17 276.48,313.62 276.27,312.81 275.18,313.08 273.02,310.64 270.20,308.20 269.77,306.57 270.85,305.22 271.50,305.76 272.80,306.03 274.10,304.95 275.18,304.13 275.18,302.51 276.92,301.96 278.65,303.59 283.85,303.32 285.15,303.32 285.58,304.13 286.02,305.76 287.97,305.76 288.40,307.66 288.83,309.01 296.63,313.08 297.93,313.62 " style="stroke-width: 0.75; fill: #FFFFFF;" id="san benito" onclick="top.showCountyTimeSeries('PNG/san benito.png')"/>
    <polygon points="495.51,356.47 534.72,394.97 534.94,397.68 535.81,401.21 537.32,402.29 538.19,403.11 537.97,403.65 537.11,405.00 541.87,409.61 542.95,414.22 543.60,415.31 544.69,421.00 547.94,423.17 552.49,427.24 553.57,429.14 553.79,430.76 551.62,431.58 550.10,433.75 547.50,435.92 543.82,437.81 542.95,439.44 540.35,439.44 508.94,439.44 508.94,441.61 476.45,441.88 470.81,441.61 447.85,441.61 447.63,442.70 436.80,442.70 436.58,442.15 430.73,442.15 430.73,441.34 424.23,441.61 423.80,444.05 422.07,444.86 422.07,446.76 420.12,447.03 420.12,447.85 419.90,448.66 415.57,445.95 415.57,444.86 415.14,444.32 416.44,441.88 417.52,442.15 420.99,430.49 420.55,421.27 420.77,416.94 420.33,416.66 420.33,406.09 420.77,404.46 421.63,358.64 423.80,358.64 432.03,358.64 446.98,358.37 463.23,357.82 478.83,357.28 491.18,356.74 495.51,356.47 " style="stroke-width: 0.75; fill: #FFFFFF;" id="san bernardino" onclick="top.showCountyTimeSeries('PNG/san bernardino.png')"/>
    <polygon points="426.18,466.29 427.92,466.29 431.60,466.29 431.17,467.37 435.72,469.27 435.93,470.08 444.38,470.08 477.96,470.08 480.34,470.08 479.91,471.44 479.91,486.62 479.05,486.62 479.05,505.87 479.26,508.32 441.13,512.38 441.13,509.67 441.13,508.59 440.70,507.50 439.40,506.42 439.18,505.60 439.62,505.33 441.57,507.50 442.22,508.04 442.22,506.96 441.78,505.33 440.70,504.52 439.83,503.71 439.40,503.16 438.53,503.16 437.88,504.52 437.45,504.79 436.80,504.25 436.58,502.35 437.45,501.54 437.67,500.72 437.45,500.18 436.80,499.64 435.93,498.82 435.72,497.47 436.58,496.38 436.80,494.49 436.15,490.96 435.93,489.06 434.63,485.54 433.33,483.37 432.03,480.39 430.08,477.95 429.00,475.78 427.48,474.42 425.53,472.79 424.02,471.44 423.37,470.08 423.37,468.73 425.53,468.18 425.97,467.37 426.18,466.29 " style="stroke-width: 0.75; fill: #FFFFFF;" id="san diego" onclick="top.showCountyTimeSeries('PNG/san diego.png')"/>
    <polygon points="242.69,268.07 240.96,268.07 239.01,268.07 238.57,267.26 238.14,265.09 238.14,264.00 239.01,263.73 239.44,263.73 240.74,262.65 241.17,263.19 241.82,263.19 243.34,263.19 243.34,264.00 243.55,265.09 244.20,266.44 243.34,266.71 242.69,267.26 242.69,268.07 " style="stroke-width: 0.75; fill: #FFFFFF;" id="san francisco" onclick="top.showCountyTimeSeries('PNG/san francisco.png')"/>
    <polygon points="272.59,249.36 272.80,248.82 272.15,248.00 273.67,245.84 273.88,244.75 274.75,243.94 275.18,242.85 275.83,242.31 276.05,241.77 277.78,241.77 278.87,243.12 282.55,242.58 283.85,241.77 286.02,242.04 288.62,241.23 291.65,239.60 294.03,239.87 294.90,243.39 294.90,244.48 295.55,247.19 296.63,249.36 297.28,250.44 297.07,252.61 297.07,264.27 297.93,264.54 297.72,265.09 297.07,266.44 294.68,265.36 292.73,266.44 290.78,266.44 288.40,267.26 286.02,268.34 277.78,276.75 276.05,278.37 275.62,277.29 275.18,276.20 273.24,275.66 273.24,264.27 273.24,262.65 273.67,261.29 272.37,260.21 273.24,256.68 272.15,255.60 271.93,253.70 273.02,252.61 271.93,251.53 272.15,250.44 272.59,249.36 " style="stroke-width: 0.75; fill: #FFFFFF;" id="san joaquin" onclick="top.showCountyTimeSeries('PNG/san joaquin.png')"/>
    <polygon points="283.85,358.64 324.36,359.18 324.58,360.81 324.36,366.77 328.48,367.04 328.48,371.11 332.16,375.18 336.71,375.18 336.71,379.24 339.53,379.24 339.53,383.31 344.51,383.85 344.94,387.38 348.63,387.11 349.06,391.45 351.44,391.99 352.09,393.07 352.09,399.31 352.09,400.39 350.14,400.67 344.51,396.87 341.48,397.14 337.58,394.16 328.48,390.63 325.01,394.16 320.46,395.24 320.03,395.79 320.90,397.95 320.68,400.39 313.96,396.06 310.50,396.87 309.85,397.68 308.55,397.68 308.55,395.24 309.20,393.34 309.41,389.82 308.55,387.92 307.25,387.11 305.95,386.84 305.73,387.65 304.86,387.65 303.13,386.02 301.18,384.94 299.67,382.50 299.67,381.14 300.75,379.52 301.18,379.52 301.83,380.06 302.27,379.79 301.18,376.80 300.10,374.91 299.88,373.82 298.37,373.82 295.33,373.55 294.03,371.92 291.43,368.67 289.48,365.96 287.97,365.14 286.02,363.52 284.72,362.43 283.85,360.53 283.85,358.64 " style="stroke-width: 0.75; fill: #FFFFFF;" id="san luis obispo" onclick="top.showCountyTimeSeries('PNG/san luis obispo.png')"/>
    <polygon points="251.35,288.14 251.14,289.22 251.14,291.12 247.89,291.12 247.45,292.20 244.86,292.20 244.86,294.37 244.20,293.83 243.55,292.20 242.26,290.85 241.61,288.95 241.82,286.51 242.26,284.34 242.04,281.90 241.17,281.36 240.52,280.00 240.52,278.10 240.09,277.29 238.57,276.75 237.92,275.12 237.92,274.04 237.92,272.14 239.01,271.32 239.01,270.51 238.57,269.43 239.01,268.07 240.96,268.07 242.69,268.07 243.12,269.15 243.77,269.97 243.55,271.05 243.34,272.14 244.64,272.68 246.80,273.22 248.10,274.04 248.97,275.12 250.49,275.93 252.00,276.48 252.87,277.29 253.30,277.56 253.95,278.37 252.87,279.19 251.35,280.00 249.84,280.00 249.62,280.81 248.97,283.25 250.05,285.42 249.84,286.24 250.27,286.51 250.49,287.32 251.35,288.14 " style="stroke-width: 0.75; fill: #FFFFFF;" id="san mateo" onclick="top.showCountyTimeSeries('PNG/san mateo.png')"/>
    <polygon points="352.09,400.39 352.96,400.67 352.74,402.02 352.96,420.73 352.96,422.09 352.53,422.90 353.18,423.99 351.23,423.44 349.49,422.63 347.76,422.36 344.51,423.44 342.34,422.90 340.39,422.63 338.01,422.90 336.28,422.36 333.90,421.27 332.16,421.00 329.56,421.00 327.18,420.73 321.55,421.00 316.78,421.27 315.70,420.73 314.40,418.83 313.10,416.94 310.50,416.12 308.98,415.58 308.55,413.41 309.85,410.70 309.85,407.99 308.76,406.09 308.98,404.19 310.28,402.29 309.20,400.67 308.76,399.85 308.11,398.77 308.55,397.68 309.85,397.68 310.50,396.87 313.96,396.06 320.68,400.39 320.90,397.95 320.03,395.79 320.46,395.24 325.01,394.16 328.48,390.63 337.58,394.16 341.48,397.14 344.51,396.87 350.14,400.67 352.09,400.39 " style="stroke-width: 0.75; fill: #FFFFFF;" id="santa barbara" onclick="top.showCountyTimeSeries('PNG/santa barbara.png')"/>
    <polygon points="253.95,278.37 254.60,278.92 256.12,279.46 257.42,279.46 258.29,278.65 259.15,279.46 260.24,279.19 260.67,278.37 274.75,278.37 276.05,278.37 275.83,280.00 276.70,280.54 276.05,281.63 276.92,282.71 277.13,283.25 278.65,283.25 278.87,284.61 278.22,285.70 278.65,286.24 278.22,288.14 277.13,288.14 277.35,290.58 278.65,291.93 278.65,293.83 279.30,294.10 280.38,293.02 281.68,293.29 282.55,293.83 284.07,292.75 284.93,294.10 285.58,294.64 285.58,296.00 284.72,297.08 284.93,297.35 286.02,297.63 286.02,298.44 284.50,300.07 284.72,301.96 285.15,303.32 283.85,303.32 278.65,303.59 276.92,301.96 275.18,302.51 275.18,304.13 274.10,304.95 272.80,306.03 271.50,305.76 270.85,305.22 269.77,304.13 269.12,303.05 267.82,303.05 267.60,300.88 266.52,300.61 265.44,299.25 263.05,298.17 262.62,296.54 255.90,293.83 255.25,291.66 252.87,290.58 252.00,288.68 251.35,288.14 250.49,287.32 250.27,286.51 249.84,286.24 250.05,285.42 248.97,283.25 249.62,280.81 249.84,280.00 251.35,280.00 252.87,279.19 253.95,278.37 " style="stroke-width: 0.75; fill: #FFFFFF;" id="santa clara" onclick="top.showCountyTimeSeries('PNG/santa clara.png')"/>
    <polygon points="244.86,294.37 244.86,292.20 247.45,292.20 247.89,291.12 251.14,291.12 251.14,289.22 251.35,288.14 252.00,288.68 252.87,290.58 255.25,291.66 255.90,293.83 262.62,296.54 263.05,298.17 265.44,299.25 266.52,300.61 267.60,300.88 267.82,303.05 269.12,303.05 269.77,304.13 270.85,305.22 269.77,306.57 268.90,305.76 267.82,305.49 266.52,305.49 265.65,306.03 265.22,306.85 263.92,305.49 262.62,303.59 260.67,302.51 259.80,301.96 259.15,302.78 258.07,302.78 257.42,302.24 255.90,302.78 255.04,302.78 252.44,301.96 250.27,300.34 248.32,298.71 247.45,296.81 246.59,296.00 245.29,295.46 244.86,294.37 " style="stroke-width: 0.75; fill: #FFFFFF;" id="santa cruz" onclick="top.showCountyTimeSeries('PNG/santa cruz.png')"/>
    <polygon points="276.48,102.39 281.25,102.39 281.68,136.83 275.18,137.10 273.02,137.10 272.15,137.91 269.99,137.91 268.25,137.91 265.44,137.91 261.97,137.91 258.72,138.73 256.55,138.46 252.22,139.00 248.75,140.63 246.15,140.63 242.47,140.63 238.79,140.63 236.19,139.54 230.99,142.80 227.52,140.90 222.76,141.98 221.02,143.34 219.51,144.15 218.42,143.34 215.82,144.96 215.82,143.34 215.82,141.71 220.37,136.56 221.24,136.83 222.32,135.75 222.97,135.75 224.27,134.39 225.57,134.12 226.22,132.49 227.52,131.68 229.26,131.41 229.04,130.05 227.96,127.88 226.87,125.98 228.82,125.17 228.82,124.36 229.26,123.00 230.34,120.56 230.99,118.12 233.16,116.22 232.72,114.59 233.37,111.88 235.54,111.07 235.97,109.17 234.67,108.90 234.67,108.36 235.54,107.82 239.01,106.46 238.57,105.92 238.57,103.48 237.27,102.39 238.36,102.39 239.22,102.39 239.01,101.58 240.74,101.04 241.39,101.31 242.04,102.39 246.80,102.66 274.32,102.66 276.48,102.39 " style="stroke-width: 0.75; fill: #FFFFFF;" id="shasta" onclick="top.showCountyTimeSeries('PNG/shasta.png')"/>
    <polygon points="293.82,176.69 294.68,175.61 295.77,174.79 295.77,171.54 296.63,170.72 298.80,169.64 301.40,171.81 302.27,172.89 302.70,172.35 305.30,173.44 306.16,174.52 307.25,173.44 313.53,173.71 313.96,172.89 323.93,172.89 326.10,172.89 331.73,173.44 332.16,185.64 328.26,185.64 313.10,185.64 309.85,181.57 308.76,181.03 304.86,182.66 302.92,185.37 295.12,186.45 293.82,186.99 293.38,185.10 293.38,182.66 292.52,182.38 292.08,181.57 292.95,180.49 293.60,179.40 293.82,177.50 293.82,176.69 " style="stroke-width: 0.75; fill: #FFFFFF;" id="sierra" onclick="top.showCountyTimeSeries('PNG/sierra.png')"/>
    <polygon points="276.48,102.39 274.32,102.66 246.80,102.66 242.04,102.39 241.39,101.31 240.74,101.04 239.01,101.58 239.22,102.39 238.36,102.39 237.27,102.39 235.54,101.04 236.19,100.22 236.84,98.60 236.41,96.97 237.27,95.61 234.24,94.26 233.16,96.16 231.64,96.16 229.91,98.05 227.31,99.68 226.01,103.48 222.76,100.77 218.64,102.66 218.42,107.82 219.94,108.09 221.24,109.71 220.16,111.61 218.64,109.17 217.77,110.80 216.26,110.53 215.39,108.63 211.71,107.82 210.41,108.09 209.11,107.27 207.16,104.56 206.29,104.29 205.43,103.48 204.34,103.48 203.48,104.02 202.61,102.94 201.96,101.85 200.88,100.22 200.88,98.87 199.58,95.07 199.79,94.26 198.71,93.72 192.64,93.44 192.64,91.82 192.21,88.84 193.51,87.48 193.51,86.67 191.78,85.85 191.78,83.41 190.48,83.41 190.91,81.78 191.78,81.24 191.78,79.62 192.86,76.90 191.34,76.09 191.78,74.19 192.21,73.65 190.91,72.29 192.21,72.29 193.29,69.58 194.59,69.58 197.41,66.87 197.19,65.24 197.84,64.16 209.54,64.16 244.86,64.16 276.27,64.16 276.48,102.39 " style="stroke-width: 0.75; fill: #FFFFFF;" id="siskiyou" onclick="top.showCountyTimeSeries('PNG/siskiyou.png')"/>
    <polygon points="252.00,229.57 253.52,229.29 254.39,230.38 255.69,230.92 257.42,229.02 260.89,228.48 263.49,228.75 265.65,228.75 267.82,228.21 267.82,239.06 269.99,239.06 271.72,239.06 271.50,240.41 271.29,243.12 270.85,244.48 268.25,246.65 267.17,249.36 266.52,249.90 265.22,249.90 264.35,250.99 263.49,250.99 262.62,250.99 261.97,250.72 260.24,251.53 258.72,251.26 256.12,250.72 252.87,251.26 251.57,252.61 247.45,250.99 250.49,251.26 251.57,251.53 251.14,250.72 249.62,250.17 248.10,249.36 246.80,248.55 246.80,247.19 248.97,246.65 247.89,245.56 248.10,239.06 254.17,239.06 251.35,234.18 251.57,230.92 252.00,229.57 " style="stroke-width: 0.75; fill: #FFFFFF;" id="solano" onclick="top.showCountyTimeSeries('PNG/solano.png')"/>
    <polygon points="242.26,245.56 241.39,245.29 240.52,246.11 240.31,247.19 239.66,247.46 238.57,247.19 237.49,247.19 238.14,248.00 238.79,248.00 237.27,248.55 234.24,245.29 232.07,245.84 227.52,243.39 222.32,239.06 220.59,239.60 219.72,239.06 218.64,238.24 217.34,238.24 216.47,235.80 215.18,232.82 213.23,230.38 210.63,229.29 208.24,228.21 206.29,225.77 204.99,222.79 203.04,220.08 201.31,219.26 200.44,218.18 200.88,217.09 204.99,216.55 204.99,215.47 213.66,215.19 213.66,213.84 215.61,213.84 215.82,213.03 223.19,213.03 225.57,213.03 226.01,213.84 226.87,214.65 226.87,215.47 227.96,215.74 228.17,217.09 229.47,218.99 230.34,220.62 231.42,220.89 232.72,222.52 232.29,223.87 232.29,224.96 231.64,226.04 232.29,227.13 234.89,229.02 235.97,231.46 238.14,233.09 237.71,234.72 239.44,235.80 239.01,237.16 240.31,237.43 242.04,242.04 242.69,243.39 242.26,245.56 " style="stroke-width: 0.75; fill: #FFFFFF;" id="sonoma" onclick="top.showCountyTimeSeries('PNG/sonoma.png')"/>
    <polygon points="317.43,271.32 315.26,272.41 305.30,277.29 294.68,282.71 295.33,285.42 292.52,288.14 286.67,293.83 285.58,294.64 284.93,294.10 284.07,292.75 282.55,293.83 281.68,293.29 280.38,293.02 279.30,294.10 278.65,293.83 278.65,291.93 277.35,290.58 277.13,288.14 278.22,288.14 278.65,286.24 278.22,285.70 278.87,284.61 278.65,283.25 277.13,283.25 276.92,282.71 276.05,281.63 276.70,280.54 275.83,280.00 276.05,278.37 277.78,276.75 286.02,268.34 288.40,267.26 290.78,266.44 292.73,266.44 294.68,265.36 297.07,266.44 297.72,265.09 297.93,264.54 297.07,264.27 297.07,252.61 297.28,250.44 307.46,261.83 317.43,271.32 " style="stroke-width: 0.75; fill: #FFFFFF;" id="stanislaus" onclick="top.showCountyTimeSeries('PNG/stanislaus.png')"/>
    <polygon points="271.50,218.99 271.50,218.18 271.29,217.09 270.64,216.55 269.99,217.36 269.12,217.09 268.47,218.18 268.04,217.63 268.04,216.28 266.95,215.19 266.52,212.75 264.79,213.03 263.49,212.21 264.14,211.13 263.70,210.58 263.05,209.50 262.84,207.87 264.35,206.79 262.40,203.53 260.67,202.72 259.15,200.82 258.50,198.38 258.94,196.76 258.72,193.77 259.15,193.23 259.80,192.69 270.64,191.87 270.64,193.23 269.99,194.32 270.85,195.67 271.72,202.99 271.07,204.35 272.37,210.31 273.45,208.42 276.27,207.06 278.43,206.79 278.65,207.87 278.43,210.04 276.70,210.04 276.70,218.18 275.83,218.18 276.05,219.26 271.50,218.99 " style="stroke-width: 0.75; fill: #FFFFFF;" id="sutter" onclick="top.showCountyTimeSeries('PNG/sutter.png')"/>
    <polygon points="275.18,137.10 275.40,138.73 275.62,139.81 275.62,141.17 276.92,141.98 279.30,142.25 279.95,143.88 280.38,147.13 278.43,148.76 276.27,149.57 276.05,150.93 276.92,150.93 276.70,152.56 273.67,154.18 271.50,154.46 271.72,156.62 270.20,157.17 269.77,159.88 269.12,159.88 267.60,159.88 266.09,161.78 266.52,163.13 265.22,163.95 263.70,164.22 263.27,164.76 254.39,164.49 253.95,165.57 253.95,167.20 254.17,168.56 220.81,168.28 220.16,166.66 219.94,165.30 219.72,163.13 220.37,162.59 221.46,161.23 221.24,159.88 221.02,159.06 219.29,157.17 219.72,155.54 218.64,154.18 219.29,152.29 218.42,150.66 218.86,148.22 218.64,146.05 217.56,145.24 216.47,145.51 215.82,144.96 218.42,143.34 219.51,144.15 221.02,143.34 222.76,141.98 227.52,140.90 230.99,142.80 236.19,139.54 238.79,140.63 242.47,140.63 246.15,140.63 248.75,140.63 252.22,139.00 256.55,138.46 258.72,138.73 261.97,137.91 265.44,137.91 268.25,137.91 269.99,137.91 272.15,137.91 273.02,137.10 275.18,137.10 " style="stroke-width: 0.75; fill: #FFFFFF;" id="tehama" onclick="top.showCountyTimeSeries('PNG/tehama.png')"/>
    <polygon points="197.84,158.79 197.84,156.90 197.41,141.17 197.41,124.36 196.33,123.27 196.33,121.10 196.33,118.66 194.81,117.31 194.59,115.95 195.46,114.59 196.98,114.05 199.36,115.95 201.09,114.05 200.88,113.24 202.39,110.53 202.39,109.44 199.79,107.00 201.31,106.73 201.53,105.38 201.31,103.75 202.61,102.94 203.48,104.02 204.34,103.48 205.43,103.48 206.29,104.29 207.16,104.56 209.11,107.27 210.41,108.09 211.71,107.82 215.39,108.63 216.26,110.53 217.77,110.80 218.64,109.17 220.16,111.61 221.24,109.71 219.94,108.09 218.42,107.82 218.64,102.66 222.76,100.77 226.01,103.48 227.31,99.68 229.91,98.05 231.64,96.16 233.16,96.16 234.24,94.26 237.27,95.61 236.41,96.97 236.84,98.60 236.19,100.22 235.54,101.04 237.27,102.39 238.57,103.48 238.57,105.92 239.01,106.46 235.54,107.82 234.67,108.36 234.67,108.90 235.97,109.17 235.54,111.07 233.37,111.88 232.72,114.59 233.16,116.22 230.99,118.12 230.34,120.56 229.26,123.00 228.82,124.36 228.82,125.17 226.87,125.98 227.96,127.88 229.04,130.05 229.26,131.41 227.52,131.68 226.22,132.49 225.57,134.12 224.27,134.39 222.97,135.75 222.32,135.75 221.24,136.83 220.37,136.56 215.82,141.71 215.82,143.34 215.82,144.96 216.47,145.51 217.56,145.24 218.64,146.05 218.86,148.22 218.42,150.66 219.29,152.29 218.64,154.18 219.72,155.54 219.29,157.17 221.02,159.06 197.84,159.06 197.84,158.79 " style="stroke-width: 0.75; fill: #FFFFFF;" id="trinity" onclick="top.showCountyTimeSeries('PNG/trinity.png')"/>
    <polygon points="407.34,358.37 350.36,358.91 350.14,357.28 349.71,342.91 350.14,342.10 349.93,336.40 352.31,336.13 352.53,329.62 350.36,329.62 350.14,325.83 348.63,325.56 349.93,324.47 352.96,321.49 358.59,321.49 358.81,317.15 370.94,317.42 370.94,313.62 391.95,313.35 394.12,312.81 394.99,313.90 394.99,314.71 393.47,316.06 395.20,317.15 396.07,319.59 397.37,319.86 396.94,321.76 398.89,323.66 398.45,326.10 400.40,328.27 402.14,328.00 402.35,329.35 401.92,329.62 402.14,330.98 403.87,332.06 403.87,333.15 403.00,335.59 404.09,338.84 405.17,339.38 406.04,341.28 405.17,343.99 406.04,344.54 407.12,349.42 406.47,351.04 407.99,351.59 408.20,354.84 407.34,355.65 407.77,357.28 407.34,358.37 " style="stroke-width: 0.75; fill: #FFFFFF;" id="tulare" onclick="top.showCountyTimeSeries('PNG/tulare.png')"/>
    <polygon points="359.68,265.90 358.59,264.54 358.38,263.73 357.08,263.19 356.64,262.10 354.91,261.02 349.71,258.31 346.24,260.21 345.59,262.38 339.96,264.82 338.23,265.09 337.36,264.54 336.28,265.09 330.65,263.73 328.91,262.92 327.83,264.00 327.18,264.82 325.45,264.00 324.36,265.36 321.55,266.71 319.38,266.44 318.51,267.53 319.81,269.15 319.81,270.24 318.95,270.51 317.43,271.32 307.46,261.83 308.11,261.02 310.71,258.31 312.45,255.87 311.58,255.33 312.23,253.97 313.10,254.24 314.40,252.61 317.21,248.00 322.63,239.60 324.80,237.16 327.83,234.72 329.13,234.18 330.00,232.82 331.08,233.63 337.14,236.89 338.66,234.99 341.04,234.18 342.56,234.45 343.21,236.89 344.51,237.70 345.38,238.24 344.94,239.06 345.81,239.06 345.59,240.14 346.89,241.23 346.46,243.12 346.68,244.75 348.41,244.75 349.93,247.19 351.01,246.38 352.53,249.09 354.04,248.28 358.16,250.99 358.16,253.43 357.73,255.33 358.38,256.68 361.84,258.85 361.63,260.48 362.71,261.02 361.63,262.65 362.71,263.73 360.32,265.09 359.68,265.90 " style="stroke-width: 0.75; fill: #FFFFFF;" id="tuolumne" onclick="top.showCountyTimeSeries('PNG/tuolumne.png')"/>
    <polygon points="373.76,404.46 374.19,406.09 384.16,429.68 383.72,431.58 382.21,431.85 382.42,434.83 378.31,434.83 371.59,438.09 371.81,439.44 370.07,438.90 368.77,437.54 367.69,437.54 365.96,437.81 363.79,435.92 362.28,432.39 361.19,430.49 360.76,429.41 357.29,428.05 354.91,425.88 353.18,423.99 352.53,422.90 352.96,422.09 352.96,420.73 352.74,402.02 352.96,400.67 354.91,400.67 355.13,401.48 359.03,401.48 359.03,402.56 360.54,403.11 360.54,404.73 371.81,404.73 372.24,404.46 373.76,404.46 " style="stroke-width: 0.75; fill: #FFFFFF;" id="ventura" onclick="top.showCountyTimeSeries('PNG/ventura.png')"/>
    <polygon points="271.72,239.06 269.99,239.06 267.82,239.06 267.82,228.21 265.65,228.75 263.49,228.75 260.89,228.48 257.42,229.02 255.69,230.92 254.39,230.38 253.52,229.29 252.00,229.57 251.57,228.48 250.70,224.68 249.62,224.41 250.05,223.33 248.75,222.52 248.75,221.43 247.67,221.16 247.02,220.08 247.45,219.26 246.80,218.18 245.72,214.65 243.34,213.57 242.26,213.84 241.39,213.03 241.17,212.21 240.52,211.67 240.52,210.58 241.17,209.77 263.05,209.50 263.70,210.58 264.14,211.13 263.49,212.21 264.79,213.03 266.52,212.75 266.95,215.19 268.04,216.28 268.04,217.63 268.47,218.18 269.12,217.09 269.99,217.36 270.64,216.55 271.29,217.09 271.50,218.18 271.50,218.99 271.07,219.80 270.64,220.89 270.64,221.97 271.29,223.33 272.59,223.33 273.88,225.23 275.18,226.85 275.18,228.48 273.24,230.11 275.18,231.19 275.18,232.55 274.32,233.63 274.75,234.72 274.10,236.34 272.37,237.97 271.72,239.06 " style="stroke-width: 0.75; fill: #FFFFFF;" id="yolo" onclick="top.showCountyTimeSeries('PNG/yolo.png')"/>
    <polygon points="278.43,206.79 276.27,207.06 273.45,208.42 272.37,210.31 271.07,204.35 271.72,202.99 270.85,195.67 269.99,194.32 270.64,193.23 270.64,191.87 271.07,191.33 272.15,192.15 273.67,192.69 275.18,191.60 276.27,191.06 279.95,189.43 281.25,185.10 283.42,182.11 283.85,182.11 284.07,182.38 285.37,182.38 285.58,181.57 288.62,181.84 289.27,180.21 290.57,179.94 290.78,178.86 291.43,178.86 292.08,177.77 293.82,176.69 293.82,177.50 293.60,179.40 292.95,180.49 292.08,181.57 292.52,182.38 293.38,182.66 293.38,185.10 293.82,186.99 292.52,187.27 289.27,188.35 288.40,190.25 286.88,190.52 286.02,192.69 284.07,193.50 283.42,198.65 283.42,202.99 283.85,204.89 282.33,204.35 280.82,205.16 279.73,205.70 278.43,206.79 " style="stroke-width: 0.75; fill: #FFFFFF;" id="yuba" onclick="top.showCountyTimeSeries('PNG/yuba.png')"/>
  </g>
</svg>
