<?xml version="1.0" encoding="UTF-8"?>
<svg xmlns="http://www.w3.org/2000/svg" xmlns:xlink="http://www.w3.org/1999/xlink" class="svglite" width="720.00pt" height="576.00pt" viewBox="0 0 720.00 576.00">
  <defs>
    <style type="text/css"><![CDATA[
    .svglite line, .svglite polyline, .svglite polygon, .svglite path, .svglite rect, .svglite circle {
      fill: none;
      stroke: #000000;
      stroke-linecap: round;
      stroke-linejoin: round;
      stroke-miterlimit: 10.00;
    }
    .svglite text {
      white-space: pre;
    }
  ]]></style>
  </defs>
  <rect width="100%" height="100%" style="stroke: none; fill: #FFFFFF;"/>
  <defs>
    <clipPath id="cpMC4wMHw3MjAuMDB8MC4wMHw1NzYuMDA=">
      <rect x="0.00" y="0.00" width="720.00" height="576.00"/>
    </clipPath>
  </defs>
  <g clip-path="url(#cpMC4wMHw3MjAuMDB8MC4wMHw1NzYuMDA=)">
</g>
  <defs>
    <clipPath id="cpNTkuMDR8Njg5Ljc2fDU5LjA0fDUwMi41Ng==">
      <rect x="59.04" y="59.04" width="630.72" height="443.52"/>
    </clipPath>
  </defs>
  <g clip-path="url(#cpNTkuMDR8Njg5Ljc2fDU5LjA0fDUwMi41Ng==)">
    <polyline points="82.40,485.03 84.46,483.93 86.51,483.93 88.57,485.03 90.63,485.03 92.68,481.72 94.74,485.03 96.79,482.82 98.85,485.03 100.91,485.03 102.96,485.03 105.02,485.03 107.08,485.03 109.13,483.93 111.19,485.03 113.25,485.03 115.30,485.03 117.36,483.93 119.41,485.03 121.47,485.03 123.53,481.72 125.58,485.03 127.64,476.20 129.70,478.41 131.75,480.61 133.81,485.03 135.86,472.89 137.92,481.72 139.98,475.09 142.03,480.61 144.09,473.99 146.15,472.89 148.20,471.78 150.26,477.30 152.32,485.03 154.37,478.41 156.43,481.72 158.48,475.09 160.54,482.82 162.60,481.72 164.65,481.72 166.71,483.93 168.77,485.03 170.82,481.72 172.88,483.93 174.94,483.93 176.99,483.93 179.05,485.03 181.10,483.93 183.16,483.93 185.22,485.03 187.27,483.93 189.33,485.03 191.39,481.72 193.44,481.72 195.50,485.03 197.55,482.82 199.61,482.82 201.67,482.82 203.72,485.03 205.78,482.82 207.84,481.72 209.89,475.09 211.95,485.03 214.01,481.72 216.06,485.03 218.12,483.93 220.17,482.82 222.23,485.03 224.29,481.72 226.34,483.93 228.40,483.93 230.46,485.03 232.51,485.03 234.57,482.82 236.63,482.82 238.68,485.03 240.74,483.93 242.79,485.03 244.85,482.82 246.91,485.03 248.96,486.13 251.02,476.20 253.08,483.93 255.13,486.13 257.19,483.93 259.25,481.72 261.30,478.41 263.36,482.82 265.41,481.72 267.47,468.47 269.53,483.93 271.58,482.82 273.64,472.89 275.70,471.78 277.75,464.05 279.81,478.41 281.86,473.99 283.92,475.09 285.98,473.99 288.03,473.99 290.09,473.99 292.15,470.68 294.20,466.26 296.26,469.57 298.32,469.57 300.37,465.16 302.43,461.85 304.48,461.85 306.54,454.12 308.60,467.37 310.65,469.57 312.71,471.78 314.77,466.26 316.82,468.47 318.88,460.74 320.94,459.64 322.99,469.57 325.05,465.16 327.10,467.37 329.16,467.37 331.22,439.77 333.27,440.87 335.33,451.91 337.39,449.70 339.44,438.66 341.50,430.94 343.55,447.50 345.61,455.22 347.67,449.70 349.72,459.64 351.78,454.12 353.84,447.50 355.89,460.74 357.95,444.18 360.01,444.18 362.06,467.37 364.12,445.29 366.17,449.70 368.23,435.35 370.29,393.40 372.34,440.87 374.40,441.98 376.46,444.18 378.51,427.62 380.57,454.12 382.63,434.25 384.68,437.56 386.74,444.18 388.79,409.96 390.85,444.18 392.91,449.70 394.96,425.42 397.02,445.29 399.08,470.68 401.13,470.68 403.19,468.47 405.25,435.35 407.30,439.77 409.36,418.79 411.41,388.99 413.47,379.05 415.53,444.18 417.58,421.00 419.64,445.29 421.70,404.44 423.75,422.10 425.81,441.98 427.86,465.16 429.92,457.43 431.98,465.16 434.03,462.95 436.09,456.33 438.15,467.37 440.20,446.39 442.26,444.18 444.32,465.16 446.37,443.08 448.43,464.05 450.48,459.64 452.54,458.53 454.60,432.04 456.65,456.33 458.71,451.91 460.77,458.53 462.82,446.39 464.88,461.85 466.94,449.70 468.99,441.98 471.05,454.12 473.10,485.03 475.16,443.08 477.22,465.16 479.27,472.89 481.33,455.22 483.39,457.43 485.44,468.47 487.50,475.09 489.55,454.12 491.61,462.95 493.67,471.78 495.72,460.74 497.78,461.85 499.84,443.08 501.89,460.74 503.95,464.05 506.01,467.37 508.06,471.78 510.12,477.30 512.17,457.43 514.23,473.99 516.29,473.99 518.34,475.09 520.40,476.20 522.46,470.68 524.51,472.89 526.57,485.03 528.63,462.95 530.68,445.29 532.74,473.99 534.79,467.37 536.85,462.95 538.91,462.95 540.96,485.03 543.02,477.30 545.08,451.91 547.13,428.73 549.19,477.30 551.25,464.05 553.30,467.37 555.36,485.03 557.41,465.16 559.47,396.71 561.53,447.50 563.58,472.89 565.64,453.02 567.70,445.29 569.75,485.03 571.81,479.51 573.86,391.19 575.92,453.02 577.98,439.77 580.03,438.66 582.09,415.48 584.15,485.03 586.20,461.85 588.26,382.36 590.32,418.79 592.37,468.47 594.43,376.84 596.48,427.62 598.54,485.03 600.60,454.12 602.65,338.21 604.71,419.90 606.77,395.61 608.82,415.48 610.88,398.92 612.94,485.03 614.99,395.61 617.05,284.11 619.10,383.47 621.16,425.42 623.22,375.74 625.27,435.35 627.33,485.03 629.39,384.57 631.44,161.57 633.50,400.03 635.55,401.13 637.61,485.03 639.67,341.52 641.72,485.03 643.78,327.17 645.84,347.04 647.89,438.66 649.95,341.52 652.01,322.75 654.06,121.83 656.12,274.18 658.17,98.65 660.23,299.57 662.29,270.86 664.34,75.47 666.40,136.18 " style="stroke-width: 0.75;"/>
  </g>
  <g clip-path="url(#cpMC4wMHw3MjAuMDB8MC4wMHw1NzYuMDA=)">
    <line x1="146.15" y1="502.56" x2="522.46" y2="502.56" style="stroke-width: 0.75;"/>
    <line x1="146.15" y1="502.56" x2="146.15" y2="509.76" style="stroke-width: 0.75;"/>
    <line x1="333.27" y1="502.56" x2="333.27" y2="509.76" style="stroke-width: 0.75;"/>
    <line x1="522.46" y1="502.56" x2="522.46" y2="509.76" style="stroke-width: 0.75;"/>
    <text x="146.15" y="528.48" text-anchor="middle" style="font-size: 12.00px; font-family: &quot;Arial&quot;;" textLength="18.68px" lengthAdjust="spacingAndGlyphs">Apr</text>
    <text x="333.27" y="528.48" text-anchor="middle" style="font-size: 12.00px; font-family: &quot;Arial&quot;;" textLength="15.34px" lengthAdjust="spacingAndGlyphs">Jul</text>
    <text x="522.46" y="528.48" text-anchor="middle" style="font-size: 12.00px; font-family: &quot;Arial&quot;;" textLength="18.66px" lengthAdjust="spacingAndGlyphs">Oct</text>
    <line x1="59.04" y1="485.03" x2="59.04" y2="153.85" style="stroke-width: 0.75;"/>
    <line x1="59.04" y1="485.03" x2="51.84" y2="485.03" style="stroke-width: 0.75;"/>
    <line x1="59.04" y1="374.64" x2="51.84" y2="374.64" style="stroke-width: 0.75;"/>
    <line x1="59.04" y1="264.24" x2="51.84" y2="264.24" style="stroke-width: 0.75;"/>
    <line x1="59.04" y1="153.85" x2="51.84" y2="153.85" style="stroke-width: 0.75;"/>
    <text transform="translate(41.76,485.03) rotate(-90)" text-anchor="middle" style="font-size: 12.00px; font-family: &quot;Arial&quot;;" textLength="6.67px" lengthAdjust="spacingAndGlyphs">0</text>
    <text transform="translate(41.76,374.64) rotate(-90)" text-anchor="middle" style="font-size: 12.00px; font-family: &quot;Arial&quot;;" textLength="20.02px" lengthAdjust="spacingAndGlyphs">100</text>
    <text transform="translate(41.76,264.24) rotate(-90)" text-anchor="middle" style="font-size: 12.00px; font-family: &quot;Arial&quot;;" textLength="20.02px" lengthAdjust="spacingAndGlyphs">200</text>
    <text transform="translate(41.76,153.85) rotate(-90)" text-anchor="middle" style="font-size: 12.00px; font-family: &quot;Arial&quot;;" textLength="20.02px" lengthAdjust="spacingAndGlyphs">300</text>
    <polygon points="59.04,502.56 689.76,502.56 689.76,59.04 59.04,59.04 " style="stroke-width: 0.75;"/>
    <text x="374.40" y="34.70" text-anchor="middle" style="font-size: 14.40px; font-weight: bold; font-family: &quot;Arial&quot;;" textLength="43.21px" lengthAdjust="spacingAndGlyphs">Placer</text>
    <text x="374.40" y="557.28" text-anchor="middle" style="font-size: 12.00px; font-family: &quot;Arial&quot;;" textLength="25.35px" lengthAdjust="spacingAndGlyphs">Date</text>
    <text transform="translate(12.96,280.80) rotate(-90)" text-anchor="middle" style="font-size: 12.00px; font-family: &quot;Arial&quot;;" textLength="93.37px" lengthAdjust="spacingAndGlyphs">Number of Cases</text>
  </g>
  <g clip-path="url(#cpNTkuMDR8Njg5Ljc2fDU5LjA0fDUwMi41Ng==)">
    <circle cx="82.40" cy="485.03" r="1.80" style="stroke-width: 0.75; stroke: #FF0000; fill: #FF0000;" onclick="top.colorCounties(0)"/>
    <circle cx="84.46" cy="483.93" r="1.80" style="stroke-width: 0.75; stroke: #FF0000; fill: #FF0000;" onclick="top.colorCounties(1)"/>
    <circle cx="86.51" cy="483.93" r="1.80" style="stroke-width: 0.75; stroke: #FF0000; fill: #FF0000;" onclick="top.colorCounties(2)"/>
    <circle cx="88.57" cy="485.03" r="1.80" style="stroke-width: 0.75; stroke: #FF0000; fill: #FF0000;" onclick="top.colorCounties(3)"/>
    <circle cx="90.63" cy="485.03" r="1.80" style="stroke-width: 0.75; stroke: #FF0000; fill: #FF0000;" onclick="top.colorCounties(4)"/>
    <circle cx="92.68" cy="481.72" r="1.80" style="stroke-width: 0.75; stroke: #FF0000; fill: #FF0000;" onclick="top.colorCounties(5)"/>
    <circle cx="94.74" cy="485.03" r="1.80" style="stroke-width: 0.75; stroke: #FF0000; fill: #FF0000;" onclick="top.colorCounties(6)"/>
    <circle cx="96.79" cy="482.82" r="1.80" style="stroke-width: 0.75; stroke: #FF0000; fill: #FF0000;" onclick="top.colorCounties(7)"/>
    <circle cx="98.85" cy="485.03" r="1.80" style="stroke-width: 0.75; stroke: #FF0000; fill: #FF0000;" onclick="top.colorCounties(8)"/>
    <circle cx="100.91" cy="485.03" r="1.80" style="stroke-width: 0.75; stroke: #FF0000; fill: #FF0000;" onclick="top.colorCounties(9)"/>
    <circle cx="102.96" cy="485.03" r="1.80" style="stroke-width: 0.75; stroke: #FF0000; fill: #FF0000;" onclick="top.colorCounties(10)"/>
    <circle cx="105.02" cy="485.03" r="1.80" style="stroke-width: 0.75; stroke: #FF0000; fill: #FF0000;" onclick="top.colorCounties(11)"/>
    <circle cx="107.08" cy="485.03" r="1.80" style="stroke-width: 0.75; stroke: #FF0000; fill: #FF0000;" onclick="top.colorCounties(12)"/>
    <circle cx="109.13" cy="483.93" r="1.80" style="stroke-width: 0.75; stroke: #FF0000; fill: #FF0000;" onclick="top.colorCounties(13)"/>
    <circle cx="111.19" cy="485.03" r="1.80" style="stroke-width: 0.75; stroke: #FF0000; fill: #FF0000;" onclick="top.colorCounties(14)"/>
    <circle cx="113.25" cy="485.03" r="1.80" style="stroke-width: 0.75; stroke: #FF0000; fill: #FF0000;" onclick="top.colorCounties(15)"/>
    <circle cx="115.30" cy="485.03" r="1.80" style="stroke-width: 0.75; stroke: #FF0000; fill: #FF0000;" onclick="top.colorCounties(16)"/>
    <circle cx="117.36" cy="483.93" r="1.80" style="stroke-width: 0.75; stroke: #FF0000; fill: #FF0000;" onclick="top.colorCounties(17)"/>
    <circle cx="119.41" cy="485.03" r="1.80" style="stroke-width: 0.75; stroke: #FF0000; fill: #FF0000;" onclick="top.colorCounties(18)"/>
    <circle cx="121.47" cy="485.03" r="1.80" style="stroke-width: 0.75; stroke: #FF0000; fill: #FF0000;" onclick="top.colorCounties(19)"/>
    <circle cx="123.53" cy="481.72" r="1.80" style="stroke-width: 0.75; stroke: #FF0000; fill: #FF0000;" onclick="top.colorCounties(20)"/>
    <circle cx="125.58" cy="485.03" r="1.80" style="stroke-width: 0.75; stroke: #FF0000; fill: #FF0000;" onclick="top.colorCounties(21)"/>
    <circle cx="127.64" cy="476.20" r="1.80" style="stroke-width: 0.75; stroke: #FF0000; fill: #FF0000;" onclick="top.colorCounties(22)"/>
    <circle cx="129.70" cy="478.41" r="1.80" style="stroke-width: 0.75; stroke: #FF0000; fill: #FF0000;" onclick="top.colorCounties(23)"/>
    <circle cx="131.75" cy="480.61" r="1.80" style="stroke-width: 0.75; stroke: #FF0000; fill: #FF0000;" onclick="top.colorCounties(24)"/>
    <circle cx="133.81" cy="485.03" r="1.80" style="stroke-width: 0.75; stroke: #FF0000; fill: #FF0000;" onclick="top.colorCounties(25)"/>
    <circle cx="135.86" cy="472.89" r="1.80" style="stroke-width: 0.75; stroke: #FF0000; fill: #FF0000;" onclick="top.colorCounties(26)"/>
    <circle cx="137.92" cy="481.72" r="1.80" style="stroke-width: 0.75; stroke: #FF0000; fill: #FF0000;" onclick="top.colorCounties(27)"/>
    <circle cx="139.98" cy="475.09" r="1.80" style="stroke-width: 0.75; stroke: #FF0000; fill: #FF0000;" onclick="top.colorCounties(28)"/>
    <circle cx="142.03" cy="480.61" r="1.80" style="stroke-width: 0.75; stroke: #FF0000; fill: #FF0000;" onclick="top.colorCounties(29)"/>
    <circle cx="144.09" cy="473.99" r="1.80" style="stroke-width: 0.75; stroke: #FF0000; fill: #FF0000;" onclick="top.colorCounties(30)"/>
    <circle cx="146.15" cy="472.89" r="1.80" style="stroke-width: 0.75; stroke: #FF0000; fill: #FF0000;" onclick="top.colorCounties(31)"/>
    <circle cx="148.20" cy="471.78" r="1.80" style="stroke-width: 0.75; stroke: #FF0000; fill: #FF0000;" onclick="top.colorCounties(32)"/>
    <circle cx="150.26" cy="477.30" r="1.80" style="stroke-width: 0.75; stroke: #FF0000; fill: #FF0000;" onclick="top.colorCounties(33)"/>
    <circle cx="152.32" cy="485.03" r="1.80" style="stroke-width: 0.75; stroke: #FF0000; fill: #FF0000;" onclick="top.colorCounties(34)"/>
    <circle cx="154.37" cy="478.41" r="1.80" style="stroke-width: 0.75; stroke: #FF0000; fill: #FF0000;" onclick="top.colorCounties(35)"/>
    <circle cx="156.43" cy="481.72" r="1.80" style="stroke-width: 0.75; stroke: #FF0000; fill: #FF0000;" onclick="top.colorCounties(36)"/>
    <circle cx="158.48" cy="475.09" r="1.80" style="stroke-width: 0.75; stroke: #FF0000; fill: #FF0000;" onclick="top.colorCounties(37)"/>
    <circle cx="160.54" cy="482.82" r="1.80" style="stroke-width: 0.75; stroke: #FF0000; fill: #FF0000;" onclick="top.colorCounties(38)"/>
    <circle cx="162.60" cy="481.72" r="1.80" style="stroke-width: 0.75; stroke: #FF0000; fill: #FF0000;" onclick="top.colorCounties(39)"/>
    <circle cx="164.65" cy="481.72" r="1.80" style="stroke-width: 0.75; stroke: #FF0000; fill: #FF0000;" onclick="top.colorCounties(40)"/>
    <circle cx="166.71" cy="483.93" r="1.80" style="stroke-width: 0.75; stroke: #FF0000; fill: #FF0000;" onclick="top.colorCounties(41)"/>
    <circle cx="168.77" cy="485.03" r="1.80" style="stroke-width: 0.75; stroke: #FF0000; fill: #FF0000;" onclick="top.colorCounties(42)"/>
    <circle cx="170.82" cy="481.72" r="1.80" style="stroke-width: 0.75; stroke: #FF0000; fill: #FF0000;" onclick="top.colorCounties(43)"/>
    <circle cx="172.88" cy="483.93" r="1.80" style="stroke-width: 0.75; stroke: #FF0000; fill: #FF0000;" onclick="top.colorCounties(44)"/>
    <circle cx="174.94" cy="483.93" r="1.80" style="stroke-width: 0.75; stroke: #FF0000; fill: #FF0000;" onclick="top.colorCounties(45)"/>
    <circle cx="176.99" cy="483.93" r="1.80" style="stroke-width: 0.75; stroke: #FF0000; fill: #FF0000;" onclick="top.colorCounties(46)"/>
    <circle cx="179.05" cy="485.03" r="1.80" style="stroke-width: 0.75; stroke: #FF0000; fill: #FF0000;" onclick="top.colorCounties(47)"/>
    <circle cx="181.10" cy="483.93" r="1.80" style="stroke-width: 0.75; stroke: #FF0000; fill: #FF0000;" onclick="top.colorCounties(48)"/>
    <circle cx="183.16" cy="483.93" r="1.80" style="stroke-width: 0.75; stroke: #FF0000; fill: #FF0000;" onclick="top.colorCounties(49)"/>
    <circle cx="185.22" cy="485.03" r="1.80" style="stroke-width: 0.75; stroke: #FF0000; fill: #FF0000;" onclick="top.colorCounties(50)"/>
    <circle cx="187.27" cy="483.93" r="1.80" style="stroke-width: 0.75; stroke: #FF0000; fill: #FF0000;" onclick="top.colorCounties(51)"/>
    <circle cx="189.33" cy="485.03" r="1.80" style="stroke-width: 0.75; stroke: #FF0000; fill: #FF0000;" onclick="top.colorCounties(52)"/>
    <circle cx="191.39" cy="481.72" r="1.80" style="stroke-width: 0.75; stroke: #FF0000; fill: #FF0000;" onclick="top.colorCounties(53)"/>
    <circle cx="193.44" cy="481.72" r="1.80" style="stroke-width: 0.75; stroke: #FF0000; fill: #FF0000;" onclick="top.colorCounties(54)"/>
    <circle cx="195.50" cy="485.03" r="1.80" style="stroke-width: 0.75; stroke: #FF0000; fill: #FF0000;" onclick="top.colorCounties(55)"/>
    <circle cx="197.55" cy="482.82" r="1.80" style="stroke-width: 0.75; stroke: #FF0000; fill: #FF0000;" onclick="top.colorCounties(56)"/>
    <circle cx="199.61" cy="482.82" r="1.80" style="stroke-width: 0.75; stroke: #FF0000; fill: #FF0000;" onclick="top.colorCounties(57)"/>
    <circle cx="201.67" cy="482.82" r="1.80" style="stroke-width: 0.75; stroke: #FF0000; fill: #FF0000;" onclick="top.colorCounties(58)"/>
    <circle cx="203.72" cy="485.03" r="1.80" style="stroke-width: 0.75; stroke: #FF0000; fill: #FF0000;" onclick="top.colorCounties(59)"/>
    <circle cx="205.78" cy="482.82" r="1.80" style="stroke-width: 0.75; stroke: #FF0000; fill: #FF0000;" onclick="top.colorCounties(60)"/>
    <circle cx="207.84" cy="481.72" r="1.80" style="stroke-width: 0.75; stroke: #FF0000; fill: #FF0000;" onclick="top.colorCounties(61)"/>
    <circle cx="209.89" cy="475.09" r="1.80" style="stroke-width: 0.75; stroke: #FF0000; fill: #FF0000;" onclick="top.colorCounties(62)"/>
    <circle cx="211.95" cy="485.03" r="1.80" style="stroke-width: 0.75; stroke: #FF0000; fill: #FF0000;" onclick="top.colorCounties(63)"/>
    <circle cx="214.01" cy="481.72" r="1.80" style="stroke-width: 0.75; stroke: #FF0000; fill: #FF0000;" onclick="top.colorCounties(64)"/>
    <circle cx="216.06" cy="485.03" r="1.80" style="stroke-width: 0.75; stroke: #FF0000; fill: #FF0000;" onclick="top.colorCounties(65)"/>
    <circle cx="218.12" cy="483.93" r="1.80" style="stroke-width: 0.75; stroke: #FF0000; fill: #FF0000;" onclick="top.colorCounties(66)"/>
    <circle cx="220.17" cy="482.82" r="1.80" style="stroke-width: 0.75; stroke: #FF0000; fill: #FF0000;" onclick="top.colorCounties(67)"/>
    <circle cx="222.23" cy="485.03" r="1.80" style="stroke-width: 0.75; stroke: #FF0000; fill: #FF0000;" onclick="top.colorCounties(68)"/>
    <circle cx="224.29" cy="481.72" r="1.80" style="stroke-width: 0.75; stroke: #FF0000; fill: #FF0000;" onclick="top.colorCounties(69)"/>
    <circle cx="226.34" cy="483.93" r="1.80" style="stroke-width: 0.75; stroke: #FF0000; fill: #FF0000;" onclick="top.colorCounties(70)"/>
    <circle cx="228.40" cy="483.93" r="1.80" style="stroke-width: 0.75; stroke: #FF0000; fill: #FF0000;" onclick="top.colorCounties(71)"/>
    <circle cx="230.46" cy="485.03" r="1.80" style="stroke-width: 0.75; stroke: #FF0000; fill: #FF0000;" onclick="top.colorCounties(72)"/>
    <circle cx="232.51" cy="485.03" r="1.80" style="stroke-width: 0.75; stroke: #FF0000; fill: #FF0000;" onclick="top.colorCounties(73)"/>
    <circle cx="234.57" cy="482.82" r="1.80" style="stroke-width: 0.75; stroke: #FF0000; fill: #FF0000;" onclick="top.colorCounties(74)"/>
    <circle cx="236.63" cy="482.82" r="1.80" style="stroke-width: 0.75; stroke: #FF0000; fill: #FF0000;" onclick="top.colorCounties(75)"/>
    <circle cx="238.68" cy="485.03" r="1.80" style="stroke-width: 0.75; stroke: #FF0000; fill: #FF0000;" onclick="top.colorCounties(76)"/>
    <circle cx="240.74" cy="483.93" r="1.80" style="stroke-width: 0.75; stroke: #FF0000; fill: #FF0000;" onclick="top.colorCounties(77)"/>
    <circle cx="242.79" cy="485.03" r="1.80" style="stroke-width: 0.75; stroke: #FF0000; fill: #FF0000;" onclick="top.colorCounties(78)"/>
    <circle cx="244.85" cy="482.82" r="1.80" style="stroke-width: 0.75; stroke: #FF0000; fill: #FF0000;" onclick="top.colorCounties(79)"/>
    <circle cx="246.91" cy="485.03" r="1.80" style="stroke-width: 0.75; stroke: #FF0000; fill: #FF0000;" onclick="top.colorCounties(80)"/>
    <circle cx="248.96" cy="486.13" r="1.80" style="stroke-width: 0.75; stroke: #FF0000; fill: #FF0000;" onclick="top.colorCounties(81)"/>
    <circle cx="251.02" cy="476.20" r="1.80" style="stroke-width: 0.75; stroke: #FF0000; fill: #FF0000;" onclick="top.colorCounties(82)"/>
    <circle cx="253.08" cy="483.93" r="1.80" style="stroke-width: 0.75; stroke: #FF0000; fill: #FF0000;" onclick="top.colorCounties(83)"/>
    <circle cx="255.13" cy="486.13" r="1.80" style="stroke-width: 0.75; stroke: #FF0000; fill: #FF0000;" onclick="top.colorCounties(84)"/>
    <circle cx="257.19" cy="483.93" r="1.80" style="stroke-width: 0.75; stroke: #FF0000; fill: #FF0000;" onclick="top.colorCounties(85)"/>
    <circle cx="259.25" cy="481.72" r="1.80" style="stroke-width: 0.75; stroke: #FF0000; fill: #FF0000;" onclick="top.colorCounties(86)"/>
    <circle cx="261.30" cy="478.41" r="1.80" style="stroke-width: 0.75; stroke: #FF0000; fill: #FF0000;" onclick="top.colorCounties(87)"/>
    <circle cx="263.36" cy="482.82" r="1.80" style="stroke-width: 0.75; stroke: #FF0000; fill: #FF0000;" onclick="top.colorCounties(88)"/>
    <circle cx="265.41" cy="481.72" r="1.80" style="stroke-width: 0.75; stroke: #FF0000; fill: #FF0000;" onclick="top.colorCounties(89)"/>
    <circle cx="267.47" cy="468.47" r="1.80" style="stroke-width: 0.75; stroke: #FF0000; fill: #FF0000;" onclick="top.colorCounties(90)"/>
    <circle cx="269.53" cy="483.93" r="1.80" style="stroke-width: 0.75; stroke: #FF0000; fill: #FF0000;" onclick="top.colorCounties(91)"/>
    <circle cx="271.58" cy="482.82" r="1.80" style="stroke-width: 0.75; stroke: #FF0000; fill: #FF0000;" onclick="top.colorCounties(92)"/>
    <circle cx="273.64" cy="472.89" r="1.80" style="stroke-width: 0.75; stroke: #FF0000; fill: #FF0000;" onclick="top.colorCounties(93)"/>
    <circle cx="275.70" cy="471.78" r="1.80" style="stroke-width: 0.75; stroke: #FF0000; fill: #FF0000;" onclick="top.colorCounties(94)"/>
    <circle cx="277.75" cy="464.05" r="1.80" style="stroke-width: 0.75; stroke: #FF0000; fill: #FF0000;" onclick="top.colorCounties(95)"/>
    <circle cx="279.81" cy="478.41" r="1.80" style="stroke-width: 0.75; stroke: #FF0000; fill: #FF0000;" onclick="top.colorCounties(96)"/>
    <circle cx="281.86" cy="473.99" r="1.80" style="stroke-width: 0.75; stroke: #FF0000; fill: #FF0000;" onclick="top.colorCounties(97)"/>
    <circle cx="283.92" cy="475.09" r="1.80" style="stroke-width: 0.75; stroke: #FF0000; fill: #FF0000;" onclick="top.colorCounties(98)"/>
    <circle cx="285.98" cy="473.99" r="1.80" style="stroke-width: 0.75; stroke: #FF0000; fill: #FF0000;" onclick="top.colorCounties(99)"/>
    <circle cx="288.03" cy="473.99" r="1.80" style="stroke-width: 0.75; stroke: #FF0000; fill: #FF0000;" onclick="top.colorCounties(100)"/>
    <circle cx="290.09" cy="473.99" r="1.80" style="stroke-width: 0.75; stroke: #FF0000; fill: #FF0000;" onclick="top.colorCounties(101)"/>
    <circle cx="292.15" cy="470.68" r="1.80" style="stroke-width: 0.75; stroke: #FF0000; fill: #FF0000;" onclick="top.colorCounties(102)"/>
    <circle cx="294.20" cy="466.26" r="1.80" style="stroke-width: 0.75; stroke: #FF0000; fill: #FF0000;" onclick="top.colorCounties(103)"/>
    <circle cx="296.26" cy="469.57" r="1.80" style="stroke-width: 0.75; stroke: #FF0000; fill: #FF0000;" onclick="top.colorCounties(104)"/>
    <circle cx="298.32" cy="469.57" r="1.80" style="stroke-width: 0.75; stroke: #FF0000; fill: #FF0000;" onclick="top.colorCounties(105)"/>
    <circle cx="300.37" cy="465.16" r="1.80" style="stroke-width: 0.75; stroke: #FF0000; fill: #FF0000;" onclick="top.colorCounties(106)"/>
    <circle cx="302.43" cy="461.85" r="1.80" style="stroke-width: 0.75; stroke: #FF0000; fill: #FF0000;" onclick="top.colorCounties(107)"/>
    <circle cx="304.48" cy="461.85" r="1.80" style="stroke-width: 0.75; stroke: #FF0000; fill: #FF0000;" onclick="top.colorCounties(108)"/>
    <circle cx="306.54" cy="454.12" r="1.80" style="stroke-width: 0.75; stroke: #FF0000; fill: #FF0000;" onclick="top.colorCounties(109)"/>
    <circle cx="308.60" cy="467.37" r="1.80" style="stroke-width: 0.75; stroke: #FF0000; fill: #FF0000;" onclick="top.colorCounties(110)"/>
    <circle cx="310.65" cy="469.57" r="1.80" style="stroke-width: 0.75; stroke: #FF0000; fill: #FF0000;" onclick="top.colorCounties(111)"/>
    <circle cx="312.71" cy="471.78" r="1.80" style="stroke-width: 0.75; stroke: #FF0000; fill: #FF0000;" onclick="top.colorCounties(112)"/>
    <circle cx="314.77" cy="466.26" r="1.80" style="stroke-width: 0.75; stroke: #FF0000; fill: #FF0000;" onclick="top.colorCounties(113)"/>
    <circle cx="316.82" cy="468.47" r="1.80" style="stroke-width: 0.75; stroke: #FF0000; fill: #FF0000;" onclick="top.colorCounties(114)"/>
    <circle cx="318.88" cy="460.74" r="1.80" style="stroke-width: 0.75; stroke: #FF0000; fill: #FF0000;" onclick="top.colorCounties(115)"/>
    <circle cx="320.94" cy="459.64" r="1.80" style="stroke-width: 0.75; stroke: #FF0000; fill: #FF0000;" onclick="top.colorCounties(116)"/>
    <circle cx="322.99" cy="469.57" r="1.80" style="stroke-width: 0.75; stroke: #FF0000; fill: #FF0000;" onclick="top.colorCounties(117)"/>
    <circle cx="325.05" cy="465.16" r="1.80" style="stroke-width: 0.75; stroke: #FF0000; fill: #FF0000;" onclick="top.colorCounties(118)"/>
    <circle cx="327.10" cy="467.37" r="1.80" style="stroke-width: 0.75; stroke: #FF0000; fill: #FF0000;" onclick="top.colorCounties(119)"/>
    <circle cx="329.16" cy="467.37" r="1.80" style="stroke-width: 0.75; stroke: #FF0000; fill: #FF0000;" onclick="top.colorCounties(120)"/>
    <circle cx="331.22" cy="439.77" r="1.80" style="stroke-width: 0.75; stroke: #FF0000; fill: #FF0000;" onclick="top.colorCounties(121)"/>
    <circle cx="333.27" cy="440.87" r="1.80" style="stroke-width: 0.75; stroke: #FF0000; fill: #FF0000;" onclick="top.colorCounties(122)"/>
    <circle cx="335.33" cy="451.91" r="1.80" style="stroke-width: 0.75; stroke: #FF0000; fill: #FF0000;" onclick="top.colorCounties(123)"/>
    <circle cx="337.39" cy="449.70" r="1.80" style="stroke-width: 0.75; stroke: #FF0000; fill: #FF0000;" onclick="top.colorCounties(124)"/>
    <circle cx="339.44" cy="438.66" r="1.80" style="stroke-width: 0.75; stroke: #FF0000; fill: #FF0000;" onclick="top.colorCounties(125)"/>
    <circle cx="341.50" cy="430.94" r="1.80" style="stroke-width: 0.75; stroke: #FF0000; fill: #FF0000;" onclick="top.colorCounties(126)"/>
    <circle cx="343.55" cy="447.50" r="1.80" style="stroke-width: 0.75; stroke: #FF0000; fill: #FF0000;" onclick="top.colorCounties(127)"/>
    <circle cx="345.61" cy="455.22" r="1.80" style="stroke-width: 0.75; stroke: #FF0000; fill: #FF0000;" onclick="top.colorCounties(128)"/>
    <circle cx="347.67" cy="449.70" r="1.80" style="stroke-width: 0.75; stroke: #FF0000; fill: #FF0000;" onclick="top.colorCounties(129)"/>
    <circle cx="349.72" cy="459.64" r="1.80" style="stroke-width: 0.75; stroke: #FF0000; fill: #FF0000;" onclick="top.colorCounties(130)"/>
    <circle cx="351.78" cy="454.12" r="1.80" style="stroke-width: 0.75; stroke: #FF0000; fill: #FF0000;" onclick="top.colorCounties(131)"/>
    <circle cx="353.84" cy="447.50" r="1.80" style="stroke-width: 0.75; stroke: #FF0000; fill: #FF0000;" onclick="top.colorCounties(132)"/>
    <circle cx="355.89" cy="460.74" r="1.80" style="stroke-width: 0.75; stroke: #FF0000; fill: #FF0000;" onclick="top.colorCounties(133)"/>
    <circle cx="357.95" cy="444.18" r="1.80" style="stroke-width: 0.75; stroke: #FF0000; fill: #FF0000;" onclick="top.colorCounties(134)"/>
    <circle cx="360.01" cy="444.18" r="1.80" style="stroke-width: 0.75; stroke: #FF0000; fill: #FF0000;" onclick="top.colorCounties(135)"/>
    <circle cx="362.06" cy="467.37" r="1.80" style="stroke-width: 0.75; stroke: #FF0000; fill: #FF0000;" onclick="top.colorCounties(136)"/>
    <circle cx="364.12" cy="445.29" r="1.80" style="stroke-width: 0.75; stroke: #FF0000; fill: #FF0000;" onclick="top.colorCounties(137)"/>
    <circle cx="366.17" cy="449.70" r="1.80" style="stroke-width: 0.75; stroke: #FF0000; fill: #FF0000;" onclick="top.colorCounties(138)"/>
    <circle cx="368.23" cy="435.35" r="1.80" style="stroke-width: 0.75; stroke: #FF0000; fill: #FF0000;" onclick="top.colorCounties(139)"/>
    <circle cx="370.29" cy="393.40" r="1.80" style="stroke-width: 0.75; stroke: #FF0000; fill: #FF0000;" onclick="top.colorCounties(140)"/>
    <circle cx="372.34" cy="440.87" r="1.80" style="stroke-width: 0.75; stroke: #FF0000; fill: #FF0000;" onclick="top.colorCounties(141)"/>
    <circle cx="374.40" cy="441.98" r="1.80" style="stroke-width: 0.75; stroke: #FF0000; fill: #FF0000;" onclick="top.colorCounties(142)"/>
    <circle cx="376.46" cy="444.18" r="1.80" style="stroke-width: 0.75; stroke: #FF0000; fill: #FF0000;" onclick="top.colorCounties(143)"/>
    <circle cx="378.51" cy="427.62" r="1.80" style="stroke-width: 0.75; stroke: #FF0000; fill: #FF0000;" onclick="top.colorCounties(144)"/>
    <circle cx="380.57" cy="454.12" r="1.80" style="stroke-width: 0.75; stroke: #FF0000; fill: #FF0000;" onclick="top.colorCounties(145)"/>
    <circle cx="382.63" cy="434.25" r="1.80" style="stroke-width: 0.75; stroke: #FF0000; fill: #FF0000;" onclick="top.colorCounties(146)"/>
    <circle cx="384.68" cy="437.56" r="1.80" style="stroke-width: 0.75; stroke: #FF0000; fill: #FF0000;" onclick="top.colorCounties(147)"/>
    <circle cx="386.74" cy="444.18" r="1.80" style="stroke-width: 0.75; stroke: #FF0000; fill: #FF0000;" onclick="top.colorCounties(148)"/>
    <circle cx="388.79" cy="409.96" r="1.80" style="stroke-width: 0.75; stroke: #FF0000; fill: #FF0000;" onclick="top.colorCounties(149)"/>
    <circle cx="390.85" cy="444.18" r="1.80" style="stroke-width: 0.75; stroke: #FF0000; fill: #FF0000;" onclick="top.colorCounties(150)"/>
    <circle cx="392.91" cy="449.70" r="1.80" style="stroke-width: 0.75; stroke: #FF0000; fill: #FF0000;" onclick="top.colorCounties(151)"/>
    <circle cx="394.96" cy="425.42" r="1.80" style="stroke-width: 0.75; stroke: #FF0000; fill: #FF0000;" onclick="top.colorCounties(152)"/>
    <circle cx="397.02" cy="445.29" r="1.80" style="stroke-width: 0.75; stroke: #FF0000; fill: #FF0000;" onclick="top.colorCounties(153)"/>
    <circle cx="399.08" cy="470.68" r="1.80" style="stroke-width: 0.75; stroke: #FF0000; fill: #FF0000;" onclick="top.colorCounties(154)"/>
    <circle cx="401.13" cy="470.68" r="1.80" style="stroke-width: 0.75; stroke: #FF0000; fill: #FF0000;" onclick="top.colorCounties(155)"/>
    <circle cx="403.19" cy="468.47" r="1.80" style="stroke-width: 0.75; stroke: #FF0000; fill: #FF0000;" onclick="top.colorCounties(156)"/>
    <circle cx="405.25" cy="435.35" r="1.80" style="stroke-width: 0.75; stroke: #FF0000; fill: #FF0000;" onclick="top.colorCounties(157)"/>
    <circle cx="407.30" cy="439.77" r="1.80" style="stroke-width: 0.75; stroke: #FF0000; fill: #FF0000;" onclick="top.colorCounties(158)"/>
    <circle cx="409.36" cy="418.79" r="1.80" style="stroke-width: 0.75; stroke: #FF0000; fill: #FF0000;" onclick="top.colorCounties(159)"/>
    <circle cx="411.41" cy="388.99" r="1.80" style="stroke-width: 0.75; stroke: #FF0000; fill: #FF0000;" onclick="top.colorCounties(160)"/>
    <circle cx="413.47" cy="379.05" r="1.80" style="stroke-width: 0.75; stroke: #FF0000; fill: #FF0000;" onclick="top.colorCounties(161)"/>
    <circle cx="415.53" cy="444.18" r="1.80" style="stroke-width: 0.75; stroke: #FF0000; fill: #FF0000;" onclick="top.colorCounties(162)"/>
    <circle cx="417.58" cy="421.00" r="1.80" style="stroke-width: 0.75; stroke: #FF0000; fill: #FF0000;" onclick="top.colorCounties(163)"/>
    <circle cx="419.64" cy="445.29" r="1.80" style="stroke-width: 0.75; stroke: #FF0000; fill: #FF0000;" onclick="top.colorCounties(164)"/>
    <circle cx="421.70" cy="404.44" r="1.80" style="stroke-width: 0.75; stroke: #FF0000; fill: #FF0000;" onclick="top.colorCounties(165)"/>
    <circle cx="423.75" cy="422.10" r="1.80" style="stroke-width: 0.75; stroke: #FF0000; fill: #FF0000;" onclick="top.colorCounties(166)"/>
    <circle cx="425.81" cy="441.98" r="1.80" style="stroke-width: 0.75; stroke: #FF0000; fill: #FF0000;" onclick="top.colorCounties(167)"/>
    <circle cx="427.86" cy="465.16" r="1.80" style="stroke-width: 0.75; stroke: #FF0000; fill: #FF0000;" onclick="top.colorCounties(168)"/>
    <circle cx="429.92" cy="457.43" r="1.80" style="stroke-width: 0.75; stroke: #FF0000; fill: #FF0000;" onclick="top.colorCounties(169)"/>
    <circle cx="431.98" cy="465.16" r="1.80" style="stroke-width: 0.75; stroke: #FF0000; fill: #FF0000;" onclick="top.colorCounties(170)"/>
    <circle cx="434.03" cy="462.95" r="1.80" style="stroke-width: 0.75; stroke: #FF0000; fill: #FF0000;" onclick="top.colorCounties(171)"/>
    <circle cx="436.09" cy="456.33" r="1.80" style="stroke-width: 0.75; stroke: #FF0000; fill: #FF0000;" onclick="top.colorCounties(172)"/>
    <circle cx="438.15" cy="467.37" r="1.80" style="stroke-width: 0.75; stroke: #FF0000; fill: #FF0000;" onclick="top.colorCounties(173)"/>
    <circle cx="440.20" cy="446.39" r="1.80" style="stroke-width: 0.75; stroke: #FF0000; fill: #FF0000;" onclick="top.colorCounties(174)"/>
    <circle cx="442.26" cy="444.18" r="1.80" style="stroke-width: 0.75; stroke: #FF0000; fill: #FF0000;" onclick="top.colorCounties(175)"/>
    <circle cx="444.32" cy="465.16" r="1.80" style="stroke-width: 0.75; stroke: #FF0000; fill: #FF0000;" onclick="top.colorCounties(176)"/>
    <circle cx="446.37" cy="443.08" r="1.80" style="stroke-width: 0.75; stroke: #FF0000; fill: #FF0000;" onclick="top.colorCounties(177)"/>
    <circle cx="448.43" cy="464.05" r="1.80" style="stroke-width: 0.75; stroke: #FF0000; fill: #FF0000;" onclick="top.colorCounties(178)"/>
    <circle cx="450.48" cy="459.64" r="1.80" style="stroke-width: 0.75; stroke: #FF0000; fill: #FF0000;" onclick="top.colorCounties(179)"/>
    <circle cx="452.54" cy="458.53" r="1.80" style="stroke-width: 0.75; stroke: #FF0000; fill: #FF0000;" onclick="top.colorCounties(180)"/>
    <circle cx="454.60" cy="432.04" r="1.80" style="stroke-width: 0.75; stroke: #FF0000; fill: #FF0000;" onclick="top.colorCounties(181)"/>
    <circle cx="456.65" cy="456.33" r="1.80" style="stroke-width: 0.75; stroke: #FF0000; fill: #FF0000;" onclick="top.colorCounties(182)"/>
    <circle cx="458.71" cy="451.91" r="1.80" style="stroke-width: 0.75; stroke: #FF0000; fill: #FF0000;" onclick="top.colorCounties(183)"/>
    <circle cx="460.77" cy="458.53" r="1.80" style="stroke-width: 0.75; stroke: #FF0000; fill: #FF0000;" onclick="top.colorCounties(184)"/>
    <circle cx="462.82" cy="446.39" r="1.80" style="stroke-width: 0.75; stroke: #FF0000; fill: #FF0000;" onclick="top.colorCounties(185)"/>
    <circle cx="464.88" cy="461.85" r="1.80" style="stroke-width: 0.75; stroke: #FF0000; fill: #FF0000;" onclick="top.colorCounties(186)"/>
    <circle cx="466.94" cy="449.70" r="1.80" style="stroke-width: 0.75; stroke: #FF0000; fill: #FF0000;" onclick="top.colorCounties(187)"/>
    <circle cx="468.99" cy="441.98" r="1.80" style="stroke-width: 0.75; stroke: #FF0000; fill: #FF0000;" onclick="top.colorCounties(188)"/>
    <circle cx="471.05" cy="454.12" r="1.80" style="stroke-width: 0.75; stroke: #FF0000; fill: #FF0000;" onclick="top.colorCounties(189)"/>
    <circle cx="473.10" cy="485.03" r="1.80" style="stroke-width: 0.75; stroke: #FF0000; fill: #FF0000;" onclick="top.colorCounties(190)"/>
    <circle cx="475.16" cy="443.08" r="1.80" style="stroke-width: 0.75; stroke: #FF0000; fill: #FF0000;" onclick="top.colorCounties(191)"/>
    <circle cx="477.22" cy="465.16" r="1.80" style="stroke-width: 0.75; stroke: #FF0000; fill: #FF0000;" onclick="top.colorCounties(192)"/>
    <circle cx="479.27" cy="472.89" r="1.80" style="stroke-width: 0.75; stroke: #FF0000; fill: #FF0000;" onclick="top.colorCounties(193)"/>
    <circle cx="481.33" cy="455.22" r="1.80" style="stroke-width: 0.75; stroke: #FF0000; fill: #FF0000;" onclick="top.colorCounties(194)"/>
    <circle cx="483.39" cy="457.43" r="1.80" style="stroke-width: 0.75; stroke: #FF0000; fill: #FF0000;" onclick="top.colorCounties(195)"/>
    <circle cx="485.44" cy="468.47" r="1.80" style="stroke-width: 0.75; stroke: #FF0000; fill: #FF0000;" onclick="top.colorCounties(196)"/>
    <circle cx="487.50" cy="475.09" r="1.80" style="stroke-width: 0.75; stroke: #FF0000; fill: #FF0000;" onclick="top.colorCounties(197)"/>
    <circle cx="489.55" cy="454.12" r="1.80" style="stroke-width: 0.75; stroke: #FF0000; fill: #FF0000;" onclick="top.colorCounties(198)"/>
    <circle cx="491.61" cy="462.95" r="1.80" style="stroke-width: 0.75; stroke: #FF0000; fill: #FF0000;" onclick="top.colorCounties(199)"/>
    <circle cx="493.67" cy="471.78" r="1.80" style="stroke-width: 0.75; stroke: #FF0000; fill: #FF0000;" onclick="top.colorCounties(200)"/>
    <circle cx="495.72" cy="460.74" r="1.80" style="stroke-width: 0.75; stroke: #FF0000; fill: #FF0000;" onclick="top.colorCounties(201)"/>
    <circle cx="497.78" cy="461.85" r="1.80" style="stroke-width: 0.75; stroke: #FF0000; fill: #FF0000;" onclick="top.colorCounties(202)"/>
    <circle cx="499.84" cy="443.08" r="1.80" style="stroke-width: 0.75; stroke: #FF0000; fill: #FF0000;" onclick="top.colorCounties(203)"/>
    <circle cx="501.89" cy="460.74" r="1.80" style="stroke-width: 0.75; stroke: #FF0000; fill: #FF0000;" onclick="top.colorCounties(204)"/>
    <circle cx="503.95" cy="464.05" r="1.80" style="stroke-width: 0.75; stroke: #FF0000; fill: #FF0000;" onclick="top.colorCounties(205)"/>
    <circle cx="506.01" cy="467.37" r="1.80" style="stroke-width: 0.75; stroke: #FF0000; fill: #FF0000;" onclick="top.colorCounties(206)"/>
    <circle cx="508.06" cy="471.78" r="1.80" style="stroke-width: 0.75; stroke: #FF0000; fill: #FF0000;" onclick="top.colorCounties(207)"/>
    <circle cx="510.12" cy="477.30" r="1.80" style="stroke-width: 0.75; stroke: #FF0000; fill: #FF0000;" onclick="top.colorCounties(208)"/>
    <circle cx="512.17" cy="457.43" r="1.80" style="stroke-width: 0.75; stroke: #FF0000; fill: #FF0000;" onclick="top.colorCounties(209)"/>
    <circle cx="514.23" cy="473.99" r="1.80" style="stroke-width: 0.75; stroke: #FF0000; fill: #FF0000;" onclick="top.colorCounties(210)"/>
    <circle cx="516.29" cy="473.99" r="1.80" style="stroke-width: 0.75; stroke: #FF0000; fill: #FF0000;" onclick="top.colorCounties(211)"/>
    <circle cx="518.34" cy="475.09" r="1.80" style="stroke-width: 0.75; stroke: #FF0000; fill: #FF0000;" onclick="top.colorCounties(212)"/>
    <circle cx="520.40" cy="476.20" r="1.80" style="stroke-width: 0.75; stroke: #FF0000; fill: #FF0000;" onclick="top.colorCounties(213)"/>
    <circle cx="522.46" cy="470.68" r="1.80" style="stroke-width: 0.75; stroke: #FF0000; fill: #FF0000;" onclick="top.colorCounties(214)"/>
    <circle cx="524.51" cy="472.89" r="1.80" style="stroke-width: 0.75; stroke: #FF0000; fill: #FF0000;" onclick="top.colorCounties(215)"/>
    <circle cx="526.57" cy="485.03" r="1.80" style="stroke-width: 0.75; stroke: #FF0000; fill: #FF0000;" onclick="top.colorCounties(216)"/>
    <circle cx="528.63" cy="462.95" r="1.80" style="stroke-width: 0.75; stroke: #FF0000; fill: #FF0000;" onclick="top.colorCounties(217)"/>
    <circle cx="530.68" cy="445.29" r="1.80" style="stroke-width: 0.75; stroke: #FF0000; fill: #FF0000;" onclick="top.colorCounties(218)"/>
    <circle cx="532.74" cy="473.99" r="1.80" style="stroke-width: 0.75; stroke: #FF0000; fill: #FF0000;" onclick="top.colorCounties(219)"/>
    <circle cx="534.79" cy="467.37" r="1.80" style="stroke-width: 0.75; stroke: #FF0000; fill: #FF0000;" onclick="top.colorCounties(220)"/>
    <circle cx="536.85" cy="462.95" r="1.80" style="stroke-width: 0.75; stroke: #FF0000; fill: #FF0000;" onclick="top.colorCounties(221)"/>
    <circle cx="538.91" cy="462.95" r="1.80" style="stroke-width: 0.75; stroke: #FF0000; fill: #FF0000;" onclick="top.colorCounties(222)"/>
    <circle cx="540.96" cy="485.03" r="1.80" style="stroke-width: 0.75; stroke: #FF0000; fill: #FF0000;" onclick="top.colorCounties(223)"/>
    <circle cx="543.02" cy="477.30" r="1.80" style="stroke-width: 0.75; stroke: #FF0000; fill: #FF0000;" onclick="top.colorCounties(224)"/>
    <circle cx="545.08" cy="451.91" r="1.80" style="stroke-width: 0.75; stroke: #FF0000; fill: #FF0000;" onclick="top.colorCounties(225)"/>
    <circle cx="547.13" cy="428.73" r="1.80" style="stroke-width: 0.75; stroke: #FF0000; fill: #FF0000;" onclick="top.colorCounties(226)"/>
    <circle cx="549.19" cy="477.30" r="1.80" style="stroke-width: 0.75; stroke: #FF0000; fill: #FF0000;" onclick="top.colorCounties(227)"/>
    <circle cx="551.25" cy="464.05" r="1.80" style="stroke-width: 0.75; stroke: #FF0000; fill: #FF0000;" onclick="top.colorCounties(228)"/>
    <circle cx="553.30" cy="467.37" r="1.80" style="stroke-width: 0.75; stroke: #FF0000; fill: #FF0000;" onclick="top.colorCounties(229)"/>
    <circle cx="555.36" cy="485.03" r="1.80" style="stroke-width: 0.75; stroke: #FF0000; fill: #FF0000;" onclick="top.colorCounties(230)"/>
    <circle cx="557.41" cy="465.16" r="1.80" style="stroke-width: 0.75; stroke: #FF0000; fill: #FF0000;" onclick="top.colorCounties(231)"/>
    <circle cx="559.47" cy="396.71" r="1.80" style="stroke-width: 0.75; stroke: #FF0000; fill: #FF0000;" onclick="top.colorCounties(232)"/>
    <circle cx="561.53" cy="447.50" r="1.80" style="stroke-width: 0.75; stroke: #FF0000; fill: #FF0000;" onclick="top.colorCounties(233)"/>
    <circle cx="563.58" cy="472.89" r="1.80" style="stroke-width: 0.75; stroke: #FF0000; fill: #FF0000;" onclick="top.colorCounties(234)"/>
    <circle cx="565.64" cy="453.02" r="1.80" style="stroke-width: 0.75; stroke: #FF0000; fill: #FF0000;" onclick="top.colorCounties(235)"/>
    <circle cx="567.70" cy="445.29" r="1.80" style="stroke-width: 0.75; stroke: #FF0000; fill: #FF0000;" onclick="top.colorCounties(236)"/>
    <circle cx="569.75" cy="485.03" r="1.80" style="stroke-width: 0.75; stroke: #FF0000; fill: #FF0000;" onclick="top.colorCounties(237)"/>
    <circle cx="571.81" cy="479.51" r="1.80" style="stroke-width: 0.75; stroke: #FF0000; fill: #FF0000;" onclick="top.colorCounties(238)"/>
    <circle cx="573.86" cy="391.19" r="1.80" style="stroke-width: 0.75; stroke: #FF0000; fill: #FF0000;" onclick="top.colorCounties(239)"/>
    <circle cx="575.92" cy="453.02" r="1.80" style="stroke-width: 0.75; stroke: #FF0000; fill: #FF0000;" onclick="top.colorCounties(240)"/>
    <circle cx="577.98" cy="439.77" r="1.80" style="stroke-width: 0.75; stroke: #FF0000; fill: #FF0000;" onclick="top.colorCounties(241)"/>
    <circle cx="580.03" cy="438.66" r="1.80" style="stroke-width: 0.75; stroke: #FF0000; fill: #FF0000;" onclick="top.colorCounties(242)"/>
    <circle cx="582.09" cy="415.48" r="1.80" style="stroke-width: 0.75; stroke: #FF0000; fill: #FF0000;" onclick="top.colorCounties(243)"/>
    <circle cx="584.15" cy="485.03" r="1.80" style="stroke-width: 0.75; stroke: #FF0000; fill: #FF0000;" onclick="top.colorCounties(244)"/>
    <circle cx="586.20" cy="461.85" r="1.80" style="stroke-width: 0.75; stroke: #FF0000; fill: #FF0000;" onclick="top.colorCounties(245)"/>
    <circle cx="588.26" cy="382.36" r="1.80" style="stroke-width: 0.75; stroke: #FF0000; fill: #FF0000;" onclick="top.colorCounties(246)"/>
    <circle cx="590.32" cy="418.79" r="1.80" style="stroke-width: 0.75; stroke: #FF0000; fill: #FF0000;" onclick="top.colorCounties(247)"/>
    <circle cx="592.37" cy="468.47" r="1.80" style="stroke-width: 0.75; stroke: #FF0000; fill: #FF0000;" onclick="top.colorCounties(248)"/>
    <circle cx="594.43" cy="376.84" r="1.80" style="stroke-width: 0.75; stroke: #FF0000; fill: #FF0000;" onclick="top.colorCounties(249)"/>
    <circle cx="596.48" cy="427.62" r="1.80" style="stroke-width: 0.75; stroke: #FF0000; fill: #FF0000;" onclick="top.colorCounties(250)"/>
    <circle cx="598.54" cy="485.03" r="1.80" style="stroke-width: 0.75; stroke: #FF0000; fill: #FF0000;" onclick="top.colorCounties(251)"/>
    <circle cx="600.60" cy="454.12" r="1.80" style="stroke-width: 0.75; stroke: #FF0000; fill: #FF0000;" onclick="top.colorCounties(252)"/>
    <circle cx="602.65" cy="338.21" r="1.80" style="stroke-width: 0.75; stroke: #FF0000; fill: #FF0000;" onclick="top.colorCounties(253)"/>
    <circle cx="604.71" cy="419.90" r="1.80" style="stroke-width: 0.75; stroke: #FF0000; fill: #FF0000;" onclick="top.colorCounties(254)"/>
    <circle cx="606.77" cy="395.61" r="1.80" style="stroke-width: 0.75; stroke: #FF0000; fill: #FF0000;" onclick="top.colorCounties(255)"/>
    <circle cx="608.82" cy="415.48" r="1.80" style="stroke-width: 0.75; stroke: #FF0000; fill: #FF0000;" onclick="top.colorCounties(256)"/>
    <circle cx="610.88" cy="398.92" r="1.80" style="stroke-width: 0.75; stroke: #FF0000; fill: #FF0000;" onclick="top.colorCounties(257)"/>
    <circle cx="612.94" cy="485.03" r="1.80" style="stroke-width: 0.75; stroke: #FF0000; fill: #FF0000;" onclick="top.colorCounties(258)"/>
    <circle cx="614.99" cy="395.61" r="1.80" style="stroke-width: 0.75; stroke: #FF0000; fill: #FF0000;" onclick="top.colorCounties(259)"/>
    <circle cx="617.05" cy="284.11" r="1.80" style="stroke-width: 0.75; stroke: #FF0000; fill: #FF0000;" onclick="top.colorCounties(260)"/>
    <circle cx="619.10" cy="383.47" r="1.80" style="stroke-width: 0.75; stroke: #FF0000; fill: #FF0000;" onclick="top.colorCounties(261)"/>
    <circle cx="621.16" cy="425.42" r="1.80" style="stroke-width: 0.75; stroke: #FF0000; fill: #FF0000;" onclick="top.colorCounties(262)"/>
    <circle cx="623.22" cy="375.74" r="1.80" style="stroke-width: 0.75; stroke: #FF0000; fill: #FF0000;" onclick="top.colorCounties(263)"/>
    <circle cx="625.27" cy="435.35" r="1.80" style="stroke-width: 0.75; stroke: #FF0000; fill: #FF0000;" onclick="top.colorCounties(264)"/>
    <circle cx="627.33" cy="485.03" r="1.80" style="stroke-width: 0.75; stroke: #FF0000; fill: #FF0000;" onclick="top.colorCounties(265)"/>
    <circle cx="629.39" cy="384.57" r="1.80" style="stroke-width: 0.75; stroke: #FF0000; fill: #FF0000;" onclick="top.colorCounties(266)"/>
    <circle cx="631.44" cy="161.57" r="1.80" style="stroke-width: 0.75; stroke: #FF0000; fill: #FF0000;" onclick="top.colorCounties(267)"/>
    <circle cx="633.50" cy="400.03" r="1.80" style="stroke-width: 0.75; stroke: #FF0000; fill: #FF0000;" onclick="top.colorCounties(268)"/>
    <circle cx="635.55" cy="401.13" r="1.80" style="stroke-width: 0.75; stroke: #FF0000; fill: #FF0000;" onclick="top.colorCounties(269)"/>
    <circle cx="637.61" cy="485.03" r="1.80" style="stroke-width: 0.75; stroke: #FF0000; fill: #FF0000;" onclick="top.colorCounties(270)"/>
    <circle cx="639.67" cy="341.52" r="1.80" style="stroke-width: 0.75; stroke: #FF0000; fill: #FF0000;" onclick="top.colorCounties(271)"/>
    <circle cx="641.72" cy="485.03" r="1.80" style="stroke-width: 0.75; stroke: #FF0000; fill: #FF0000;" onclick="top.colorCounties(272)"/>
    <circle cx="643.78" cy="327.17" r="1.80" style="stroke-width: 0.75; stroke: #FF0000; fill: #FF0000;" onclick="top.colorCounties(273)"/>
    <circle cx="645.84" cy="347.04" r="1.80" style="stroke-width: 0.75; stroke: #FF0000; fill: #FF0000;" onclick="top.colorCounties(274)"/>
    <circle cx="647.89" cy="438.66" r="1.80" style="stroke-width: 0.75; stroke: #FF0000; fill: #FF0000;" onclick="top.colorCounties(275)"/>
    <circle cx="649.95" cy="341.52" r="1.80" style="stroke-width: 0.75; stroke: #FF0000; fill: #FF0000;" onclick="top.colorCounties(276)"/>
    <circle cx="652.01" cy="322.75" r="1.80" style="stroke-width: 0.75; stroke: #FF0000; fill: #FF0000;" onclick="top.colorCounties(277)"/>
    <circle cx="654.06" cy="121.83" r="1.80" style="stroke-width: 0.75; stroke: #FF0000; fill: #FF0000;" onclick="top.colorCounties(278)"/>
    <circle cx="656.12" cy="274.18" r="1.80" style="stroke-width: 0.75; stroke: #FF0000; fill: #FF0000;" onclick="top.colorCounties(279)"/>
    <circle cx="658.17" cy="98.65" r="1.80" style="stroke-width: 0.75; stroke: #FF0000; fill: #FF0000;" onclick="top.colorCounties(280)"/>
    <circle cx="660.23" cy="299.57" r="1.80" style="stroke-width: 0.75; stroke: #FF0000; fill: #FF0000;" onclick="top.colorCounties(281)"/>
    <circle cx="662.29" cy="270.86" r="1.80" style="stroke-width: 0.75; stroke: #FF0000; fill: #FF0000;" onclick="top.colorCounties(282)"/>
    <circle cx="664.34" cy="75.47" r="1.80" style="stroke-width: 0.75; stroke: #FF0000; fill: #FF0000;" onclick="top.colorCounties(283)"/>
    <circle cx="666.40" cy="136.18" r="1.80" style="stroke-width: 0.75; stroke: #FF0000; fill: #FF0000;" onclick="top.colorCounties(284)"/>
  </g>
</svg>
