<?xml version="1.0" encoding="UTF-8"?>
<svg xmlns="http://www.w3.org/2000/svg" xmlns:xlink="http://www.w3.org/1999/xlink" class="svglite" width="720.00pt" height="576.00pt" viewBox="0 0 720.00 576.00">
  <defs>
    <style type="text/css"><![CDATA[
    .svglite line, .svglite polyline, .svglite polygon, .svglite path, .svglite rect, .svglite circle {
      fill: none;
      stroke: #000000;
      stroke-linecap: round;
      stroke-linejoin: round;
      stroke-miterlimit: 10.00;
    }
    .svglite text {
      white-space: pre;
    }
  ]]></style>
  </defs>
  <rect width="100%" height="100%" style="stroke: none; fill: #FFFFFF;"/>
  <defs>
    <clipPath id="cpMC4wMHw3MjAuMDB8MC4wMHw1NzYuMDA=">
      <rect x="0.00" y="0.00" width="720.00" height="576.00"/>
    </clipPath>
  </defs>
  <g clip-path="url(#cpMC4wMHw3MjAuMDB8MC4wMHw1NzYuMDA=)">
</g>
  <defs>
    <clipPath id="cpNTkuMDR8Njg5Ljc2fDU5LjA0fDUwMi41Ng==">
      <rect x="59.04" y="59.04" width="630.72" height="443.52"/>
    </clipPath>
  </defs>
  <g clip-path="url(#cpNTkuMDR8Njg5Ljc2fDU5LjA0fDUwMi41Ng==)">
    <polyline points="82.40,475.20 84.46,475.20 86.51,475.20 88.57,475.20 90.63,475.20 92.68,475.20 94.74,475.20 96.79,475.20 98.85,475.20 100.91,475.00 102.96,475.20 105.02,474.81 107.08,474.22 109.13,475.20 111.19,475.20 113.25,475.00 115.30,474.42 117.36,475.00 119.41,474.61 121.47,473.64 123.53,474.03 125.58,473.25 127.64,473.25 129.70,473.44 131.75,473.05 133.81,472.85 135.86,473.25 137.92,472.27 139.98,472.66 142.03,472.27 144.09,472.27 146.15,473.25 148.20,471.88 150.26,473.83 152.32,474.03 154.37,472.85 156.43,473.44 158.48,473.05 160.54,472.46 162.60,473.64 164.65,472.85 166.71,474.61 168.77,472.66 170.82,468.17 172.88,470.12 174.94,469.53 176.99,474.22 179.05,469.53 181.10,472.85 183.16,473.64 185.22,469.73 187.27,473.25 189.33,472.07 191.39,472.27 193.44,473.64 195.50,472.85 197.55,472.07 199.61,474.42 201.67,474.81 203.72,473.05 205.78,474.61 207.84,472.46 209.89,474.61 211.95,473.25 214.01,474.42 216.06,474.42 218.12,475.00 220.17,474.81 222.23,472.07 224.29,473.64 226.34,473.83 228.40,473.44 230.46,473.64 232.51,473.44 234.57,474.03 236.63,472.27 238.68,473.05 240.74,471.49 242.79,473.25 244.85,473.25 246.91,473.83 248.96,471.88 251.02,471.49 253.08,475.20 255.13,473.83 257.19,475.00 259.25,473.05 261.30,462.90 263.36,473.64 265.41,472.07 267.47,475.20 269.53,469.34 271.58,471.29 273.64,460.75 275.70,456.06 277.75,486.13 279.81,470.12 281.86,461.92 283.92,466.80 285.98,458.99 288.03,462.70 290.09,465.43 292.15,459.77 294.20,464.26 296.26,464.65 298.32,454.69 300.37,462.70 302.43,468.75 304.48,448.05 306.54,467.58 308.60,475.39 310.65,426.18 312.71,459.19 314.77,447.66 316.82,443.95 318.88,439.66 320.94,447.47 322.99,446.49 325.05,463.09 327.10,475.20 329.16,436.53 331.22,364.87 333.27,463.87 335.33,400.21 337.39,440.83 339.44,475.20 341.50,410.17 343.55,434.58 345.61,360.96 347.67,432.82 349.72,426.77 351.78,433.41 353.84,475.20 355.89,428.53 357.95,383.42 360.01,430.67 362.06,433.80 364.12,425.99 366.17,448.05 368.23,454.50 370.29,437.51 372.34,435.56 374.40,381.86 376.46,319.76 378.51,430.09 380.57,416.61 382.63,462.70 384.68,444.54 386.74,411.15 388.79,426.77 390.85,419.35 392.91,449.23 394.96,447.66 397.02,459.97 399.08,427.16 401.13,449.81 403.19,461.53 405.25,459.58 407.30,463.29 409.36,444.93 411.41,457.82 413.47,442.59 415.53,402.16 417.58,292.22 419.64,444.73 421.70,426.38 423.75,401.97 425.81,421.69 427.86,438.49 429.92,441.02 431.98,468.36 434.03,464.26 436.09,417.01 438.15,455.47 440.20,453.72 442.26,440.05 444.32,462.90 446.37,390.45 448.43,430.28 450.48,465.43 452.54,447.08 454.60,450.79 456.65,401.19 458.71,447.08 460.77,442.00 462.82,454.11 464.88,420.72 466.94,448.44 468.99,454.30 471.05,451.96 473.10,475.00 475.16,476.37 477.22,475.59 479.27,426.57 481.33,464.46 483.39,442.98 485.44,457.82 487.50,425.21 489.55,436.14 491.61,463.68 493.67,459.97 495.72,457.23 497.78,475.20 499.84,475.20 501.89,465.82 503.95,440.44 506.01,467.19 508.06,462.31 510.12,461.92 512.17,475.20 514.23,475.20 516.29,465.24 518.34,453.33 520.40,464.65 522.46,466.22 524.51,469.73 526.57,475.20 528.63,475.20 530.68,458.79 532.74,443.56 534.79,465.82 536.85,465.63 538.91,475.20 540.96,475.20 543.02,475.20 545.08,475.20 547.13,475.20 549.19,475.20 551.25,414.66 553.30,465.63 555.36,475.20 557.41,475.20 559.47,473.44 561.53,428.33 563.58,467.97 565.64,464.46 567.70,455.28 569.75,475.20 571.81,475.20 573.86,455.87 575.92,440.63 577.98,459.19 580.03,474.03 582.09,453.33 584.15,475.20 586.20,475.20 588.26,463.29 590.32,436.53 592.37,458.60 594.43,454.50 596.48,459.77 598.54,475.20 600.60,475.20 602.65,454.69 604.71,425.79 606.77,475.20 608.82,430.09 610.88,417.98 612.94,475.20 614.99,475.20 617.05,432.82 619.10,389.86 621.16,443.17 623.22,452.74 625.27,436.34 627.33,475.20 629.39,475.20 631.44,444.93 633.50,390.64 635.55,389.67 637.61,475.20 639.67,462.90 641.72,474.61 643.78,475.00 645.84,440.44 647.89,447.08 649.95,334.60 652.01,416.81 654.06,399.82 656.12,409.39 658.17,416.81 660.23,458.99 662.29,408.02 664.34,75.47 666.40,428.92 " style="stroke-width: 0.75;"/>
  </g>
  <g clip-path="url(#cpMC4wMHw3MjAuMDB8MC4wMHw1NzYuMDA=)">
    <line x1="146.15" y1="502.56" x2="522.46" y2="502.56" style="stroke-width: 0.75;"/>
    <line x1="146.15" y1="502.56" x2="146.15" y2="509.76" style="stroke-width: 0.75;"/>
    <line x1="333.27" y1="502.56" x2="333.27" y2="509.76" style="stroke-width: 0.75;"/>
    <line x1="522.46" y1="502.56" x2="522.46" y2="509.76" style="stroke-width: 0.75;"/>
    <text x="146.15" y="528.48" text-anchor="middle" style="font-size: 12.00px; font-family: &quot;Arial&quot;;" textLength="18.68px" lengthAdjust="spacingAndGlyphs">Apr</text>
    <text x="333.27" y="528.48" text-anchor="middle" style="font-size: 12.00px; font-family: &quot;Arial&quot;;" textLength="15.34px" lengthAdjust="spacingAndGlyphs">Jul</text>
    <text x="522.46" y="528.48" text-anchor="middle" style="font-size: 12.00px; font-family: &quot;Arial&quot;;" textLength="18.66px" lengthAdjust="spacingAndGlyphs">Oct</text>
    <line x1="59.04" y1="475.20" x2="59.04" y2="84.64" style="stroke-width: 0.75;"/>
    <line x1="59.04" y1="475.20" x2="51.84" y2="475.20" style="stroke-width: 0.75;"/>
    <line x1="59.04" y1="377.56" x2="51.84" y2="377.56" style="stroke-width: 0.75;"/>
    <line x1="59.04" y1="279.92" x2="51.84" y2="279.92" style="stroke-width: 0.75;"/>
    <line x1="59.04" y1="182.28" x2="51.84" y2="182.28" style="stroke-width: 0.75;"/>
    <line x1="59.04" y1="84.64" x2="51.84" y2="84.64" style="stroke-width: 0.75;"/>
    <text transform="translate(41.76,475.20) rotate(-90)" text-anchor="middle" style="font-size: 12.00px; font-family: &quot;Arial&quot;;" textLength="6.67px" lengthAdjust="spacingAndGlyphs">0</text>
    <text transform="translate(41.76,377.56) rotate(-90)" text-anchor="middle" style="font-size: 12.00px; font-family: &quot;Arial&quot;;" textLength="20.02px" lengthAdjust="spacingAndGlyphs">500</text>
    <text transform="translate(41.76,279.92) rotate(-90)" text-anchor="middle" style="font-size: 12.00px; font-family: &quot;Arial&quot;;" textLength="26.70px" lengthAdjust="spacingAndGlyphs">1000</text>
    <text transform="translate(41.76,182.28) rotate(-90)" text-anchor="middle" style="font-size: 12.00px; font-family: &quot;Arial&quot;;" textLength="26.70px" lengthAdjust="spacingAndGlyphs">1500</text>
    <text transform="translate(41.76,84.64) rotate(-90)" text-anchor="middle" style="font-size: 12.00px; font-family: &quot;Arial&quot;;" textLength="26.70px" lengthAdjust="spacingAndGlyphs">2000</text>
    <polygon points="59.04,502.56 689.76,502.56 689.76,59.04 59.04,59.04 " style="stroke-width: 0.75;"/>
    <text x="374.40" y="34.70" text-anchor="middle" style="font-size: 14.40px; font-weight: bold; font-family: &quot;Arial&quot;;" textLength="85.56px" lengthAdjust="spacingAndGlyphs">San Joaquin</text>
    <text x="374.40" y="557.28" text-anchor="middle" style="font-size: 12.00px; font-family: &quot;Arial&quot;;" textLength="25.35px" lengthAdjust="spacingAndGlyphs">Date</text>
    <text transform="translate(12.96,280.80) rotate(-90)" text-anchor="middle" style="font-size: 12.00px; font-family: &quot;Arial&quot;;" textLength="93.37px" lengthAdjust="spacingAndGlyphs">Number of Cases</text>
  </g>
  <g clip-path="url(#cpNTkuMDR8Njg5Ljc2fDU5LjA0fDUwMi41Ng==)">
    <circle cx="82.40" cy="475.20" r="1.80" style="stroke-width: 0.75; stroke: #FF0000; fill: #FF0000;" onclick="top.colorCounties(0)"/>
    <circle cx="84.46" cy="475.20" r="1.80" style="stroke-width: 0.75; stroke: #FF0000; fill: #FF0000;" onclick="top.colorCounties(1)"/>
    <circle cx="86.51" cy="475.20" r="1.80" style="stroke-width: 0.75; stroke: #FF0000; fill: #FF0000;" onclick="top.colorCounties(2)"/>
    <circle cx="88.57" cy="475.20" r="1.80" style="stroke-width: 0.75; stroke: #FF0000; fill: #FF0000;" onclick="top.colorCounties(3)"/>
    <circle cx="90.63" cy="475.20" r="1.80" style="stroke-width: 0.75; stroke: #FF0000; fill: #FF0000;" onclick="top.colorCounties(4)"/>
    <circle cx="92.68" cy="475.20" r="1.80" style="stroke-width: 0.75; stroke: #FF0000; fill: #FF0000;" onclick="top.colorCounties(5)"/>
    <circle cx="94.74" cy="475.20" r="1.80" style="stroke-width: 0.75; stroke: #FF0000; fill: #FF0000;" onclick="top.colorCounties(6)"/>
    <circle cx="96.79" cy="475.20" r="1.80" style="stroke-width: 0.75; stroke: #FF0000; fill: #FF0000;" onclick="top.colorCounties(7)"/>
    <circle cx="98.85" cy="475.20" r="1.80" style="stroke-width: 0.75; stroke: #FF0000; fill: #FF0000;" onclick="top.colorCounties(8)"/>
    <circle cx="100.91" cy="475.00" r="1.80" style="stroke-width: 0.75; stroke: #FF0000; fill: #FF0000;" onclick="top.colorCounties(9)"/>
    <circle cx="102.96" cy="475.20" r="1.80" style="stroke-width: 0.75; stroke: #FF0000; fill: #FF0000;" onclick="top.colorCounties(10)"/>
    <circle cx="105.02" cy="474.81" r="1.80" style="stroke-width: 0.75; stroke: #FF0000; fill: #FF0000;" onclick="top.colorCounties(11)"/>
    <circle cx="107.08" cy="474.22" r="1.80" style="stroke-width: 0.75; stroke: #FF0000; fill: #FF0000;" onclick="top.colorCounties(12)"/>
    <circle cx="109.13" cy="475.20" r="1.80" style="stroke-width: 0.75; stroke: #FF0000; fill: #FF0000;" onclick="top.colorCounties(13)"/>
    <circle cx="111.19" cy="475.20" r="1.80" style="stroke-width: 0.75; stroke: #FF0000; fill: #FF0000;" onclick="top.colorCounties(14)"/>
    <circle cx="113.25" cy="475.00" r="1.80" style="stroke-width: 0.75; stroke: #FF0000; fill: #FF0000;" onclick="top.colorCounties(15)"/>
    <circle cx="115.30" cy="474.42" r="1.80" style="stroke-width: 0.75; stroke: #FF0000; fill: #FF0000;" onclick="top.colorCounties(16)"/>
    <circle cx="117.36" cy="475.00" r="1.80" style="stroke-width: 0.75; stroke: #FF0000; fill: #FF0000;" onclick="top.colorCounties(17)"/>
    <circle cx="119.41" cy="474.61" r="1.80" style="stroke-width: 0.75; stroke: #FF0000; fill: #FF0000;" onclick="top.colorCounties(18)"/>
    <circle cx="121.47" cy="473.64" r="1.80" style="stroke-width: 0.75; stroke: #FF0000; fill: #FF0000;" onclick="top.colorCounties(19)"/>
    <circle cx="123.53" cy="474.03" r="1.80" style="stroke-width: 0.75; stroke: #FF0000; fill: #FF0000;" onclick="top.colorCounties(20)"/>
    <circle cx="125.58" cy="473.25" r="1.80" style="stroke-width: 0.75; stroke: #FF0000; fill: #FF0000;" onclick="top.colorCounties(21)"/>
    <circle cx="127.64" cy="473.25" r="1.80" style="stroke-width: 0.75; stroke: #FF0000; fill: #FF0000;" onclick="top.colorCounties(22)"/>
    <circle cx="129.70" cy="473.44" r="1.80" style="stroke-width: 0.75; stroke: #FF0000; fill: #FF0000;" onclick="top.colorCounties(23)"/>
    <circle cx="131.75" cy="473.05" r="1.80" style="stroke-width: 0.75; stroke: #FF0000; fill: #FF0000;" onclick="top.colorCounties(24)"/>
    <circle cx="133.81" cy="472.85" r="1.80" style="stroke-width: 0.75; stroke: #FF0000; fill: #FF0000;" onclick="top.colorCounties(25)"/>
    <circle cx="135.86" cy="473.25" r="1.80" style="stroke-width: 0.75; stroke: #FF0000; fill: #FF0000;" onclick="top.colorCounties(26)"/>
    <circle cx="137.92" cy="472.27" r="1.80" style="stroke-width: 0.75; stroke: #FF0000; fill: #FF0000;" onclick="top.colorCounties(27)"/>
    <circle cx="139.98" cy="472.66" r="1.80" style="stroke-width: 0.75; stroke: #FF0000; fill: #FF0000;" onclick="top.colorCounties(28)"/>
    <circle cx="142.03" cy="472.27" r="1.80" style="stroke-width: 0.75; stroke: #FF0000; fill: #FF0000;" onclick="top.colorCounties(29)"/>
    <circle cx="144.09" cy="472.27" r="1.80" style="stroke-width: 0.75; stroke: #FF0000; fill: #FF0000;" onclick="top.colorCounties(30)"/>
    <circle cx="146.15" cy="473.25" r="1.80" style="stroke-width: 0.75; stroke: #FF0000; fill: #FF0000;" onclick="top.colorCounties(31)"/>
    <circle cx="148.20" cy="471.88" r="1.80" style="stroke-width: 0.75; stroke: #FF0000; fill: #FF0000;" onclick="top.colorCounties(32)"/>
    <circle cx="150.26" cy="473.83" r="1.80" style="stroke-width: 0.75; stroke: #FF0000; fill: #FF0000;" onclick="top.colorCounties(33)"/>
    <circle cx="152.32" cy="474.03" r="1.80" style="stroke-width: 0.75; stroke: #FF0000; fill: #FF0000;" onclick="top.colorCounties(34)"/>
    <circle cx="154.37" cy="472.85" r="1.80" style="stroke-width: 0.75; stroke: #FF0000; fill: #FF0000;" onclick="top.colorCounties(35)"/>
    <circle cx="156.43" cy="473.44" r="1.80" style="stroke-width: 0.75; stroke: #FF0000; fill: #FF0000;" onclick="top.colorCounties(36)"/>
    <circle cx="158.48" cy="473.05" r="1.80" style="stroke-width: 0.75; stroke: #FF0000; fill: #FF0000;" onclick="top.colorCounties(37)"/>
    <circle cx="160.54" cy="472.46" r="1.80" style="stroke-width: 0.75; stroke: #FF0000; fill: #FF0000;" onclick="top.colorCounties(38)"/>
    <circle cx="162.60" cy="473.64" r="1.80" style="stroke-width: 0.75; stroke: #FF0000; fill: #FF0000;" onclick="top.colorCounties(39)"/>
    <circle cx="164.65" cy="472.85" r="1.80" style="stroke-width: 0.75; stroke: #FF0000; fill: #FF0000;" onclick="top.colorCounties(40)"/>
    <circle cx="166.71" cy="474.61" r="1.80" style="stroke-width: 0.75; stroke: #FF0000; fill: #FF0000;" onclick="top.colorCounties(41)"/>
    <circle cx="168.77" cy="472.66" r="1.80" style="stroke-width: 0.75; stroke: #FF0000; fill: #FF0000;" onclick="top.colorCounties(42)"/>
    <circle cx="170.82" cy="468.17" r="1.80" style="stroke-width: 0.75; stroke: #FF0000; fill: #FF0000;" onclick="top.colorCounties(43)"/>
    <circle cx="172.88" cy="470.12" r="1.80" style="stroke-width: 0.75; stroke: #FF0000; fill: #FF0000;" onclick="top.colorCounties(44)"/>
    <circle cx="174.94" cy="469.53" r="1.80" style="stroke-width: 0.75; stroke: #FF0000; fill: #FF0000;" onclick="top.colorCounties(45)"/>
    <circle cx="176.99" cy="474.22" r="1.80" style="stroke-width: 0.75; stroke: #FF0000; fill: #FF0000;" onclick="top.colorCounties(46)"/>
    <circle cx="179.05" cy="469.53" r="1.80" style="stroke-width: 0.75; stroke: #FF0000; fill: #FF0000;" onclick="top.colorCounties(47)"/>
    <circle cx="181.10" cy="472.85" r="1.80" style="stroke-width: 0.75; stroke: #FF0000; fill: #FF0000;" onclick="top.colorCounties(48)"/>
    <circle cx="183.16" cy="473.64" r="1.80" style="stroke-width: 0.75; stroke: #FF0000; fill: #FF0000;" onclick="top.colorCounties(49)"/>
    <circle cx="185.22" cy="469.73" r="1.80" style="stroke-width: 0.75; stroke: #FF0000; fill: #FF0000;" onclick="top.colorCounties(50)"/>
    <circle cx="187.27" cy="473.25" r="1.80" style="stroke-width: 0.75; stroke: #FF0000; fill: #FF0000;" onclick="top.colorCounties(51)"/>
    <circle cx="189.33" cy="472.07" r="1.80" style="stroke-width: 0.75; stroke: #FF0000; fill: #FF0000;" onclick="top.colorCounties(52)"/>
    <circle cx="191.39" cy="472.27" r="1.80" style="stroke-width: 0.75; stroke: #FF0000; fill: #FF0000;" onclick="top.colorCounties(53)"/>
    <circle cx="193.44" cy="473.64" r="1.80" style="stroke-width: 0.75; stroke: #FF0000; fill: #FF0000;" onclick="top.colorCounties(54)"/>
    <circle cx="195.50" cy="472.85" r="1.80" style="stroke-width: 0.75; stroke: #FF0000; fill: #FF0000;" onclick="top.colorCounties(55)"/>
    <circle cx="197.55" cy="472.07" r="1.80" style="stroke-width: 0.75; stroke: #FF0000; fill: #FF0000;" onclick="top.colorCounties(56)"/>
    <circle cx="199.61" cy="474.42" r="1.80" style="stroke-width: 0.75; stroke: #FF0000; fill: #FF0000;" onclick="top.colorCounties(57)"/>
    <circle cx="201.67" cy="474.81" r="1.80" style="stroke-width: 0.75; stroke: #FF0000; fill: #FF0000;" onclick="top.colorCounties(58)"/>
    <circle cx="203.72" cy="473.05" r="1.80" style="stroke-width: 0.75; stroke: #FF0000; fill: #FF0000;" onclick="top.colorCounties(59)"/>
    <circle cx="205.78" cy="474.61" r="1.80" style="stroke-width: 0.75; stroke: #FF0000; fill: #FF0000;" onclick="top.colorCounties(60)"/>
    <circle cx="207.84" cy="472.46" r="1.80" style="stroke-width: 0.75; stroke: #FF0000; fill: #FF0000;" onclick="top.colorCounties(61)"/>
    <circle cx="209.89" cy="474.61" r="1.80" style="stroke-width: 0.75; stroke: #FF0000; fill: #FF0000;" onclick="top.colorCounties(62)"/>
    <circle cx="211.95" cy="473.25" r="1.80" style="stroke-width: 0.75; stroke: #FF0000; fill: #FF0000;" onclick="top.colorCounties(63)"/>
    <circle cx="214.01" cy="474.42" r="1.80" style="stroke-width: 0.75; stroke: #FF0000; fill: #FF0000;" onclick="top.colorCounties(64)"/>
    <circle cx="216.06" cy="474.42" r="1.80" style="stroke-width: 0.75; stroke: #FF0000; fill: #FF0000;" onclick="top.colorCounties(65)"/>
    <circle cx="218.12" cy="475.00" r="1.80" style="stroke-width: 0.75; stroke: #FF0000; fill: #FF0000;" onclick="top.colorCounties(66)"/>
    <circle cx="220.17" cy="474.81" r="1.80" style="stroke-width: 0.75; stroke: #FF0000; fill: #FF0000;" onclick="top.colorCounties(67)"/>
    <circle cx="222.23" cy="472.07" r="1.80" style="stroke-width: 0.75; stroke: #FF0000; fill: #FF0000;" onclick="top.colorCounties(68)"/>
    <circle cx="224.29" cy="473.64" r="1.80" style="stroke-width: 0.75; stroke: #FF0000; fill: #FF0000;" onclick="top.colorCounties(69)"/>
    <circle cx="226.34" cy="473.83" r="1.80" style="stroke-width: 0.75; stroke: #FF0000; fill: #FF0000;" onclick="top.colorCounties(70)"/>
    <circle cx="228.40" cy="473.44" r="1.80" style="stroke-width: 0.75; stroke: #FF0000; fill: #FF0000;" onclick="top.colorCounties(71)"/>
    <circle cx="230.46" cy="473.64" r="1.80" style="stroke-width: 0.75; stroke: #FF0000; fill: #FF0000;" onclick="top.colorCounties(72)"/>
    <circle cx="232.51" cy="473.44" r="1.80" style="stroke-width: 0.75; stroke: #FF0000; fill: #FF0000;" onclick="top.colorCounties(73)"/>
    <circle cx="234.57" cy="474.03" r="1.80" style="stroke-width: 0.75; stroke: #FF0000; fill: #FF0000;" onclick="top.colorCounties(74)"/>
    <circle cx="236.63" cy="472.27" r="1.80" style="stroke-width: 0.75; stroke: #FF0000; fill: #FF0000;" onclick="top.colorCounties(75)"/>
    <circle cx="238.68" cy="473.05" r="1.80" style="stroke-width: 0.75; stroke: #FF0000; fill: #FF0000;" onclick="top.colorCounties(76)"/>
    <circle cx="240.74" cy="471.49" r="1.80" style="stroke-width: 0.75; stroke: #FF0000; fill: #FF0000;" onclick="top.colorCounties(77)"/>
    <circle cx="242.79" cy="473.25" r="1.80" style="stroke-width: 0.75; stroke: #FF0000; fill: #FF0000;" onclick="top.colorCounties(78)"/>
    <circle cx="244.85" cy="473.25" r="1.80" style="stroke-width: 0.75; stroke: #FF0000; fill: #FF0000;" onclick="top.colorCounties(79)"/>
    <circle cx="246.91" cy="473.83" r="1.80" style="stroke-width: 0.75; stroke: #FF0000; fill: #FF0000;" onclick="top.colorCounties(80)"/>
    <circle cx="248.96" cy="471.88" r="1.80" style="stroke-width: 0.75; stroke: #FF0000; fill: #FF0000;" onclick="top.colorCounties(81)"/>
    <circle cx="251.02" cy="471.49" r="1.80" style="stroke-width: 0.75; stroke: #FF0000; fill: #FF0000;" onclick="top.colorCounties(82)"/>
    <circle cx="253.08" cy="475.20" r="1.80" style="stroke-width: 0.75; stroke: #FF0000; fill: #FF0000;" onclick="top.colorCounties(83)"/>
    <circle cx="255.13" cy="473.83" r="1.80" style="stroke-width: 0.75; stroke: #FF0000; fill: #FF0000;" onclick="top.colorCounties(84)"/>
    <circle cx="257.19" cy="475.00" r="1.80" style="stroke-width: 0.75; stroke: #FF0000; fill: #FF0000;" onclick="top.colorCounties(85)"/>
    <circle cx="259.25" cy="473.05" r="1.80" style="stroke-width: 0.75; stroke: #FF0000; fill: #FF0000;" onclick="top.colorCounties(86)"/>
    <circle cx="261.30" cy="462.90" r="1.80" style="stroke-width: 0.75; stroke: #FF0000; fill: #FF0000;" onclick="top.colorCounties(87)"/>
    <circle cx="263.36" cy="473.64" r="1.80" style="stroke-width: 0.75; stroke: #FF0000; fill: #FF0000;" onclick="top.colorCounties(88)"/>
    <circle cx="265.41" cy="472.07" r="1.80" style="stroke-width: 0.75; stroke: #FF0000; fill: #FF0000;" onclick="top.colorCounties(89)"/>
    <circle cx="267.47" cy="475.20" r="1.80" style="stroke-width: 0.75; stroke: #FF0000; fill: #FF0000;" onclick="top.colorCounties(90)"/>
    <circle cx="269.53" cy="469.34" r="1.80" style="stroke-width: 0.75; stroke: #FF0000; fill: #FF0000;" onclick="top.colorCounties(91)"/>
    <circle cx="271.58" cy="471.29" r="1.80" style="stroke-width: 0.75; stroke: #FF0000; fill: #FF0000;" onclick="top.colorCounties(92)"/>
    <circle cx="273.64" cy="460.75" r="1.80" style="stroke-width: 0.75; stroke: #FF0000; fill: #FF0000;" onclick="top.colorCounties(93)"/>
    <circle cx="275.70" cy="456.06" r="1.80" style="stroke-width: 0.75; stroke: #FF0000; fill: #FF0000;" onclick="top.colorCounties(94)"/>
    <circle cx="277.75" cy="486.13" r="1.80" style="stroke-width: 0.75; stroke: #FF0000; fill: #FF0000;" onclick="top.colorCounties(95)"/>
    <circle cx="279.81" cy="470.12" r="1.80" style="stroke-width: 0.75; stroke: #FF0000; fill: #FF0000;" onclick="top.colorCounties(96)"/>
    <circle cx="281.86" cy="461.92" r="1.80" style="stroke-width: 0.75; stroke: #FF0000; fill: #FF0000;" onclick="top.colorCounties(97)"/>
    <circle cx="283.92" cy="466.80" r="1.80" style="stroke-width: 0.75; stroke: #FF0000; fill: #FF0000;" onclick="top.colorCounties(98)"/>
    <circle cx="285.98" cy="458.99" r="1.80" style="stroke-width: 0.75; stroke: #FF0000; fill: #FF0000;" onclick="top.colorCounties(99)"/>
    <circle cx="288.03" cy="462.70" r="1.80" style="stroke-width: 0.75; stroke: #FF0000; fill: #FF0000;" onclick="top.colorCounties(100)"/>
    <circle cx="290.09" cy="465.43" r="1.80" style="stroke-width: 0.75; stroke: #FF0000; fill: #FF0000;" onclick="top.colorCounties(101)"/>
    <circle cx="292.15" cy="459.77" r="1.80" style="stroke-width: 0.75; stroke: #FF0000; fill: #FF0000;" onclick="top.colorCounties(102)"/>
    <circle cx="294.20" cy="464.26" r="1.80" style="stroke-width: 0.75; stroke: #FF0000; fill: #FF0000;" onclick="top.colorCounties(103)"/>
    <circle cx="296.26" cy="464.65" r="1.80" style="stroke-width: 0.75; stroke: #FF0000; fill: #FF0000;" onclick="top.colorCounties(104)"/>
    <circle cx="298.32" cy="454.69" r="1.80" style="stroke-width: 0.75; stroke: #FF0000; fill: #FF0000;" onclick="top.colorCounties(105)"/>
    <circle cx="300.37" cy="462.70" r="1.80" style="stroke-width: 0.75; stroke: #FF0000; fill: #FF0000;" onclick="top.colorCounties(106)"/>
    <circle cx="302.43" cy="468.75" r="1.80" style="stroke-width: 0.75; stroke: #FF0000; fill: #FF0000;" onclick="top.colorCounties(107)"/>
    <circle cx="304.48" cy="448.05" r="1.80" style="stroke-width: 0.75; stroke: #FF0000; fill: #FF0000;" onclick="top.colorCounties(108)"/>
    <circle cx="306.54" cy="467.58" r="1.80" style="stroke-width: 0.75; stroke: #FF0000; fill: #FF0000;" onclick="top.colorCounties(109)"/>
    <circle cx="308.60" cy="475.39" r="1.80" style="stroke-width: 0.75; stroke: #FF0000; fill: #FF0000;" onclick="top.colorCounties(110)"/>
    <circle cx="310.65" cy="426.18" r="1.80" style="stroke-width: 0.75; stroke: #FF0000; fill: #FF0000;" onclick="top.colorCounties(111)"/>
    <circle cx="312.71" cy="459.19" r="1.80" style="stroke-width: 0.75; stroke: #FF0000; fill: #FF0000;" onclick="top.colorCounties(112)"/>
    <circle cx="314.77" cy="447.66" r="1.80" style="stroke-width: 0.75; stroke: #FF0000; fill: #FF0000;" onclick="top.colorCounties(113)"/>
    <circle cx="316.82" cy="443.95" r="1.80" style="stroke-width: 0.75; stroke: #FF0000; fill: #FF0000;" onclick="top.colorCounties(114)"/>
    <circle cx="318.88" cy="439.66" r="1.80" style="stroke-width: 0.75; stroke: #FF0000; fill: #FF0000;" onclick="top.colorCounties(115)"/>
    <circle cx="320.94" cy="447.47" r="1.80" style="stroke-width: 0.75; stroke: #FF0000; fill: #FF0000;" onclick="top.colorCounties(116)"/>
    <circle cx="322.99" cy="446.49" r="1.80" style="stroke-width: 0.75; stroke: #FF0000; fill: #FF0000;" onclick="top.colorCounties(117)"/>
    <circle cx="325.05" cy="463.09" r="1.80" style="stroke-width: 0.75; stroke: #FF0000; fill: #FF0000;" onclick="top.colorCounties(118)"/>
    <circle cx="327.10" cy="475.20" r="1.80" style="stroke-width: 0.75; stroke: #FF0000; fill: #FF0000;" onclick="top.colorCounties(119)"/>
    <circle cx="329.16" cy="436.53" r="1.80" style="stroke-width: 0.75; stroke: #FF0000; fill: #FF0000;" onclick="top.colorCounties(120)"/>
    <circle cx="331.22" cy="364.87" r="1.80" style="stroke-width: 0.75; stroke: #FF0000; fill: #FF0000;" onclick="top.colorCounties(121)"/>
    <circle cx="333.27" cy="463.87" r="1.80" style="stroke-width: 0.75; stroke: #FF0000; fill: #FF0000;" onclick="top.colorCounties(122)"/>
    <circle cx="335.33" cy="400.21" r="1.80" style="stroke-width: 0.75; stroke: #FF0000; fill: #FF0000;" onclick="top.colorCounties(123)"/>
    <circle cx="337.39" cy="440.83" r="1.80" style="stroke-width: 0.75; stroke: #FF0000; fill: #FF0000;" onclick="top.colorCounties(124)"/>
    <circle cx="339.44" cy="475.20" r="1.80" style="stroke-width: 0.75; stroke: #FF0000; fill: #FF0000;" onclick="top.colorCounties(125)"/>
    <circle cx="341.50" cy="410.17" r="1.80" style="stroke-width: 0.75; stroke: #FF0000; fill: #FF0000;" onclick="top.colorCounties(126)"/>
    <circle cx="343.55" cy="434.58" r="1.80" style="stroke-width: 0.75; stroke: #FF0000; fill: #FF0000;" onclick="top.colorCounties(127)"/>
    <circle cx="345.61" cy="360.96" r="1.80" style="stroke-width: 0.75; stroke: #FF0000; fill: #FF0000;" onclick="top.colorCounties(128)"/>
    <circle cx="347.67" cy="432.82" r="1.80" style="stroke-width: 0.75; stroke: #FF0000; fill: #FF0000;" onclick="top.colorCounties(129)"/>
    <circle cx="349.72" cy="426.77" r="1.80" style="stroke-width: 0.75; stroke: #FF0000; fill: #FF0000;" onclick="top.colorCounties(130)"/>
    <circle cx="351.78" cy="433.41" r="1.80" style="stroke-width: 0.75; stroke: #FF0000; fill: #FF0000;" onclick="top.colorCounties(131)"/>
    <circle cx="353.84" cy="475.20" r="1.80" style="stroke-width: 0.75; stroke: #FF0000; fill: #FF0000;" onclick="top.colorCounties(132)"/>
    <circle cx="355.89" cy="428.53" r="1.80" style="stroke-width: 0.75; stroke: #FF0000; fill: #FF0000;" onclick="top.colorCounties(133)"/>
    <circle cx="357.95" cy="383.42" r="1.80" style="stroke-width: 0.75; stroke: #FF0000; fill: #FF0000;" onclick="top.colorCounties(134)"/>
    <circle cx="360.01" cy="430.67" r="1.80" style="stroke-width: 0.75; stroke: #FF0000; fill: #FF0000;" onclick="top.colorCounties(135)"/>
    <circle cx="362.06" cy="433.80" r="1.80" style="stroke-width: 0.75; stroke: #FF0000; fill: #FF0000;" onclick="top.colorCounties(136)"/>
    <circle cx="364.12" cy="425.99" r="1.80" style="stroke-width: 0.75; stroke: #FF0000; fill: #FF0000;" onclick="top.colorCounties(137)"/>
    <circle cx="366.17" cy="448.05" r="1.80" style="stroke-width: 0.75; stroke: #FF0000; fill: #FF0000;" onclick="top.colorCounties(138)"/>
    <circle cx="368.23" cy="454.50" r="1.80" style="stroke-width: 0.75; stroke: #FF0000; fill: #FF0000;" onclick="top.colorCounties(139)"/>
    <circle cx="370.29" cy="437.51" r="1.80" style="stroke-width: 0.75; stroke: #FF0000; fill: #FF0000;" onclick="top.colorCounties(140)"/>
    <circle cx="372.34" cy="435.56" r="1.80" style="stroke-width: 0.75; stroke: #FF0000; fill: #FF0000;" onclick="top.colorCounties(141)"/>
    <circle cx="374.40" cy="381.86" r="1.80" style="stroke-width: 0.75; stroke: #FF0000; fill: #FF0000;" onclick="top.colorCounties(142)"/>
    <circle cx="376.46" cy="319.76" r="1.80" style="stroke-width: 0.75; stroke: #FF0000; fill: #FF0000;" onclick="top.colorCounties(143)"/>
    <circle cx="378.51" cy="430.09" r="1.80" style="stroke-width: 0.75; stroke: #FF0000; fill: #FF0000;" onclick="top.colorCounties(144)"/>
    <circle cx="380.57" cy="416.61" r="1.80" style="stroke-width: 0.75; stroke: #FF0000; fill: #FF0000;" onclick="top.colorCounties(145)"/>
    <circle cx="382.63" cy="462.70" r="1.80" style="stroke-width: 0.75; stroke: #FF0000; fill: #FF0000;" onclick="top.colorCounties(146)"/>
    <circle cx="384.68" cy="444.54" r="1.80" style="stroke-width: 0.75; stroke: #FF0000; fill: #FF0000;" onclick="top.colorCounties(147)"/>
    <circle cx="386.74" cy="411.15" r="1.80" style="stroke-width: 0.75; stroke: #FF0000; fill: #FF0000;" onclick="top.colorCounties(148)"/>
    <circle cx="388.79" cy="426.77" r="1.80" style="stroke-width: 0.75; stroke: #FF0000; fill: #FF0000;" onclick="top.colorCounties(149)"/>
    <circle cx="390.85" cy="419.35" r="1.80" style="stroke-width: 0.75; stroke: #FF0000; fill: #FF0000;" onclick="top.colorCounties(150)"/>
    <circle cx="392.91" cy="449.23" r="1.80" style="stroke-width: 0.75; stroke: #FF0000; fill: #FF0000;" onclick="top.colorCounties(151)"/>
    <circle cx="394.96" cy="447.66" r="1.80" style="stroke-width: 0.75; stroke: #FF0000; fill: #FF0000;" onclick="top.colorCounties(152)"/>
    <circle cx="397.02" cy="459.97" r="1.80" style="stroke-width: 0.75; stroke: #FF0000; fill: #FF0000;" onclick="top.colorCounties(153)"/>
    <circle cx="399.08" cy="427.16" r="1.80" style="stroke-width: 0.75; stroke: #FF0000; fill: #FF0000;" onclick="top.colorCounties(154)"/>
    <circle cx="401.13" cy="449.81" r="1.80" style="stroke-width: 0.75; stroke: #FF0000; fill: #FF0000;" onclick="top.colorCounties(155)"/>
    <circle cx="403.19" cy="461.53" r="1.80" style="stroke-width: 0.75; stroke: #FF0000; fill: #FF0000;" onclick="top.colorCounties(156)"/>
    <circle cx="405.25" cy="459.58" r="1.80" style="stroke-width: 0.75; stroke: #FF0000; fill: #FF0000;" onclick="top.colorCounties(157)"/>
    <circle cx="407.30" cy="463.29" r="1.80" style="stroke-width: 0.75; stroke: #FF0000; fill: #FF0000;" onclick="top.colorCounties(158)"/>
    <circle cx="409.36" cy="444.93" r="1.80" style="stroke-width: 0.75; stroke: #FF0000; fill: #FF0000;" onclick="top.colorCounties(159)"/>
    <circle cx="411.41" cy="457.82" r="1.80" style="stroke-width: 0.75; stroke: #FF0000; fill: #FF0000;" onclick="top.colorCounties(160)"/>
    <circle cx="413.47" cy="442.59" r="1.80" style="stroke-width: 0.75; stroke: #FF0000; fill: #FF0000;" onclick="top.colorCounties(161)"/>
    <circle cx="415.53" cy="402.16" r="1.80" style="stroke-width: 0.75; stroke: #FF0000; fill: #FF0000;" onclick="top.colorCounties(162)"/>
    <circle cx="417.58" cy="292.22" r="1.80" style="stroke-width: 0.75; stroke: #FF0000; fill: #FF0000;" onclick="top.colorCounties(163)"/>
    <circle cx="419.64" cy="444.73" r="1.80" style="stroke-width: 0.75; stroke: #FF0000; fill: #FF0000;" onclick="top.colorCounties(164)"/>
    <circle cx="421.70" cy="426.38" r="1.80" style="stroke-width: 0.75; stroke: #FF0000; fill: #FF0000;" onclick="top.colorCounties(165)"/>
    <circle cx="423.75" cy="401.97" r="1.80" style="stroke-width: 0.75; stroke: #FF0000; fill: #FF0000;" onclick="top.colorCounties(166)"/>
    <circle cx="425.81" cy="421.69" r="1.80" style="stroke-width: 0.75; stroke: #FF0000; fill: #FF0000;" onclick="top.colorCounties(167)"/>
    <circle cx="427.86" cy="438.49" r="1.80" style="stroke-width: 0.75; stroke: #FF0000; fill: #FF0000;" onclick="top.colorCounties(168)"/>
    <circle cx="429.92" cy="441.02" r="1.80" style="stroke-width: 0.75; stroke: #FF0000; fill: #FF0000;" onclick="top.colorCounties(169)"/>
    <circle cx="431.98" cy="468.36" r="1.80" style="stroke-width: 0.75; stroke: #FF0000; fill: #FF0000;" onclick="top.colorCounties(170)"/>
    <circle cx="434.03" cy="464.26" r="1.80" style="stroke-width: 0.75; stroke: #FF0000; fill: #FF0000;" onclick="top.colorCounties(171)"/>
    <circle cx="436.09" cy="417.01" r="1.80" style="stroke-width: 0.75; stroke: #FF0000; fill: #FF0000;" onclick="top.colorCounties(172)"/>
    <circle cx="438.15" cy="455.47" r="1.80" style="stroke-width: 0.75; stroke: #FF0000; fill: #FF0000;" onclick="top.colorCounties(173)"/>
    <circle cx="440.20" cy="453.72" r="1.80" style="stroke-width: 0.75; stroke: #FF0000; fill: #FF0000;" onclick="top.colorCounties(174)"/>
    <circle cx="442.26" cy="440.05" r="1.80" style="stroke-width: 0.75; stroke: #FF0000; fill: #FF0000;" onclick="top.colorCounties(175)"/>
    <circle cx="444.32" cy="462.90" r="1.80" style="stroke-width: 0.75; stroke: #FF0000; fill: #FF0000;" onclick="top.colorCounties(176)"/>
    <circle cx="446.37" cy="390.45" r="1.80" style="stroke-width: 0.75; stroke: #FF0000; fill: #FF0000;" onclick="top.colorCounties(177)"/>
    <circle cx="448.43" cy="430.28" r="1.80" style="stroke-width: 0.75; stroke: #FF0000; fill: #FF0000;" onclick="top.colorCounties(178)"/>
    <circle cx="450.48" cy="465.43" r="1.80" style="stroke-width: 0.75; stroke: #FF0000; fill: #FF0000;" onclick="top.colorCounties(179)"/>
    <circle cx="452.54" cy="447.08" r="1.80" style="stroke-width: 0.75; stroke: #FF0000; fill: #FF0000;" onclick="top.colorCounties(180)"/>
    <circle cx="454.60" cy="450.79" r="1.80" style="stroke-width: 0.75; stroke: #FF0000; fill: #FF0000;" onclick="top.colorCounties(181)"/>
    <circle cx="456.65" cy="401.19" r="1.80" style="stroke-width: 0.75; stroke: #FF0000; fill: #FF0000;" onclick="top.colorCounties(182)"/>
    <circle cx="458.71" cy="447.08" r="1.80" style="stroke-width: 0.75; stroke: #FF0000; fill: #FF0000;" onclick="top.colorCounties(183)"/>
    <circle cx="460.77" cy="442.00" r="1.80" style="stroke-width: 0.75; stroke: #FF0000; fill: #FF0000;" onclick="top.colorCounties(184)"/>
    <circle cx="462.82" cy="454.11" r="1.80" style="stroke-width: 0.75; stroke: #FF0000; fill: #FF0000;" onclick="top.colorCounties(185)"/>
    <circle cx="464.88" cy="420.72" r="1.80" style="stroke-width: 0.75; stroke: #FF0000; fill: #FF0000;" onclick="top.colorCounties(186)"/>
    <circle cx="466.94" cy="448.44" r="1.80" style="stroke-width: 0.75; stroke: #FF0000; fill: #FF0000;" onclick="top.colorCounties(187)"/>
    <circle cx="468.99" cy="454.30" r="1.80" style="stroke-width: 0.75; stroke: #FF0000; fill: #FF0000;" onclick="top.colorCounties(188)"/>
    <circle cx="471.05" cy="451.96" r="1.80" style="stroke-width: 0.75; stroke: #FF0000; fill: #FF0000;" onclick="top.colorCounties(189)"/>
    <circle cx="473.10" cy="475.00" r="1.80" style="stroke-width: 0.75; stroke: #FF0000; fill: #FF0000;" onclick="top.colorCounties(190)"/>
    <circle cx="475.16" cy="476.37" r="1.80" style="stroke-width: 0.75; stroke: #FF0000; fill: #FF0000;" onclick="top.colorCounties(191)"/>
    <circle cx="477.22" cy="475.59" r="1.80" style="stroke-width: 0.75; stroke: #FF0000; fill: #FF0000;" onclick="top.colorCounties(192)"/>
    <circle cx="479.27" cy="426.57" r="1.80" style="stroke-width: 0.75; stroke: #FF0000; fill: #FF0000;" onclick="top.colorCounties(193)"/>
    <circle cx="481.33" cy="464.46" r="1.80" style="stroke-width: 0.75; stroke: #FF0000; fill: #FF0000;" onclick="top.colorCounties(194)"/>
    <circle cx="483.39" cy="442.98" r="1.80" style="stroke-width: 0.75; stroke: #FF0000; fill: #FF0000;" onclick="top.colorCounties(195)"/>
    <circle cx="485.44" cy="457.82" r="1.80" style="stroke-width: 0.75; stroke: #FF0000; fill: #FF0000;" onclick="top.colorCounties(196)"/>
    <circle cx="487.50" cy="425.21" r="1.80" style="stroke-width: 0.75; stroke: #FF0000; fill: #FF0000;" onclick="top.colorCounties(197)"/>
    <circle cx="489.55" cy="436.14" r="1.80" style="stroke-width: 0.75; stroke: #FF0000; fill: #FF0000;" onclick="top.colorCounties(198)"/>
    <circle cx="491.61" cy="463.68" r="1.80" style="stroke-width: 0.75; stroke: #FF0000; fill: #FF0000;" onclick="top.colorCounties(199)"/>
    <circle cx="493.67" cy="459.97" r="1.80" style="stroke-width: 0.75; stroke: #FF0000; fill: #FF0000;" onclick="top.colorCounties(200)"/>
    <circle cx="495.72" cy="457.23" r="1.80" style="stroke-width: 0.75; stroke: #FF0000; fill: #FF0000;" onclick="top.colorCounties(201)"/>
    <circle cx="497.78" cy="475.20" r="1.80" style="stroke-width: 0.75; stroke: #FF0000; fill: #FF0000;" onclick="top.colorCounties(202)"/>
    <circle cx="499.84" cy="475.20" r="1.80" style="stroke-width: 0.75; stroke: #FF0000; fill: #FF0000;" onclick="top.colorCounties(203)"/>
    <circle cx="501.89" cy="465.82" r="1.80" style="stroke-width: 0.75; stroke: #FF0000; fill: #FF0000;" onclick="top.colorCounties(204)"/>
    <circle cx="503.95" cy="440.44" r="1.80" style="stroke-width: 0.75; stroke: #FF0000; fill: #FF0000;" onclick="top.colorCounties(205)"/>
    <circle cx="506.01" cy="467.19" r="1.80" style="stroke-width: 0.75; stroke: #FF0000; fill: #FF0000;" onclick="top.colorCounties(206)"/>
    <circle cx="508.06" cy="462.31" r="1.80" style="stroke-width: 0.75; stroke: #FF0000; fill: #FF0000;" onclick="top.colorCounties(207)"/>
    <circle cx="510.12" cy="461.92" r="1.80" style="stroke-width: 0.75; stroke: #FF0000; fill: #FF0000;" onclick="top.colorCounties(208)"/>
    <circle cx="512.17" cy="475.20" r="1.80" style="stroke-width: 0.75; stroke: #FF0000; fill: #FF0000;" onclick="top.colorCounties(209)"/>
    <circle cx="514.23" cy="475.20" r="1.80" style="stroke-width: 0.75; stroke: #FF0000; fill: #FF0000;" onclick="top.colorCounties(210)"/>
    <circle cx="516.29" cy="465.24" r="1.80" style="stroke-width: 0.75; stroke: #FF0000; fill: #FF0000;" onclick="top.colorCounties(211)"/>
    <circle cx="518.34" cy="453.33" r="1.80" style="stroke-width: 0.75; stroke: #FF0000; fill: #FF0000;" onclick="top.colorCounties(212)"/>
    <circle cx="520.40" cy="464.65" r="1.80" style="stroke-width: 0.75; stroke: #FF0000; fill: #FF0000;" onclick="top.colorCounties(213)"/>
    <circle cx="522.46" cy="466.22" r="1.80" style="stroke-width: 0.75; stroke: #FF0000; fill: #FF0000;" onclick="top.colorCounties(214)"/>
    <circle cx="524.51" cy="469.73" r="1.80" style="stroke-width: 0.75; stroke: #FF0000; fill: #FF0000;" onclick="top.colorCounties(215)"/>
    <circle cx="526.57" cy="475.20" r="1.80" style="stroke-width: 0.75; stroke: #FF0000; fill: #FF0000;" onclick="top.colorCounties(216)"/>
    <circle cx="528.63" cy="475.20" r="1.80" style="stroke-width: 0.75; stroke: #FF0000; fill: #FF0000;" onclick="top.colorCounties(217)"/>
    <circle cx="530.68" cy="458.79" r="1.80" style="stroke-width: 0.75; stroke: #FF0000; fill: #FF0000;" onclick="top.colorCounties(218)"/>
    <circle cx="532.74" cy="443.56" r="1.80" style="stroke-width: 0.75; stroke: #FF0000; fill: #FF0000;" onclick="top.colorCounties(219)"/>
    <circle cx="534.79" cy="465.82" r="1.80" style="stroke-width: 0.75; stroke: #FF0000; fill: #FF0000;" onclick="top.colorCounties(220)"/>
    <circle cx="536.85" cy="465.63" r="1.80" style="stroke-width: 0.75; stroke: #FF0000; fill: #FF0000;" onclick="top.colorCounties(221)"/>
    <circle cx="538.91" cy="475.20" r="1.80" style="stroke-width: 0.75; stroke: #FF0000; fill: #FF0000;" onclick="top.colorCounties(222)"/>
    <circle cx="540.96" cy="475.20" r="1.80" style="stroke-width: 0.75; stroke: #FF0000; fill: #FF0000;" onclick="top.colorCounties(223)"/>
    <circle cx="543.02" cy="475.20" r="1.80" style="stroke-width: 0.75; stroke: #FF0000; fill: #FF0000;" onclick="top.colorCounties(224)"/>
    <circle cx="545.08" cy="475.20" r="1.80" style="stroke-width: 0.75; stroke: #FF0000; fill: #FF0000;" onclick="top.colorCounties(225)"/>
    <circle cx="547.13" cy="475.20" r="1.80" style="stroke-width: 0.75; stroke: #FF0000; fill: #FF0000;" onclick="top.colorCounties(226)"/>
    <circle cx="549.19" cy="475.20" r="1.80" style="stroke-width: 0.75; stroke: #FF0000; fill: #FF0000;" onclick="top.colorCounties(227)"/>
    <circle cx="551.25" cy="414.66" r="1.80" style="stroke-width: 0.75; stroke: #FF0000; fill: #FF0000;" onclick="top.colorCounties(228)"/>
    <circle cx="553.30" cy="465.63" r="1.80" style="stroke-width: 0.75; stroke: #FF0000; fill: #FF0000;" onclick="top.colorCounties(229)"/>
    <circle cx="555.36" cy="475.20" r="1.80" style="stroke-width: 0.75; stroke: #FF0000; fill: #FF0000;" onclick="top.colorCounties(230)"/>
    <circle cx="557.41" cy="475.20" r="1.80" style="stroke-width: 0.75; stroke: #FF0000; fill: #FF0000;" onclick="top.colorCounties(231)"/>
    <circle cx="559.47" cy="473.44" r="1.80" style="stroke-width: 0.75; stroke: #FF0000; fill: #FF0000;" onclick="top.colorCounties(232)"/>
    <circle cx="561.53" cy="428.33" r="1.80" style="stroke-width: 0.75; stroke: #FF0000; fill: #FF0000;" onclick="top.colorCounties(233)"/>
    <circle cx="563.58" cy="467.97" r="1.80" style="stroke-width: 0.75; stroke: #FF0000; fill: #FF0000;" onclick="top.colorCounties(234)"/>
    <circle cx="565.64" cy="464.46" r="1.80" style="stroke-width: 0.75; stroke: #FF0000; fill: #FF0000;" onclick="top.colorCounties(235)"/>
    <circle cx="567.70" cy="455.28" r="1.80" style="stroke-width: 0.75; stroke: #FF0000; fill: #FF0000;" onclick="top.colorCounties(236)"/>
    <circle cx="569.75" cy="475.20" r="1.80" style="stroke-width: 0.75; stroke: #FF0000; fill: #FF0000;" onclick="top.colorCounties(237)"/>
    <circle cx="571.81" cy="475.20" r="1.80" style="stroke-width: 0.75; stroke: #FF0000; fill: #FF0000;" onclick="top.colorCounties(238)"/>
    <circle cx="573.86" cy="455.87" r="1.80" style="stroke-width: 0.75; stroke: #FF0000; fill: #FF0000;" onclick="top.colorCounties(239)"/>
    <circle cx="575.92" cy="440.63" r="1.80" style="stroke-width: 0.75; stroke: #FF0000; fill: #FF0000;" onclick="top.colorCounties(240)"/>
    <circle cx="577.98" cy="459.19" r="1.80" style="stroke-width: 0.75; stroke: #FF0000; fill: #FF0000;" onclick="top.colorCounties(241)"/>
    <circle cx="580.03" cy="474.03" r="1.80" style="stroke-width: 0.75; stroke: #FF0000; fill: #FF0000;" onclick="top.colorCounties(242)"/>
    <circle cx="582.09" cy="453.33" r="1.80" style="stroke-width: 0.75; stroke: #FF0000; fill: #FF0000;" onclick="top.colorCounties(243)"/>
    <circle cx="584.15" cy="475.20" r="1.80" style="stroke-width: 0.75; stroke: #FF0000; fill: #FF0000;" onclick="top.colorCounties(244)"/>
    <circle cx="586.20" cy="475.20" r="1.80" style="stroke-width: 0.75; stroke: #FF0000; fill: #FF0000;" onclick="top.colorCounties(245)"/>
    <circle cx="588.26" cy="463.29" r="1.80" style="stroke-width: 0.75; stroke: #FF0000; fill: #FF0000;" onclick="top.colorCounties(246)"/>
    <circle cx="590.32" cy="436.53" r="1.80" style="stroke-width: 0.75; stroke: #FF0000; fill: #FF0000;" onclick="top.colorCounties(247)"/>
    <circle cx="592.37" cy="458.60" r="1.80" style="stroke-width: 0.75; stroke: #FF0000; fill: #FF0000;" onclick="top.colorCounties(248)"/>
    <circle cx="594.43" cy="454.50" r="1.80" style="stroke-width: 0.75; stroke: #FF0000; fill: #FF0000;" onclick="top.colorCounties(249)"/>
    <circle cx="596.48" cy="459.77" r="1.80" style="stroke-width: 0.75; stroke: #FF0000; fill: #FF0000;" onclick="top.colorCounties(250)"/>
    <circle cx="598.54" cy="475.20" r="1.80" style="stroke-width: 0.75; stroke: #FF0000; fill: #FF0000;" onclick="top.colorCounties(251)"/>
    <circle cx="600.60" cy="475.20" r="1.80" style="stroke-width: 0.75; stroke: #FF0000; fill: #FF0000;" onclick="top.colorCounties(252)"/>
    <circle cx="602.65" cy="454.69" r="1.80" style="stroke-width: 0.75; stroke: #FF0000; fill: #FF0000;" onclick="top.colorCounties(253)"/>
    <circle cx="604.71" cy="425.79" r="1.80" style="stroke-width: 0.75; stroke: #FF0000; fill: #FF0000;" onclick="top.colorCounties(254)"/>
    <circle cx="606.77" cy="475.20" r="1.80" style="stroke-width: 0.75; stroke: #FF0000; fill: #FF0000;" onclick="top.colorCounties(255)"/>
    <circle cx="608.82" cy="430.09" r="1.80" style="stroke-width: 0.75; stroke: #FF0000; fill: #FF0000;" onclick="top.colorCounties(256)"/>
    <circle cx="610.88" cy="417.98" r="1.80" style="stroke-width: 0.75; stroke: #FF0000; fill: #FF0000;" onclick="top.colorCounties(257)"/>
    <circle cx="612.94" cy="475.20" r="1.80" style="stroke-width: 0.75; stroke: #FF0000; fill: #FF0000;" onclick="top.colorCounties(258)"/>
    <circle cx="614.99" cy="475.20" r="1.80" style="stroke-width: 0.75; stroke: #FF0000; fill: #FF0000;" onclick="top.colorCounties(259)"/>
    <circle cx="617.05" cy="432.82" r="1.80" style="stroke-width: 0.75; stroke: #FF0000; fill: #FF0000;" onclick="top.colorCounties(260)"/>
    <circle cx="619.10" cy="389.86" r="1.80" style="stroke-width: 0.75; stroke: #FF0000; fill: #FF0000;" onclick="top.colorCounties(261)"/>
    <circle cx="621.16" cy="443.17" r="1.80" style="stroke-width: 0.75; stroke: #FF0000; fill: #FF0000;" onclick="top.colorCounties(262)"/>
    <circle cx="623.22" cy="452.74" r="1.80" style="stroke-width: 0.75; stroke: #FF0000; fill: #FF0000;" onclick="top.colorCounties(263)"/>
    <circle cx="625.27" cy="436.34" r="1.80" style="stroke-width: 0.75; stroke: #FF0000; fill: #FF0000;" onclick="top.colorCounties(264)"/>
    <circle cx="627.33" cy="475.20" r="1.80" style="stroke-width: 0.75; stroke: #FF0000; fill: #FF0000;" onclick="top.colorCounties(265)"/>
    <circle cx="629.39" cy="475.20" r="1.80" style="stroke-width: 0.75; stroke: #FF0000; fill: #FF0000;" onclick="top.colorCounties(266)"/>
    <circle cx="631.44" cy="444.93" r="1.80" style="stroke-width: 0.75; stroke: #FF0000; fill: #FF0000;" onclick="top.colorCounties(267)"/>
    <circle cx="633.50" cy="390.64" r="1.80" style="stroke-width: 0.75; stroke: #FF0000; fill: #FF0000;" onclick="top.colorCounties(268)"/>
    <circle cx="635.55" cy="389.67" r="1.80" style="stroke-width: 0.75; stroke: #FF0000; fill: #FF0000;" onclick="top.colorCounties(269)"/>
    <circle cx="637.61" cy="475.20" r="1.80" style="stroke-width: 0.75; stroke: #FF0000; fill: #FF0000;" onclick="top.colorCounties(270)"/>
    <circle cx="639.67" cy="462.90" r="1.80" style="stroke-width: 0.75; stroke: #FF0000; fill: #FF0000;" onclick="top.colorCounties(271)"/>
    <circle cx="641.72" cy="474.61" r="1.80" style="stroke-width: 0.75; stroke: #FF0000; fill: #FF0000;" onclick="top.colorCounties(272)"/>
    <circle cx="643.78" cy="475.00" r="1.80" style="stroke-width: 0.75; stroke: #FF0000; fill: #FF0000;" onclick="top.colorCounties(273)"/>
    <circle cx="645.84" cy="440.44" r="1.80" style="stroke-width: 0.75; stroke: #FF0000; fill: #FF0000;" onclick="top.colorCounties(274)"/>
    <circle cx="647.89" cy="447.08" r="1.80" style="stroke-width: 0.75; stroke: #FF0000; fill: #FF0000;" onclick="top.colorCounties(275)"/>
    <circle cx="649.95" cy="334.60" r="1.80" style="stroke-width: 0.75; stroke: #FF0000; fill: #FF0000;" onclick="top.colorCounties(276)"/>
    <circle cx="652.01" cy="416.81" r="1.80" style="stroke-width: 0.75; stroke: #FF0000; fill: #FF0000;" onclick="top.colorCounties(277)"/>
    <circle cx="654.06" cy="399.82" r="1.80" style="stroke-width: 0.75; stroke: #FF0000; fill: #FF0000;" onclick="top.colorCounties(278)"/>
    <circle cx="656.12" cy="409.39" r="1.80" style="stroke-width: 0.75; stroke: #FF0000; fill: #FF0000;" onclick="top.colorCounties(279)"/>
    <circle cx="658.17" cy="416.81" r="1.80" style="stroke-width: 0.75; stroke: #FF0000; fill: #FF0000;" onclick="top.colorCounties(280)"/>
    <circle cx="660.23" cy="458.99" r="1.80" style="stroke-width: 0.75; stroke: #FF0000; fill: #FF0000;" onclick="top.colorCounties(281)"/>
    <circle cx="662.29" cy="408.02" r="1.80" style="stroke-width: 0.75; stroke: #FF0000; fill: #FF0000;" onclick="top.colorCounties(282)"/>
    <circle cx="664.34" cy="75.47" r="1.80" style="stroke-width: 0.75; stroke: #FF0000; fill: #FF0000;" onclick="top.colorCounties(283)"/>
    <circle cx="666.40" cy="428.92" r="1.80" style="stroke-width: 0.75; stroke: #FF0000; fill: #FF0000;" onclick="top.colorCounties(284)"/>
  </g>
</svg>
