<?xml version="1.0" encoding="UTF-8"?>
<svg xmlns="http://www.w3.org/2000/svg" xmlns:xlink="http://www.w3.org/1999/xlink" class="svglite" width="720.00pt" height="576.00pt" viewBox="0 0 720.00 576.00">
  <defs>
    <style type="text/css"><![CDATA[
    .svglite line, .svglite polyline, .svglite polygon, .svglite path, .svglite rect, .svglite circle {
      fill: none;
      stroke: #000000;
      stroke-linecap: round;
      stroke-linejoin: round;
      stroke-miterlimit: 10.00;
    }
    .svglite text {
      white-space: pre;
    }
  ]]></style>
  </defs>
  <rect width="100%" height="100%" style="stroke: none; fill: #FFFFFF;"/>
  <defs>
    <clipPath id="cpMC4wMHw3MjAuMDB8MC4wMHw1NzYuMDA=">
      <rect x="0.00" y="0.00" width="720.00" height="576.00"/>
    </clipPath>
  </defs>
  <g clip-path="url(#cpMC4wMHw3MjAuMDB8MC4wMHw1NzYuMDA=)">
</g>
  <defs>
    <clipPath id="cpNTkuMDR8Njg5Ljc2fDU5LjA0fDUwMi41Ng==">
      <rect x="59.04" y="59.04" width="630.72" height="443.52"/>
    </clipPath>
  </defs>
  <g clip-path="url(#cpNTkuMDR8Njg5Ljc2fDU5LjA0fDUwMi41Ng==)">
    <polyline points="82.40,486.13 84.46,486.13 86.51,486.13 88.57,486.13 90.63,486.13 92.68,486.13 94.74,486.13 96.79,486.13 98.85,485.99 100.91,486.13 102.96,486.13 105.02,485.70 107.08,485.56 109.13,485.99 111.19,481.81 113.25,483.83 115.30,485.41 117.36,483.25 119.41,482.68 121.47,482.39 123.53,482.10 125.58,479.51 127.64,482.53 129.70,484.41 131.75,478.21 133.81,479.80 135.86,475.19 137.92,475.91 139.98,481.67 142.03,474.04 144.09,467.27 146.15,469.57 148.20,469.29 150.26,465.11 152.32,472.17 154.37,469.29 156.43,474.90 158.48,478.93 160.54,475.19 162.60,472.02 164.65,476.34 166.71,476.77 168.77,479.94 170.82,479.94 172.88,474.18 174.94,474.33 176.99,475.33 179.05,475.91 181.10,478.21 183.16,478.21 185.22,477.93 187.27,470.44 189.33,477.93 191.39,464.25 193.44,459.78 195.50,469.29 197.55,471.73 199.61,472.02 201.67,452.01 203.72,478.36 205.78,458.05 207.84,464.97 209.89,467.27 211.95,473.89 214.01,472.74 216.06,465.97 218.12,463.24 220.17,470.29 222.23,452.58 224.29,469.72 226.34,464.53 228.40,466.12 230.46,472.31 232.51,469.29 234.57,469.86 236.63,467.13 238.68,466.12 240.74,461.08 242.79,470.29 244.85,474.61 246.91,469.72 248.96,460.93 251.02,469.00 253.08,468.13 255.13,465.69 257.19,472.31 259.25,473.89 261.30,471.59 263.36,469.29 265.41,465.97 267.47,465.25 269.53,472.31 271.58,475.62 273.64,468.85 275.70,468.28 277.75,465.69 279.81,451.58 281.86,462.37 283.92,467.27 285.98,465.54 288.03,470.29 290.09,470.58 292.15,462.95 294.20,467.13 296.26,459.64 298.32,467.99 300.37,461.65 302.43,468.85 304.48,468.28 306.54,451.86 308.60,448.98 310.65,466.84 312.71,441.50 314.77,442.65 316.82,457.62 318.88,438.33 320.94,437.90 322.99,422.78 325.05,423.35 327.10,414.57 329.16,414.43 331.22,440.49 333.27,417.88 335.33,402.04 337.39,415.72 339.44,418.74 341.50,405.21 343.55,446.68 345.61,402.91 347.67,448.12 349.72,405.50 351.78,419.75 353.84,412.99 355.89,405.79 357.95,425.80 360.01,408.52 362.06,405.64 364.12,427.24 366.17,394.84 368.23,396.14 370.29,404.35 372.34,420.90 374.40,430.70 376.46,401.61 378.51,413.99 380.57,415.58 382.63,399.31 384.68,445.38 386.74,410.83 388.79,414.43 390.85,445.53 392.91,431.27 394.96,431.42 397.02,409.96 399.08,442.07 401.13,436.74 403.19,444.38 405.25,436.02 407.30,448.26 409.36,392.25 411.41,406.79 413.47,426.09 415.53,453.30 417.58,459.93 419.64,452.15 421.70,447.83 423.75,427.67 425.81,445.96 427.86,438.04 429.92,445.53 431.98,457.05 434.03,455.32 436.09,452.73 438.15,442.36 440.20,444.23 442.26,437.61 444.32,459.21 446.37,447.69 448.43,453.30 450.48,446.25 452.54,445.10 454.60,448.26 456.65,449.70 458.71,442.36 460.77,447.69 462.82,450.14 464.88,439.34 466.94,420.90 468.99,422.34 471.05,441.78 473.10,485.85 475.16,424.94 477.22,450.57 479.27,445.24 481.33,434.15 483.39,422.06 485.44,447.98 487.50,456.18 489.55,443.80 491.61,448.12 493.67,461.08 495.72,430.26 497.78,444.95 499.84,445.24 501.89,436.02 503.95,454.17 506.01,446.10 508.06,461.51 510.12,427.82 512.17,438.62 514.23,445.96 516.29,468.28 518.34,449.99 520.40,458.05 522.46,442.22 524.51,442.07 526.57,427.24 528.63,452.15 530.68,453.88 532.74,462.95 534.79,435.16 536.85,444.23 538.91,434.73 540.96,440.06 543.02,427.38 545.08,458.05 547.13,446.10 549.19,442.50 551.25,465.54 553.30,441.35 555.36,457.19 557.41,432.42 559.47,431.42 561.53,447.98 563.58,448.26 565.64,452.30 567.70,424.22 569.75,430.55 571.81,447.40 573.86,434.58 575.92,447.40 577.98,438.62 580.03,434.58 582.09,418.31 584.15,431.27 586.20,435.45 588.26,441.93 590.32,443.94 592.37,427.96 594.43,409.82 596.48,417.02 598.54,408.38 600.60,412.27 602.65,428.39 604.71,416.58 606.77,481.53 608.82,306.29 610.88,398.15 612.94,380.15 614.99,329.61 617.05,366.19 619.10,382.75 621.16,353.37 623.22,356.68 625.27,329.04 627.33,273.31 629.39,350.92 631.44,318.09 633.50,263.52 635.55,350.20 637.61,485.85 639.67,75.47 641.72,218.45 643.78,485.85 645.84,194.84 647.89,287.71 649.95,310.89 652.01,269.57 654.06,192.53 656.12,156.82 658.17,240.91 660.23,198.44 662.29,302.40 664.34,183.17 666.40,190.95 " style="stroke-width: 0.75;"/>
  </g>
  <g clip-path="url(#cpMC4wMHw3MjAuMDB8MC4wMHw1NzYuMDA=)">
    <line x1="146.15" y1="502.56" x2="522.46" y2="502.56" style="stroke-width: 0.75;"/>
    <line x1="146.15" y1="502.56" x2="146.15" y2="509.76" style="stroke-width: 0.75;"/>
    <line x1="333.27" y1="502.56" x2="333.27" y2="509.76" style="stroke-width: 0.75;"/>
    <line x1="522.46" y1="502.56" x2="522.46" y2="509.76" style="stroke-width: 0.75;"/>
    <text x="146.15" y="528.48" text-anchor="middle" style="font-size: 12.00px; font-family: &quot;Arial&quot;;" textLength="18.68px" lengthAdjust="spacingAndGlyphs">Apr</text>
    <text x="333.27" y="528.48" text-anchor="middle" style="font-size: 12.00px; font-family: &quot;Arial&quot;;" textLength="15.34px" lengthAdjust="spacingAndGlyphs">Jul</text>
    <text x="522.46" y="528.48" text-anchor="middle" style="font-size: 12.00px; font-family: &quot;Arial&quot;;" textLength="18.66px" lengthAdjust="spacingAndGlyphs">Oct</text>
    <line x1="59.04" y1="486.13" x2="59.04" y2="126.15" style="stroke-width: 0.75;"/>
    <line x1="59.04" y1="486.13" x2="51.84" y2="486.13" style="stroke-width: 0.75;"/>
    <line x1="59.04" y1="414.14" x2="51.84" y2="414.14" style="stroke-width: 0.75;"/>
    <line x1="59.04" y1="342.14" x2="51.84" y2="342.14" style="stroke-width: 0.75;"/>
    <line x1="59.04" y1="270.14" x2="51.84" y2="270.14" style="stroke-width: 0.75;"/>
    <line x1="59.04" y1="198.15" x2="51.84" y2="198.15" style="stroke-width: 0.75;"/>
    <line x1="59.04" y1="126.15" x2="51.84" y2="126.15" style="stroke-width: 0.75;"/>
    <text transform="translate(41.76,486.13) rotate(-90)" text-anchor="middle" style="font-size: 12.00px; font-family: &quot;Arial&quot;;" textLength="6.67px" lengthAdjust="spacingAndGlyphs">0</text>
    <text transform="translate(41.76,414.14) rotate(-90)" text-anchor="middle" style="font-size: 12.00px; font-family: &quot;Arial&quot;;" textLength="20.02px" lengthAdjust="spacingAndGlyphs">500</text>
    <text transform="translate(41.76,342.14) rotate(-90)" text-anchor="middle" style="font-size: 12.00px; font-family: &quot;Arial&quot;;" textLength="26.70px" lengthAdjust="spacingAndGlyphs">1000</text>
    <text transform="translate(41.76,270.14) rotate(-90)" text-anchor="middle" style="font-size: 12.00px; font-family: &quot;Arial&quot;;" textLength="26.70px" lengthAdjust="spacingAndGlyphs">1500</text>
    <text transform="translate(41.76,198.15) rotate(-90)" text-anchor="middle" style="font-size: 12.00px; font-family: &quot;Arial&quot;;" textLength="26.70px" lengthAdjust="spacingAndGlyphs">2000</text>
    <text transform="translate(41.76,126.15) rotate(-90)" text-anchor="middle" style="font-size: 12.00px; font-family: &quot;Arial&quot;;" textLength="26.70px" lengthAdjust="spacingAndGlyphs">2500</text>
    <polygon points="59.04,502.56 689.76,502.56 689.76,59.04 59.04,59.04 " style="stroke-width: 0.75;"/>
    <text x="374.40" y="34.70" text-anchor="middle" style="font-size: 14.40px; font-weight: bold; font-family: &quot;Arial&quot;;" textLength="70.37px" lengthAdjust="spacingAndGlyphs">San Diego</text>
    <text x="374.40" y="557.28" text-anchor="middle" style="font-size: 12.00px; font-family: &quot;Arial&quot;;" textLength="25.35px" lengthAdjust="spacingAndGlyphs">Date</text>
    <text transform="translate(12.96,280.80) rotate(-90)" text-anchor="middle" style="font-size: 12.00px; font-family: &quot;Arial&quot;;" textLength="93.37px" lengthAdjust="spacingAndGlyphs">Number of Cases</text>
  </g>
  <g clip-path="url(#cpNTkuMDR8Njg5Ljc2fDU5LjA0fDUwMi41Ng==)">
    <circle cx="82.40" cy="486.13" r="1.80" style="stroke-width: 0.75; stroke: #FF0000; fill: #FF0000;" onclick="top.colorCounties(0)"/>
    <circle cx="84.46" cy="486.13" r="1.80" style="stroke-width: 0.75; stroke: #FF0000; fill: #FF0000;" onclick="top.colorCounties(1)"/>
    <circle cx="86.51" cy="486.13" r="1.80" style="stroke-width: 0.75; stroke: #FF0000; fill: #FF0000;" onclick="top.colorCounties(2)"/>
    <circle cx="88.57" cy="486.13" r="1.80" style="stroke-width: 0.75; stroke: #FF0000; fill: #FF0000;" onclick="top.colorCounties(3)"/>
    <circle cx="90.63" cy="486.13" r="1.80" style="stroke-width: 0.75; stroke: #FF0000; fill: #FF0000;" onclick="top.colorCounties(4)"/>
    <circle cx="92.68" cy="486.13" r="1.80" style="stroke-width: 0.75; stroke: #FF0000; fill: #FF0000;" onclick="top.colorCounties(5)"/>
    <circle cx="94.74" cy="486.13" r="1.80" style="stroke-width: 0.75; stroke: #FF0000; fill: #FF0000;" onclick="top.colorCounties(6)"/>
    <circle cx="96.79" cy="486.13" r="1.80" style="stroke-width: 0.75; stroke: #FF0000; fill: #FF0000;" onclick="top.colorCounties(7)"/>
    <circle cx="98.85" cy="485.99" r="1.80" style="stroke-width: 0.75; stroke: #FF0000; fill: #FF0000;" onclick="top.colorCounties(8)"/>
    <circle cx="100.91" cy="486.13" r="1.80" style="stroke-width: 0.75; stroke: #FF0000; fill: #FF0000;" onclick="top.colorCounties(9)"/>
    <circle cx="102.96" cy="486.13" r="1.80" style="stroke-width: 0.75; stroke: #FF0000; fill: #FF0000;" onclick="top.colorCounties(10)"/>
    <circle cx="105.02" cy="485.70" r="1.80" style="stroke-width: 0.75; stroke: #FF0000; fill: #FF0000;" onclick="top.colorCounties(11)"/>
    <circle cx="107.08" cy="485.56" r="1.80" style="stroke-width: 0.75; stroke: #FF0000; fill: #FF0000;" onclick="top.colorCounties(12)"/>
    <circle cx="109.13" cy="485.99" r="1.80" style="stroke-width: 0.75; stroke: #FF0000; fill: #FF0000;" onclick="top.colorCounties(13)"/>
    <circle cx="111.19" cy="481.81" r="1.80" style="stroke-width: 0.75; stroke: #FF0000; fill: #FF0000;" onclick="top.colorCounties(14)"/>
    <circle cx="113.25" cy="483.83" r="1.80" style="stroke-width: 0.75; stroke: #FF0000; fill: #FF0000;" onclick="top.colorCounties(15)"/>
    <circle cx="115.30" cy="485.41" r="1.80" style="stroke-width: 0.75; stroke: #FF0000; fill: #FF0000;" onclick="top.colorCounties(16)"/>
    <circle cx="117.36" cy="483.25" r="1.80" style="stroke-width: 0.75; stroke: #FF0000; fill: #FF0000;" onclick="top.colorCounties(17)"/>
    <circle cx="119.41" cy="482.68" r="1.80" style="stroke-width: 0.75; stroke: #FF0000; fill: #FF0000;" onclick="top.colorCounties(18)"/>
    <circle cx="121.47" cy="482.39" r="1.80" style="stroke-width: 0.75; stroke: #FF0000; fill: #FF0000;" onclick="top.colorCounties(19)"/>
    <circle cx="123.53" cy="482.10" r="1.80" style="stroke-width: 0.75; stroke: #FF0000; fill: #FF0000;" onclick="top.colorCounties(20)"/>
    <circle cx="125.58" cy="479.51" r="1.80" style="stroke-width: 0.75; stroke: #FF0000; fill: #FF0000;" onclick="top.colorCounties(21)"/>
    <circle cx="127.64" cy="482.53" r="1.80" style="stroke-width: 0.75; stroke: #FF0000; fill: #FF0000;" onclick="top.colorCounties(22)"/>
    <circle cx="129.70" cy="484.41" r="1.80" style="stroke-width: 0.75; stroke: #FF0000; fill: #FF0000;" onclick="top.colorCounties(23)"/>
    <circle cx="131.75" cy="478.21" r="1.80" style="stroke-width: 0.75; stroke: #FF0000; fill: #FF0000;" onclick="top.colorCounties(24)"/>
    <circle cx="133.81" cy="479.80" r="1.80" style="stroke-width: 0.75; stroke: #FF0000; fill: #FF0000;" onclick="top.colorCounties(25)"/>
    <circle cx="135.86" cy="475.19" r="1.80" style="stroke-width: 0.75; stroke: #FF0000; fill: #FF0000;" onclick="top.colorCounties(26)"/>
    <circle cx="137.92" cy="475.91" r="1.80" style="stroke-width: 0.75; stroke: #FF0000; fill: #FF0000;" onclick="top.colorCounties(27)"/>
    <circle cx="139.98" cy="481.67" r="1.80" style="stroke-width: 0.75; stroke: #FF0000; fill: #FF0000;" onclick="top.colorCounties(28)"/>
    <circle cx="142.03" cy="474.04" r="1.80" style="stroke-width: 0.75; stroke: #FF0000; fill: #FF0000;" onclick="top.colorCounties(29)"/>
    <circle cx="144.09" cy="467.27" r="1.80" style="stroke-width: 0.75; stroke: #FF0000; fill: #FF0000;" onclick="top.colorCounties(30)"/>
    <circle cx="146.15" cy="469.57" r="1.80" style="stroke-width: 0.75; stroke: #FF0000; fill: #FF0000;" onclick="top.colorCounties(31)"/>
    <circle cx="148.20" cy="469.29" r="1.80" style="stroke-width: 0.75; stroke: #FF0000; fill: #FF0000;" onclick="top.colorCounties(32)"/>
    <circle cx="150.26" cy="465.11" r="1.80" style="stroke-width: 0.75; stroke: #FF0000; fill: #FF0000;" onclick="top.colorCounties(33)"/>
    <circle cx="152.32" cy="472.17" r="1.80" style="stroke-width: 0.75; stroke: #FF0000; fill: #FF0000;" onclick="top.colorCounties(34)"/>
    <circle cx="154.37" cy="469.29" r="1.80" style="stroke-width: 0.75; stroke: #FF0000; fill: #FF0000;" onclick="top.colorCounties(35)"/>
    <circle cx="156.43" cy="474.90" r="1.80" style="stroke-width: 0.75; stroke: #FF0000; fill: #FF0000;" onclick="top.colorCounties(36)"/>
    <circle cx="158.48" cy="478.93" r="1.80" style="stroke-width: 0.75; stroke: #FF0000; fill: #FF0000;" onclick="top.colorCounties(37)"/>
    <circle cx="160.54" cy="475.19" r="1.80" style="stroke-width: 0.75; stroke: #FF0000; fill: #FF0000;" onclick="top.colorCounties(38)"/>
    <circle cx="162.60" cy="472.02" r="1.80" style="stroke-width: 0.75; stroke: #FF0000; fill: #FF0000;" onclick="top.colorCounties(39)"/>
    <circle cx="164.65" cy="476.34" r="1.80" style="stroke-width: 0.75; stroke: #FF0000; fill: #FF0000;" onclick="top.colorCounties(40)"/>
    <circle cx="166.71" cy="476.77" r="1.80" style="stroke-width: 0.75; stroke: #FF0000; fill: #FF0000;" onclick="top.colorCounties(41)"/>
    <circle cx="168.77" cy="479.94" r="1.80" style="stroke-width: 0.75; stroke: #FF0000; fill: #FF0000;" onclick="top.colorCounties(42)"/>
    <circle cx="170.82" cy="479.94" r="1.80" style="stroke-width: 0.75; stroke: #FF0000; fill: #FF0000;" onclick="top.colorCounties(43)"/>
    <circle cx="172.88" cy="474.18" r="1.80" style="stroke-width: 0.75; stroke: #FF0000; fill: #FF0000;" onclick="top.colorCounties(44)"/>
    <circle cx="174.94" cy="474.33" r="1.80" style="stroke-width: 0.75; stroke: #FF0000; fill: #FF0000;" onclick="top.colorCounties(45)"/>
    <circle cx="176.99" cy="475.33" r="1.80" style="stroke-width: 0.75; stroke: #FF0000; fill: #FF0000;" onclick="top.colorCounties(46)"/>
    <circle cx="179.05" cy="475.91" r="1.80" style="stroke-width: 0.75; stroke: #FF0000; fill: #FF0000;" onclick="top.colorCounties(47)"/>
    <circle cx="181.10" cy="478.21" r="1.80" style="stroke-width: 0.75; stroke: #FF0000; fill: #FF0000;" onclick="top.colorCounties(48)"/>
    <circle cx="183.16" cy="478.21" r="1.80" style="stroke-width: 0.75; stroke: #FF0000; fill: #FF0000;" onclick="top.colorCounties(49)"/>
    <circle cx="185.22" cy="477.93" r="1.80" style="stroke-width: 0.75; stroke: #FF0000; fill: #FF0000;" onclick="top.colorCounties(50)"/>
    <circle cx="187.27" cy="470.44" r="1.80" style="stroke-width: 0.75; stroke: #FF0000; fill: #FF0000;" onclick="top.colorCounties(51)"/>
    <circle cx="189.33" cy="477.93" r="1.80" style="stroke-width: 0.75; stroke: #FF0000; fill: #FF0000;" onclick="top.colorCounties(52)"/>
    <circle cx="191.39" cy="464.25" r="1.80" style="stroke-width: 0.75; stroke: #FF0000; fill: #FF0000;" onclick="top.colorCounties(53)"/>
    <circle cx="193.44" cy="459.78" r="1.80" style="stroke-width: 0.75; stroke: #FF0000; fill: #FF0000;" onclick="top.colorCounties(54)"/>
    <circle cx="195.50" cy="469.29" r="1.80" style="stroke-width: 0.75; stroke: #FF0000; fill: #FF0000;" onclick="top.colorCounties(55)"/>
    <circle cx="197.55" cy="471.73" r="1.80" style="stroke-width: 0.75; stroke: #FF0000; fill: #FF0000;" onclick="top.colorCounties(56)"/>
    <circle cx="199.61" cy="472.02" r="1.80" style="stroke-width: 0.75; stroke: #FF0000; fill: #FF0000;" onclick="top.colorCounties(57)"/>
    <circle cx="201.67" cy="452.01" r="1.80" style="stroke-width: 0.75; stroke: #FF0000; fill: #FF0000;" onclick="top.colorCounties(58)"/>
    <circle cx="203.72" cy="478.36" r="1.80" style="stroke-width: 0.75; stroke: #FF0000; fill: #FF0000;" onclick="top.colorCounties(59)"/>
    <circle cx="205.78" cy="458.05" r="1.80" style="stroke-width: 0.75; stroke: #FF0000; fill: #FF0000;" onclick="top.colorCounties(60)"/>
    <circle cx="207.84" cy="464.97" r="1.80" style="stroke-width: 0.75; stroke: #FF0000; fill: #FF0000;" onclick="top.colorCounties(61)"/>
    <circle cx="209.89" cy="467.27" r="1.80" style="stroke-width: 0.75; stroke: #FF0000; fill: #FF0000;" onclick="top.colorCounties(62)"/>
    <circle cx="211.95" cy="473.89" r="1.80" style="stroke-width: 0.75; stroke: #FF0000; fill: #FF0000;" onclick="top.colorCounties(63)"/>
    <circle cx="214.01" cy="472.74" r="1.80" style="stroke-width: 0.75; stroke: #FF0000; fill: #FF0000;" onclick="top.colorCounties(64)"/>
    <circle cx="216.06" cy="465.97" r="1.80" style="stroke-width: 0.75; stroke: #FF0000; fill: #FF0000;" onclick="top.colorCounties(65)"/>
    <circle cx="218.12" cy="463.24" r="1.80" style="stroke-width: 0.75; stroke: #FF0000; fill: #FF0000;" onclick="top.colorCounties(66)"/>
    <circle cx="220.17" cy="470.29" r="1.80" style="stroke-width: 0.75; stroke: #FF0000; fill: #FF0000;" onclick="top.colorCounties(67)"/>
    <circle cx="222.23" cy="452.58" r="1.80" style="stroke-width: 0.75; stroke: #FF0000; fill: #FF0000;" onclick="top.colorCounties(68)"/>
    <circle cx="224.29" cy="469.72" r="1.80" style="stroke-width: 0.75; stroke: #FF0000; fill: #FF0000;" onclick="top.colorCounties(69)"/>
    <circle cx="226.34" cy="464.53" r="1.80" style="stroke-width: 0.75; stroke: #FF0000; fill: #FF0000;" onclick="top.colorCounties(70)"/>
    <circle cx="228.40" cy="466.12" r="1.80" style="stroke-width: 0.75; stroke: #FF0000; fill: #FF0000;" onclick="top.colorCounties(71)"/>
    <circle cx="230.46" cy="472.31" r="1.80" style="stroke-width: 0.75; stroke: #FF0000; fill: #FF0000;" onclick="top.colorCounties(72)"/>
    <circle cx="232.51" cy="469.29" r="1.80" style="stroke-width: 0.75; stroke: #FF0000; fill: #FF0000;" onclick="top.colorCounties(73)"/>
    <circle cx="234.57" cy="469.86" r="1.80" style="stroke-width: 0.75; stroke: #FF0000; fill: #FF0000;" onclick="top.colorCounties(74)"/>
    <circle cx="236.63" cy="467.13" r="1.80" style="stroke-width: 0.75; stroke: #FF0000; fill: #FF0000;" onclick="top.colorCounties(75)"/>
    <circle cx="238.68" cy="466.12" r="1.80" style="stroke-width: 0.75; stroke: #FF0000; fill: #FF0000;" onclick="top.colorCounties(76)"/>
    <circle cx="240.74" cy="461.08" r="1.80" style="stroke-width: 0.75; stroke: #FF0000; fill: #FF0000;" onclick="top.colorCounties(77)"/>
    <circle cx="242.79" cy="470.29" r="1.80" style="stroke-width: 0.75; stroke: #FF0000; fill: #FF0000;" onclick="top.colorCounties(78)"/>
    <circle cx="244.85" cy="474.61" r="1.80" style="stroke-width: 0.75; stroke: #FF0000; fill: #FF0000;" onclick="top.colorCounties(79)"/>
    <circle cx="246.91" cy="469.72" r="1.80" style="stroke-width: 0.75; stroke: #FF0000; fill: #FF0000;" onclick="top.colorCounties(80)"/>
    <circle cx="248.96" cy="460.93" r="1.80" style="stroke-width: 0.75; stroke: #FF0000; fill: #FF0000;" onclick="top.colorCounties(81)"/>
    <circle cx="251.02" cy="469.00" r="1.80" style="stroke-width: 0.75; stroke: #FF0000; fill: #FF0000;" onclick="top.colorCounties(82)"/>
    <circle cx="253.08" cy="468.13" r="1.80" style="stroke-width: 0.75; stroke: #FF0000; fill: #FF0000;" onclick="top.colorCounties(83)"/>
    <circle cx="255.13" cy="465.69" r="1.80" style="stroke-width: 0.75; stroke: #FF0000; fill: #FF0000;" onclick="top.colorCounties(84)"/>
    <circle cx="257.19" cy="472.31" r="1.80" style="stroke-width: 0.75; stroke: #FF0000; fill: #FF0000;" onclick="top.colorCounties(85)"/>
    <circle cx="259.25" cy="473.89" r="1.80" style="stroke-width: 0.75; stroke: #FF0000; fill: #FF0000;" onclick="top.colorCounties(86)"/>
    <circle cx="261.30" cy="471.59" r="1.80" style="stroke-width: 0.75; stroke: #FF0000; fill: #FF0000;" onclick="top.colorCounties(87)"/>
    <circle cx="263.36" cy="469.29" r="1.80" style="stroke-width: 0.75; stroke: #FF0000; fill: #FF0000;" onclick="top.colorCounties(88)"/>
    <circle cx="265.41" cy="465.97" r="1.80" style="stroke-width: 0.75; stroke: #FF0000; fill: #FF0000;" onclick="top.colorCounties(89)"/>
    <circle cx="267.47" cy="465.25" r="1.80" style="stroke-width: 0.75; stroke: #FF0000; fill: #FF0000;" onclick="top.colorCounties(90)"/>
    <circle cx="269.53" cy="472.31" r="1.80" style="stroke-width: 0.75; stroke: #FF0000; fill: #FF0000;" onclick="top.colorCounties(91)"/>
    <circle cx="271.58" cy="475.62" r="1.80" style="stroke-width: 0.75; stroke: #FF0000; fill: #FF0000;" onclick="top.colorCounties(92)"/>
    <circle cx="273.64" cy="468.85" r="1.80" style="stroke-width: 0.75; stroke: #FF0000; fill: #FF0000;" onclick="top.colorCounties(93)"/>
    <circle cx="275.70" cy="468.28" r="1.80" style="stroke-width: 0.75; stroke: #FF0000; fill: #FF0000;" onclick="top.colorCounties(94)"/>
    <circle cx="277.75" cy="465.69" r="1.80" style="stroke-width: 0.75; stroke: #FF0000; fill: #FF0000;" onclick="top.colorCounties(95)"/>
    <circle cx="279.81" cy="451.58" r="1.80" style="stroke-width: 0.75; stroke: #FF0000; fill: #FF0000;" onclick="top.colorCounties(96)"/>
    <circle cx="281.86" cy="462.37" r="1.80" style="stroke-width: 0.75; stroke: #FF0000; fill: #FF0000;" onclick="top.colorCounties(97)"/>
    <circle cx="283.92" cy="467.27" r="1.80" style="stroke-width: 0.75; stroke: #FF0000; fill: #FF0000;" onclick="top.colorCounties(98)"/>
    <circle cx="285.98" cy="465.54" r="1.80" style="stroke-width: 0.75; stroke: #FF0000; fill: #FF0000;" onclick="top.colorCounties(99)"/>
    <circle cx="288.03" cy="470.29" r="1.80" style="stroke-width: 0.75; stroke: #FF0000; fill: #FF0000;" onclick="top.colorCounties(100)"/>
    <circle cx="290.09" cy="470.58" r="1.80" style="stroke-width: 0.75; stroke: #FF0000; fill: #FF0000;" onclick="top.colorCounties(101)"/>
    <circle cx="292.15" cy="462.95" r="1.80" style="stroke-width: 0.75; stroke: #FF0000; fill: #FF0000;" onclick="top.colorCounties(102)"/>
    <circle cx="294.20" cy="467.13" r="1.80" style="stroke-width: 0.75; stroke: #FF0000; fill: #FF0000;" onclick="top.colorCounties(103)"/>
    <circle cx="296.26" cy="459.64" r="1.80" style="stroke-width: 0.75; stroke: #FF0000; fill: #FF0000;" onclick="top.colorCounties(104)"/>
    <circle cx="298.32" cy="467.99" r="1.80" style="stroke-width: 0.75; stroke: #FF0000; fill: #FF0000;" onclick="top.colorCounties(105)"/>
    <circle cx="300.37" cy="461.65" r="1.80" style="stroke-width: 0.75; stroke: #FF0000; fill: #FF0000;" onclick="top.colorCounties(106)"/>
    <circle cx="302.43" cy="468.85" r="1.80" style="stroke-width: 0.75; stroke: #FF0000; fill: #FF0000;" onclick="top.colorCounties(107)"/>
    <circle cx="304.48" cy="468.28" r="1.80" style="stroke-width: 0.75; stroke: #FF0000; fill: #FF0000;" onclick="top.colorCounties(108)"/>
    <circle cx="306.54" cy="451.86" r="1.80" style="stroke-width: 0.75; stroke: #FF0000; fill: #FF0000;" onclick="top.colorCounties(109)"/>
    <circle cx="308.60" cy="448.98" r="1.80" style="stroke-width: 0.75; stroke: #FF0000; fill: #FF0000;" onclick="top.colorCounties(110)"/>
    <circle cx="310.65" cy="466.84" r="1.80" style="stroke-width: 0.75; stroke: #FF0000; fill: #FF0000;" onclick="top.colorCounties(111)"/>
    <circle cx="312.71" cy="441.50" r="1.80" style="stroke-width: 0.75; stroke: #FF0000; fill: #FF0000;" onclick="top.colorCounties(112)"/>
    <circle cx="314.77" cy="442.65" r="1.80" style="stroke-width: 0.75; stroke: #FF0000; fill: #FF0000;" onclick="top.colorCounties(113)"/>
    <circle cx="316.82" cy="457.62" r="1.80" style="stroke-width: 0.75; stroke: #FF0000; fill: #FF0000;" onclick="top.colorCounties(114)"/>
    <circle cx="318.88" cy="438.33" r="1.80" style="stroke-width: 0.75; stroke: #FF0000; fill: #FF0000;" onclick="top.colorCounties(115)"/>
    <circle cx="320.94" cy="437.90" r="1.80" style="stroke-width: 0.75; stroke: #FF0000; fill: #FF0000;" onclick="top.colorCounties(116)"/>
    <circle cx="322.99" cy="422.78" r="1.80" style="stroke-width: 0.75; stroke: #FF0000; fill: #FF0000;" onclick="top.colorCounties(117)"/>
    <circle cx="325.05" cy="423.35" r="1.80" style="stroke-width: 0.75; stroke: #FF0000; fill: #FF0000;" onclick="top.colorCounties(118)"/>
    <circle cx="327.10" cy="414.57" r="1.80" style="stroke-width: 0.75; stroke: #FF0000; fill: #FF0000;" onclick="top.colorCounties(119)"/>
    <circle cx="329.16" cy="414.43" r="1.80" style="stroke-width: 0.75; stroke: #FF0000; fill: #FF0000;" onclick="top.colorCounties(120)"/>
    <circle cx="331.22" cy="440.49" r="1.80" style="stroke-width: 0.75; stroke: #FF0000; fill: #FF0000;" onclick="top.colorCounties(121)"/>
    <circle cx="333.27" cy="417.88" r="1.80" style="stroke-width: 0.75; stroke: #FF0000; fill: #FF0000;" onclick="top.colorCounties(122)"/>
    <circle cx="335.33" cy="402.04" r="1.80" style="stroke-width: 0.75; stroke: #FF0000; fill: #FF0000;" onclick="top.colorCounties(123)"/>
    <circle cx="337.39" cy="415.72" r="1.80" style="stroke-width: 0.75; stroke: #FF0000; fill: #FF0000;" onclick="top.colorCounties(124)"/>
    <circle cx="339.44" cy="418.74" r="1.80" style="stroke-width: 0.75; stroke: #FF0000; fill: #FF0000;" onclick="top.colorCounties(125)"/>
    <circle cx="341.50" cy="405.21" r="1.80" style="stroke-width: 0.75; stroke: #FF0000; fill: #FF0000;" onclick="top.colorCounties(126)"/>
    <circle cx="343.55" cy="446.68" r="1.80" style="stroke-width: 0.75; stroke: #FF0000; fill: #FF0000;" onclick="top.colorCounties(127)"/>
    <circle cx="345.61" cy="402.91" r="1.80" style="stroke-width: 0.75; stroke: #FF0000; fill: #FF0000;" onclick="top.colorCounties(128)"/>
    <circle cx="347.67" cy="448.12" r="1.80" style="stroke-width: 0.75; stroke: #FF0000; fill: #FF0000;" onclick="top.colorCounties(129)"/>
    <circle cx="349.72" cy="405.50" r="1.80" style="stroke-width: 0.75; stroke: #FF0000; fill: #FF0000;" onclick="top.colorCounties(130)"/>
    <circle cx="351.78" cy="419.75" r="1.80" style="stroke-width: 0.75; stroke: #FF0000; fill: #FF0000;" onclick="top.colorCounties(131)"/>
    <circle cx="353.84" cy="412.99" r="1.80" style="stroke-width: 0.75; stroke: #FF0000; fill: #FF0000;" onclick="top.colorCounties(132)"/>
    <circle cx="355.89" cy="405.79" r="1.80" style="stroke-width: 0.75; stroke: #FF0000; fill: #FF0000;" onclick="top.colorCounties(133)"/>
    <circle cx="357.95" cy="425.80" r="1.80" style="stroke-width: 0.75; stroke: #FF0000; fill: #FF0000;" onclick="top.colorCounties(134)"/>
    <circle cx="360.01" cy="408.52" r="1.80" style="stroke-width: 0.75; stroke: #FF0000; fill: #FF0000;" onclick="top.colorCounties(135)"/>
    <circle cx="362.06" cy="405.64" r="1.80" style="stroke-width: 0.75; stroke: #FF0000; fill: #FF0000;" onclick="top.colorCounties(136)"/>
    <circle cx="364.12" cy="427.24" r="1.80" style="stroke-width: 0.75; stroke: #FF0000; fill: #FF0000;" onclick="top.colorCounties(137)"/>
    <circle cx="366.17" cy="394.84" r="1.80" style="stroke-width: 0.75; stroke: #FF0000; fill: #FF0000;" onclick="top.colorCounties(138)"/>
    <circle cx="368.23" cy="396.14" r="1.80" style="stroke-width: 0.75; stroke: #FF0000; fill: #FF0000;" onclick="top.colorCounties(139)"/>
    <circle cx="370.29" cy="404.35" r="1.80" style="stroke-width: 0.75; stroke: #FF0000; fill: #FF0000;" onclick="top.colorCounties(140)"/>
    <circle cx="372.34" cy="420.90" r="1.80" style="stroke-width: 0.75; stroke: #FF0000; fill: #FF0000;" onclick="top.colorCounties(141)"/>
    <circle cx="374.40" cy="430.70" r="1.80" style="stroke-width: 0.75; stroke: #FF0000; fill: #FF0000;" onclick="top.colorCounties(142)"/>
    <circle cx="376.46" cy="401.61" r="1.80" style="stroke-width: 0.75; stroke: #FF0000; fill: #FF0000;" onclick="top.colorCounties(143)"/>
    <circle cx="378.51" cy="413.99" r="1.80" style="stroke-width: 0.75; stroke: #FF0000; fill: #FF0000;" onclick="top.colorCounties(144)"/>
    <circle cx="380.57" cy="415.58" r="1.80" style="stroke-width: 0.75; stroke: #FF0000; fill: #FF0000;" onclick="top.colorCounties(145)"/>
    <circle cx="382.63" cy="399.31" r="1.80" style="stroke-width: 0.75; stroke: #FF0000; fill: #FF0000;" onclick="top.colorCounties(146)"/>
    <circle cx="384.68" cy="445.38" r="1.80" style="stroke-width: 0.75; stroke: #FF0000; fill: #FF0000;" onclick="top.colorCounties(147)"/>
    <circle cx="386.74" cy="410.83" r="1.80" style="stroke-width: 0.75; stroke: #FF0000; fill: #FF0000;" onclick="top.colorCounties(148)"/>
    <circle cx="388.79" cy="414.43" r="1.80" style="stroke-width: 0.75; stroke: #FF0000; fill: #FF0000;" onclick="top.colorCounties(149)"/>
    <circle cx="390.85" cy="445.53" r="1.80" style="stroke-width: 0.75; stroke: #FF0000; fill: #FF0000;" onclick="top.colorCounties(150)"/>
    <circle cx="392.91" cy="431.27" r="1.80" style="stroke-width: 0.75; stroke: #FF0000; fill: #FF0000;" onclick="top.colorCounties(151)"/>
    <circle cx="394.96" cy="431.42" r="1.80" style="stroke-width: 0.75; stroke: #FF0000; fill: #FF0000;" onclick="top.colorCounties(152)"/>
    <circle cx="397.02" cy="409.96" r="1.80" style="stroke-width: 0.75; stroke: #FF0000; fill: #FF0000;" onclick="top.colorCounties(153)"/>
    <circle cx="399.08" cy="442.07" r="1.80" style="stroke-width: 0.75; stroke: #FF0000; fill: #FF0000;" onclick="top.colorCounties(154)"/>
    <circle cx="401.13" cy="436.74" r="1.80" style="stroke-width: 0.75; stroke: #FF0000; fill: #FF0000;" onclick="top.colorCounties(155)"/>
    <circle cx="403.19" cy="444.38" r="1.80" style="stroke-width: 0.75; stroke: #FF0000; fill: #FF0000;" onclick="top.colorCounties(156)"/>
    <circle cx="405.25" cy="436.02" r="1.80" style="stroke-width: 0.75; stroke: #FF0000; fill: #FF0000;" onclick="top.colorCounties(157)"/>
    <circle cx="407.30" cy="448.26" r="1.80" style="stroke-width: 0.75; stroke: #FF0000; fill: #FF0000;" onclick="top.colorCounties(158)"/>
    <circle cx="409.36" cy="392.25" r="1.80" style="stroke-width: 0.75; stroke: #FF0000; fill: #FF0000;" onclick="top.colorCounties(159)"/>
    <circle cx="411.41" cy="406.79" r="1.80" style="stroke-width: 0.75; stroke: #FF0000; fill: #FF0000;" onclick="top.colorCounties(160)"/>
    <circle cx="413.47" cy="426.09" r="1.80" style="stroke-width: 0.75; stroke: #FF0000; fill: #FF0000;" onclick="top.colorCounties(161)"/>
    <circle cx="415.53" cy="453.30" r="1.80" style="stroke-width: 0.75; stroke: #FF0000; fill: #FF0000;" onclick="top.colorCounties(162)"/>
    <circle cx="417.58" cy="459.93" r="1.80" style="stroke-width: 0.75; stroke: #FF0000; fill: #FF0000;" onclick="top.colorCounties(163)"/>
    <circle cx="419.64" cy="452.15" r="1.80" style="stroke-width: 0.75; stroke: #FF0000; fill: #FF0000;" onclick="top.colorCounties(164)"/>
    <circle cx="421.70" cy="447.83" r="1.80" style="stroke-width: 0.75; stroke: #FF0000; fill: #FF0000;" onclick="top.colorCounties(165)"/>
    <circle cx="423.75" cy="427.67" r="1.80" style="stroke-width: 0.75; stroke: #FF0000; fill: #FF0000;" onclick="top.colorCounties(166)"/>
    <circle cx="425.81" cy="445.96" r="1.80" style="stroke-width: 0.75; stroke: #FF0000; fill: #FF0000;" onclick="top.colorCounties(167)"/>
    <circle cx="427.86" cy="438.04" r="1.80" style="stroke-width: 0.75; stroke: #FF0000; fill: #FF0000;" onclick="top.colorCounties(168)"/>
    <circle cx="429.92" cy="445.53" r="1.80" style="stroke-width: 0.75; stroke: #FF0000; fill: #FF0000;" onclick="top.colorCounties(169)"/>
    <circle cx="431.98" cy="457.05" r="1.80" style="stroke-width: 0.75; stroke: #FF0000; fill: #FF0000;" onclick="top.colorCounties(170)"/>
    <circle cx="434.03" cy="455.32" r="1.80" style="stroke-width: 0.75; stroke: #FF0000; fill: #FF0000;" onclick="top.colorCounties(171)"/>
    <circle cx="436.09" cy="452.73" r="1.80" style="stroke-width: 0.75; stroke: #FF0000; fill: #FF0000;" onclick="top.colorCounties(172)"/>
    <circle cx="438.15" cy="442.36" r="1.80" style="stroke-width: 0.75; stroke: #FF0000; fill: #FF0000;" onclick="top.colorCounties(173)"/>
    <circle cx="440.20" cy="444.23" r="1.80" style="stroke-width: 0.75; stroke: #FF0000; fill: #FF0000;" onclick="top.colorCounties(174)"/>
    <circle cx="442.26" cy="437.61" r="1.80" style="stroke-width: 0.75; stroke: #FF0000; fill: #FF0000;" onclick="top.colorCounties(175)"/>
    <circle cx="444.32" cy="459.21" r="1.80" style="stroke-width: 0.75; stroke: #FF0000; fill: #FF0000;" onclick="top.colorCounties(176)"/>
    <circle cx="446.37" cy="447.69" r="1.80" style="stroke-width: 0.75; stroke: #FF0000; fill: #FF0000;" onclick="top.colorCounties(177)"/>
    <circle cx="448.43" cy="453.30" r="1.80" style="stroke-width: 0.75; stroke: #FF0000; fill: #FF0000;" onclick="top.colorCounties(178)"/>
    <circle cx="450.48" cy="446.25" r="1.80" style="stroke-width: 0.75; stroke: #FF0000; fill: #FF0000;" onclick="top.colorCounties(179)"/>
    <circle cx="452.54" cy="445.10" r="1.80" style="stroke-width: 0.75; stroke: #FF0000; fill: #FF0000;" onclick="top.colorCounties(180)"/>
    <circle cx="454.60" cy="448.26" r="1.80" style="stroke-width: 0.75; stroke: #FF0000; fill: #FF0000;" onclick="top.colorCounties(181)"/>
    <circle cx="456.65" cy="449.70" r="1.80" style="stroke-width: 0.75; stroke: #FF0000; fill: #FF0000;" onclick="top.colorCounties(182)"/>
    <circle cx="458.71" cy="442.36" r="1.80" style="stroke-width: 0.75; stroke: #FF0000; fill: #FF0000;" onclick="top.colorCounties(183)"/>
    <circle cx="460.77" cy="447.69" r="1.80" style="stroke-width: 0.75; stroke: #FF0000; fill: #FF0000;" onclick="top.colorCounties(184)"/>
    <circle cx="462.82" cy="450.14" r="1.80" style="stroke-width: 0.75; stroke: #FF0000; fill: #FF0000;" onclick="top.colorCounties(185)"/>
    <circle cx="464.88" cy="439.34" r="1.80" style="stroke-width: 0.75; stroke: #FF0000; fill: #FF0000;" onclick="top.colorCounties(186)"/>
    <circle cx="466.94" cy="420.90" r="1.80" style="stroke-width: 0.75; stroke: #FF0000; fill: #FF0000;" onclick="top.colorCounties(187)"/>
    <circle cx="468.99" cy="422.34" r="1.80" style="stroke-width: 0.75; stroke: #FF0000; fill: #FF0000;" onclick="top.colorCounties(188)"/>
    <circle cx="471.05" cy="441.78" r="1.80" style="stroke-width: 0.75; stroke: #FF0000; fill: #FF0000;" onclick="top.colorCounties(189)"/>
    <circle cx="473.10" cy="485.85" r="1.80" style="stroke-width: 0.75; stroke: #FF0000; fill: #FF0000;" onclick="top.colorCounties(190)"/>
    <circle cx="475.16" cy="424.94" r="1.80" style="stroke-width: 0.75; stroke: #FF0000; fill: #FF0000;" onclick="top.colorCounties(191)"/>
    <circle cx="477.22" cy="450.57" r="1.80" style="stroke-width: 0.75; stroke: #FF0000; fill: #FF0000;" onclick="top.colorCounties(192)"/>
    <circle cx="479.27" cy="445.24" r="1.80" style="stroke-width: 0.75; stroke: #FF0000; fill: #FF0000;" onclick="top.colorCounties(193)"/>
    <circle cx="481.33" cy="434.15" r="1.80" style="stroke-width: 0.75; stroke: #FF0000; fill: #FF0000;" onclick="top.colorCounties(194)"/>
    <circle cx="483.39" cy="422.06" r="1.80" style="stroke-width: 0.75; stroke: #FF0000; fill: #FF0000;" onclick="top.colorCounties(195)"/>
    <circle cx="485.44" cy="447.98" r="1.80" style="stroke-width: 0.75; stroke: #FF0000; fill: #FF0000;" onclick="top.colorCounties(196)"/>
    <circle cx="487.50" cy="456.18" r="1.80" style="stroke-width: 0.75; stroke: #FF0000; fill: #FF0000;" onclick="top.colorCounties(197)"/>
    <circle cx="489.55" cy="443.80" r="1.80" style="stroke-width: 0.75; stroke: #FF0000; fill: #FF0000;" onclick="top.colorCounties(198)"/>
    <circle cx="491.61" cy="448.12" r="1.80" style="stroke-width: 0.75; stroke: #FF0000; fill: #FF0000;" onclick="top.colorCounties(199)"/>
    <circle cx="493.67" cy="461.08" r="1.80" style="stroke-width: 0.75; stroke: #FF0000; fill: #FF0000;" onclick="top.colorCounties(200)"/>
    <circle cx="495.72" cy="430.26" r="1.80" style="stroke-width: 0.75; stroke: #FF0000; fill: #FF0000;" onclick="top.colorCounties(201)"/>
    <circle cx="497.78" cy="444.95" r="1.80" style="stroke-width: 0.75; stroke: #FF0000; fill: #FF0000;" onclick="top.colorCounties(202)"/>
    <circle cx="499.84" cy="445.24" r="1.80" style="stroke-width: 0.75; stroke: #FF0000; fill: #FF0000;" onclick="top.colorCounties(203)"/>
    <circle cx="501.89" cy="436.02" r="1.80" style="stroke-width: 0.75; stroke: #FF0000; fill: #FF0000;" onclick="top.colorCounties(204)"/>
    <circle cx="503.95" cy="454.17" r="1.80" style="stroke-width: 0.75; stroke: #FF0000; fill: #FF0000;" onclick="top.colorCounties(205)"/>
    <circle cx="506.01" cy="446.10" r="1.80" style="stroke-width: 0.75; stroke: #FF0000; fill: #FF0000;" onclick="top.colorCounties(206)"/>
    <circle cx="508.06" cy="461.51" r="1.80" style="stroke-width: 0.75; stroke: #FF0000; fill: #FF0000;" onclick="top.colorCounties(207)"/>
    <circle cx="510.12" cy="427.82" r="1.80" style="stroke-width: 0.75; stroke: #FF0000; fill: #FF0000;" onclick="top.colorCounties(208)"/>
    <circle cx="512.17" cy="438.62" r="1.80" style="stroke-width: 0.75; stroke: #FF0000; fill: #FF0000;" onclick="top.colorCounties(209)"/>
    <circle cx="514.23" cy="445.96" r="1.80" style="stroke-width: 0.75; stroke: #FF0000; fill: #FF0000;" onclick="top.colorCounties(210)"/>
    <circle cx="516.29" cy="468.28" r="1.80" style="stroke-width: 0.75; stroke: #FF0000; fill: #FF0000;" onclick="top.colorCounties(211)"/>
    <circle cx="518.34" cy="449.99" r="1.80" style="stroke-width: 0.75; stroke: #FF0000; fill: #FF0000;" onclick="top.colorCounties(212)"/>
    <circle cx="520.40" cy="458.05" r="1.80" style="stroke-width: 0.75; stroke: #FF0000; fill: #FF0000;" onclick="top.colorCounties(213)"/>
    <circle cx="522.46" cy="442.22" r="1.80" style="stroke-width: 0.75; stroke: #FF0000; fill: #FF0000;" onclick="top.colorCounties(214)"/>
    <circle cx="524.51" cy="442.07" r="1.80" style="stroke-width: 0.75; stroke: #FF0000; fill: #FF0000;" onclick="top.colorCounties(215)"/>
    <circle cx="526.57" cy="427.24" r="1.80" style="stroke-width: 0.75; stroke: #FF0000; fill: #FF0000;" onclick="top.colorCounties(216)"/>
    <circle cx="528.63" cy="452.15" r="1.80" style="stroke-width: 0.75; stroke: #FF0000; fill: #FF0000;" onclick="top.colorCounties(217)"/>
    <circle cx="530.68" cy="453.88" r="1.80" style="stroke-width: 0.75; stroke: #FF0000; fill: #FF0000;" onclick="top.colorCounties(218)"/>
    <circle cx="532.74" cy="462.95" r="1.80" style="stroke-width: 0.75; stroke: #FF0000; fill: #FF0000;" onclick="top.colorCounties(219)"/>
    <circle cx="534.79" cy="435.16" r="1.80" style="stroke-width: 0.75; stroke: #FF0000; fill: #FF0000;" onclick="top.colorCounties(220)"/>
    <circle cx="536.85" cy="444.23" r="1.80" style="stroke-width: 0.75; stroke: #FF0000; fill: #FF0000;" onclick="top.colorCounties(221)"/>
    <circle cx="538.91" cy="434.73" r="1.80" style="stroke-width: 0.75; stroke: #FF0000; fill: #FF0000;" onclick="top.colorCounties(222)"/>
    <circle cx="540.96" cy="440.06" r="1.80" style="stroke-width: 0.75; stroke: #FF0000; fill: #FF0000;" onclick="top.colorCounties(223)"/>
    <circle cx="543.02" cy="427.38" r="1.80" style="stroke-width: 0.75; stroke: #FF0000; fill: #FF0000;" onclick="top.colorCounties(224)"/>
    <circle cx="545.08" cy="458.05" r="1.80" style="stroke-width: 0.75; stroke: #FF0000; fill: #FF0000;" onclick="top.colorCounties(225)"/>
    <circle cx="547.13" cy="446.10" r="1.80" style="stroke-width: 0.75; stroke: #FF0000; fill: #FF0000;" onclick="top.colorCounties(226)"/>
    <circle cx="549.19" cy="442.50" r="1.80" style="stroke-width: 0.75; stroke: #FF0000; fill: #FF0000;" onclick="top.colorCounties(227)"/>
    <circle cx="551.25" cy="465.54" r="1.80" style="stroke-width: 0.75; stroke: #FF0000; fill: #FF0000;" onclick="top.colorCounties(228)"/>
    <circle cx="553.30" cy="441.35" r="1.80" style="stroke-width: 0.75; stroke: #FF0000; fill: #FF0000;" onclick="top.colorCounties(229)"/>
    <circle cx="555.36" cy="457.19" r="1.80" style="stroke-width: 0.75; stroke: #FF0000; fill: #FF0000;" onclick="top.colorCounties(230)"/>
    <circle cx="557.41" cy="432.42" r="1.80" style="stroke-width: 0.75; stroke: #FF0000; fill: #FF0000;" onclick="top.colorCounties(231)"/>
    <circle cx="559.47" cy="431.42" r="1.80" style="stroke-width: 0.75; stroke: #FF0000; fill: #FF0000;" onclick="top.colorCounties(232)"/>
    <circle cx="561.53" cy="447.98" r="1.80" style="stroke-width: 0.75; stroke: #FF0000; fill: #FF0000;" onclick="top.colorCounties(233)"/>
    <circle cx="563.58" cy="448.26" r="1.80" style="stroke-width: 0.75; stroke: #FF0000; fill: #FF0000;" onclick="top.colorCounties(234)"/>
    <circle cx="565.64" cy="452.30" r="1.80" style="stroke-width: 0.75; stroke: #FF0000; fill: #FF0000;" onclick="top.colorCounties(235)"/>
    <circle cx="567.70" cy="424.22" r="1.80" style="stroke-width: 0.75; stroke: #FF0000; fill: #FF0000;" onclick="top.colorCounties(236)"/>
    <circle cx="569.75" cy="430.55" r="1.80" style="stroke-width: 0.75; stroke: #FF0000; fill: #FF0000;" onclick="top.colorCounties(237)"/>
    <circle cx="571.81" cy="447.40" r="1.80" style="stroke-width: 0.75; stroke: #FF0000; fill: #FF0000;" onclick="top.colorCounties(238)"/>
    <circle cx="573.86" cy="434.58" r="1.80" style="stroke-width: 0.75; stroke: #FF0000; fill: #FF0000;" onclick="top.colorCounties(239)"/>
    <circle cx="575.92" cy="447.40" r="1.80" style="stroke-width: 0.75; stroke: #FF0000; fill: #FF0000;" onclick="top.colorCounties(240)"/>
    <circle cx="577.98" cy="438.62" r="1.80" style="stroke-width: 0.75; stroke: #FF0000; fill: #FF0000;" onclick="top.colorCounties(241)"/>
    <circle cx="580.03" cy="434.58" r="1.80" style="stroke-width: 0.75; stroke: #FF0000; fill: #FF0000;" onclick="top.colorCounties(242)"/>
    <circle cx="582.09" cy="418.31" r="1.80" style="stroke-width: 0.75; stroke: #FF0000; fill: #FF0000;" onclick="top.colorCounties(243)"/>
    <circle cx="584.15" cy="431.27" r="1.80" style="stroke-width: 0.75; stroke: #FF0000; fill: #FF0000;" onclick="top.colorCounties(244)"/>
    <circle cx="586.20" cy="435.45" r="1.80" style="stroke-width: 0.75; stroke: #FF0000; fill: #FF0000;" onclick="top.colorCounties(245)"/>
    <circle cx="588.26" cy="441.93" r="1.80" style="stroke-width: 0.75; stroke: #FF0000; fill: #FF0000;" onclick="top.colorCounties(246)"/>
    <circle cx="590.32" cy="443.94" r="1.80" style="stroke-width: 0.75; stroke: #FF0000; fill: #FF0000;" onclick="top.colorCounties(247)"/>
    <circle cx="592.37" cy="427.96" r="1.80" style="stroke-width: 0.75; stroke: #FF0000; fill: #FF0000;" onclick="top.colorCounties(248)"/>
    <circle cx="594.43" cy="409.82" r="1.80" style="stroke-width: 0.75; stroke: #FF0000; fill: #FF0000;" onclick="top.colorCounties(249)"/>
    <circle cx="596.48" cy="417.02" r="1.80" style="stroke-width: 0.75; stroke: #FF0000; fill: #FF0000;" onclick="top.colorCounties(250)"/>
    <circle cx="598.54" cy="408.38" r="1.80" style="stroke-width: 0.75; stroke: #FF0000; fill: #FF0000;" onclick="top.colorCounties(251)"/>
    <circle cx="600.60" cy="412.27" r="1.80" style="stroke-width: 0.75; stroke: #FF0000; fill: #FF0000;" onclick="top.colorCounties(252)"/>
    <circle cx="602.65" cy="428.39" r="1.80" style="stroke-width: 0.75; stroke: #FF0000; fill: #FF0000;" onclick="top.colorCounties(253)"/>
    <circle cx="604.71" cy="416.58" r="1.80" style="stroke-width: 0.75; stroke: #FF0000; fill: #FF0000;" onclick="top.colorCounties(254)"/>
    <circle cx="606.77" cy="481.53" r="1.80" style="stroke-width: 0.75; stroke: #FF0000; fill: #FF0000;" onclick="top.colorCounties(255)"/>
    <circle cx="608.82" cy="306.29" r="1.80" style="stroke-width: 0.75; stroke: #FF0000; fill: #FF0000;" onclick="top.colorCounties(256)"/>
    <circle cx="610.88" cy="398.15" r="1.80" style="stroke-width: 0.75; stroke: #FF0000; fill: #FF0000;" onclick="top.colorCounties(257)"/>
    <circle cx="612.94" cy="380.15" r="1.80" style="stroke-width: 0.75; stroke: #FF0000; fill: #FF0000;" onclick="top.colorCounties(258)"/>
    <circle cx="614.99" cy="329.61" r="1.80" style="stroke-width: 0.75; stroke: #FF0000; fill: #FF0000;" onclick="top.colorCounties(259)"/>
    <circle cx="617.05" cy="366.19" r="1.80" style="stroke-width: 0.75; stroke: #FF0000; fill: #FF0000;" onclick="top.colorCounties(260)"/>
    <circle cx="619.10" cy="382.75" r="1.80" style="stroke-width: 0.75; stroke: #FF0000; fill: #FF0000;" onclick="top.colorCounties(261)"/>
    <circle cx="621.16" cy="353.37" r="1.80" style="stroke-width: 0.75; stroke: #FF0000; fill: #FF0000;" onclick="top.colorCounties(262)"/>
    <circle cx="623.22" cy="356.68" r="1.80" style="stroke-width: 0.75; stroke: #FF0000; fill: #FF0000;" onclick="top.colorCounties(263)"/>
    <circle cx="625.27" cy="329.04" r="1.80" style="stroke-width: 0.75; stroke: #FF0000; fill: #FF0000;" onclick="top.colorCounties(264)"/>
    <circle cx="627.33" cy="273.31" r="1.80" style="stroke-width: 0.75; stroke: #FF0000; fill: #FF0000;" onclick="top.colorCounties(265)"/>
    <circle cx="629.39" cy="350.92" r="1.80" style="stroke-width: 0.75; stroke: #FF0000; fill: #FF0000;" onclick="top.colorCounties(266)"/>
    <circle cx="631.44" cy="318.09" r="1.80" style="stroke-width: 0.75; stroke: #FF0000; fill: #FF0000;" onclick="top.colorCounties(267)"/>
    <circle cx="633.50" cy="263.52" r="1.80" style="stroke-width: 0.75; stroke: #FF0000; fill: #FF0000;" onclick="top.colorCounties(268)"/>
    <circle cx="635.55" cy="350.20" r="1.80" style="stroke-width: 0.75; stroke: #FF0000; fill: #FF0000;" onclick="top.colorCounties(269)"/>
    <circle cx="637.61" cy="485.85" r="1.80" style="stroke-width: 0.75; stroke: #FF0000; fill: #FF0000;" onclick="top.colorCounties(270)"/>
    <circle cx="639.67" cy="75.47" r="1.80" style="stroke-width: 0.75; stroke: #FF0000; fill: #FF0000;" onclick="top.colorCounties(271)"/>
    <circle cx="641.72" cy="218.45" r="1.80" style="stroke-width: 0.75; stroke: #FF0000; fill: #FF0000;" onclick="top.colorCounties(272)"/>
    <circle cx="643.78" cy="485.85" r="1.80" style="stroke-width: 0.75; stroke: #FF0000; fill: #FF0000;" onclick="top.colorCounties(273)"/>
    <circle cx="645.84" cy="194.84" r="1.80" style="stroke-width: 0.75; stroke: #FF0000; fill: #FF0000;" onclick="top.colorCounties(274)"/>
    <circle cx="647.89" cy="287.71" r="1.80" style="stroke-width: 0.75; stroke: #FF0000; fill: #FF0000;" onclick="top.colorCounties(275)"/>
    <circle cx="649.95" cy="310.89" r="1.80" style="stroke-width: 0.75; stroke: #FF0000; fill: #FF0000;" onclick="top.colorCounties(276)"/>
    <circle cx="652.01" cy="269.57" r="1.80" style="stroke-width: 0.75; stroke: #FF0000; fill: #FF0000;" onclick="top.colorCounties(277)"/>
    <circle cx="654.06" cy="192.53" r="1.80" style="stroke-width: 0.75; stroke: #FF0000; fill: #FF0000;" onclick="top.colorCounties(278)"/>
    <circle cx="656.12" cy="156.82" r="1.80" style="stroke-width: 0.75; stroke: #FF0000; fill: #FF0000;" onclick="top.colorCounties(279)"/>
    <circle cx="658.17" cy="240.91" r="1.80" style="stroke-width: 0.75; stroke: #FF0000; fill: #FF0000;" onclick="top.colorCounties(280)"/>
    <circle cx="660.23" cy="198.44" r="1.80" style="stroke-width: 0.75; stroke: #FF0000; fill: #FF0000;" onclick="top.colorCounties(281)"/>
    <circle cx="662.29" cy="302.40" r="1.80" style="stroke-width: 0.75; stroke: #FF0000; fill: #FF0000;" onclick="top.colorCounties(282)"/>
    <circle cx="664.34" cy="183.17" r="1.80" style="stroke-width: 0.75; stroke: #FF0000; fill: #FF0000;" onclick="top.colorCounties(283)"/>
    <circle cx="666.40" cy="190.95" r="1.80" style="stroke-width: 0.75; stroke: #FF0000; fill: #FF0000;" onclick="top.colorCounties(284)"/>
  </g>
</svg>
