<?xml version="1.0" encoding="UTF-8"?>
<svg xmlns="http://www.w3.org/2000/svg" xmlns:xlink="http://www.w3.org/1999/xlink" class="svglite" width="720.00pt" height="576.00pt" viewBox="0 0 720.00 576.00">
  <defs>
    <style type="text/css"><![CDATA[
    .svglite line, .svglite polyline, .svglite polygon, .svglite path, .svglite rect, .svglite circle {
      fill: none;
      stroke: #000000;
      stroke-linecap: round;
      stroke-linejoin: round;
      stroke-miterlimit: 10.00;
    }
    .svglite text {
      white-space: pre;
    }
  ]]></style>
  </defs>
  <rect width="100%" height="100%" style="stroke: none; fill: #FFFFFF;"/>
  <defs>
    <clipPath id="cpMC4wMHw3MjAuMDB8MC4wMHw1NzYuMDA=">
      <rect x="0.00" y="0.00" width="720.00" height="576.00"/>
    </clipPath>
  </defs>
  <g clip-path="url(#cpMC4wMHw3MjAuMDB8MC4wMHw1NzYuMDA=)">
</g>
  <defs>
    <clipPath id="cpNTkuMDR8Njg5Ljc2fDU5LjA0fDUwMi41Ng==">
      <rect x="59.04" y="59.04" width="630.72" height="443.52"/>
    </clipPath>
  </defs>
  <g clip-path="url(#cpNTkuMDR8Njg5Ljc2fDU5LjA0fDUwMi41Ng==)">
    <polyline points="82.40,470.15 84.46,470.15 86.51,470.15 88.57,470.15 90.63,467.69 92.68,470.15 94.74,462.77 96.79,470.15 98.85,464.00 100.91,468.92 102.96,470.15 105.02,465.23 107.08,464.00 109.13,464.00 111.19,462.77 113.25,462.77 115.30,466.46 117.36,464.00 119.41,443.10 121.47,462.77 123.53,464.00 125.58,436.95 127.64,441.87 129.70,448.02 131.75,434.49 133.81,414.82 135.86,401.30 137.92,438.18 139.98,427.12 142.03,432.03 144.09,438.18 146.15,424.66 148.20,454.17 150.26,408.67 152.32,434.49 154.37,418.51 156.43,451.71 158.48,425.89 160.54,400.07 162.60,411.13 164.65,380.39 166.71,396.38 168.77,451.71 170.82,365.64 172.88,433.26 174.94,438.18 176.99,462.77 179.05,422.20 181.10,373.02 183.16,445.56 185.22,397.61 187.27,451.71 189.33,467.69 191.39,385.31 193.44,423.43 195.50,452.94 197.55,403.75 199.61,450.48 201.67,416.05 203.72,446.79 205.78,455.39 207.84,440.64 209.89,438.18 211.95,371.79 214.01,396.38 216.06,386.54 218.12,446.79 220.17,436.95 222.23,408.67 224.29,423.43 226.34,406.21 228.40,456.62 230.46,441.87 232.51,449.25 234.57,457.85 236.63,439.41 238.68,429.57 240.74,430.80 242.79,423.43 244.85,407.44 246.91,466.46 248.96,454.17 251.02,321.37 253.08,433.26 255.13,449.25 257.19,446.79 259.25,454.17 261.30,459.08 263.36,434.49 265.41,425.89 267.47,397.61 269.53,438.18 271.58,455.39 273.64,449.25 275.70,438.18 277.75,432.03 279.81,403.75 281.86,452.94 283.92,427.12 285.98,430.80 288.03,452.94 290.09,450.48 292.15,432.03 294.20,424.66 296.26,434.49 298.32,443.10 300.37,440.64 302.43,446.79 304.48,456.62 306.54,423.43 308.60,424.66 310.65,468.92 312.71,470.15 314.77,314.00 316.82,428.34 318.88,433.26 320.94,411.13 322.99,343.51 325.05,386.54 327.10,416.05 329.16,409.90 331.22,418.51 333.27,414.82 335.33,382.85 337.39,470.15 339.44,393.92 341.50,371.79 343.55,309.08 345.61,435.72 347.67,407.44 349.72,379.16 351.78,259.90 353.84,334.90 355.89,352.11 357.95,386.54 360.01,408.67 362.06,401.30 364.12,268.50 366.17,328.75 368.23,296.78 370.29,364.41 372.34,343.51 374.40,398.84 376.46,352.11 378.51,341.05 380.57,328.75 382.63,337.36 384.68,291.87 386.74,359.49 388.79,417.28 390.85,307.85 392.91,192.27 394.96,283.26 397.02,288.18 399.08,361.95 401.13,341.05 403.19,380.39 405.25,357.03 407.30,289.41 409.36,349.65 411.41,339.82 413.47,327.52 415.53,377.93 417.58,470.15 419.64,210.72 421.70,334.90 423.75,336.13 425.81,342.28 427.86,304.16 429.92,403.75 431.98,370.56 434.03,345.97 436.09,368.10 438.15,358.26 440.20,360.72 442.26,371.79 444.32,390.23 446.37,414.82 448.43,373.02 450.48,360.72 452.54,389.00 454.60,305.39 456.65,373.02 458.71,389.00 460.77,408.67 462.82,380.39 464.88,373.02 466.94,397.61 468.99,366.87 471.05,376.70 473.10,391.46 475.16,470.15 477.22,353.34 479.27,413.59 481.33,386.54 483.39,377.93 485.44,422.20 487.50,376.70 489.55,406.21 491.61,396.38 493.67,373.02 495.72,382.85 497.78,401.30 499.84,409.90 501.89,393.92 503.95,398.84 506.01,425.89 508.06,414.82 510.12,357.03 512.17,423.43 514.23,387.77 516.29,406.21 518.34,417.28 520.40,424.66 522.46,400.07 524.51,435.72 526.57,403.75 528.63,395.15 530.68,464.00 532.74,439.41 534.79,435.72 536.85,448.02 538.91,400.07 540.96,455.39 543.02,417.28 545.08,466.46 547.13,439.41 549.19,444.33 551.25,382.85 553.30,439.41 555.36,430.80 557.41,424.66 559.47,440.64 561.53,425.89 563.58,376.70 565.64,486.13 567.70,430.80 569.75,424.66 571.81,428.34 573.86,409.90 575.92,424.66 577.98,406.21 580.03,425.89 582.09,417.28 584.15,373.02 586.20,402.52 588.26,403.75 590.32,413.59 592.37,414.82 594.43,387.77 596.48,363.18 598.54,338.59 600.60,322.60 602.65,345.97 604.71,398.84 606.77,382.85 608.82,349.65 610.88,352.11 612.94,332.44 614.99,286.95 617.05,357.03 619.10,359.49 621.16,341.05 623.22,341.05 625.27,231.62 627.33,376.70 629.39,325.06 631.44,350.88 633.50,322.60 635.55,209.49 637.61,250.06 639.67,343.51 641.72,198.42 643.78,380.39 645.84,321.37 647.89,386.54 649.95,275.88 652.01,149.24 654.06,251.29 656.12,146.78 658.17,117.27 660.23,75.47 662.29,331.21 664.34,268.50 666.40,170.14 " style="stroke-width: 0.75;"/>
  </g>
  <g clip-path="url(#cpMC4wMHw3MjAuMDB8MC4wMHw1NzYuMDA=)">
    <line x1="146.15" y1="502.56" x2="522.46" y2="502.56" style="stroke-width: 0.75;"/>
    <line x1="146.15" y1="502.56" x2="146.15" y2="509.76" style="stroke-width: 0.75;"/>
    <line x1="333.27" y1="502.56" x2="333.27" y2="509.76" style="stroke-width: 0.75;"/>
    <line x1="522.46" y1="502.56" x2="522.46" y2="509.76" style="stroke-width: 0.75;"/>
    <text x="146.15" y="528.48" text-anchor="middle" style="font-size: 12.00px; font-family: &quot;Arial&quot;;" textLength="18.68px" lengthAdjust="spacingAndGlyphs">Apr</text>
    <text x="333.27" y="528.48" text-anchor="middle" style="font-size: 12.00px; font-family: &quot;Arial&quot;;" textLength="15.34px" lengthAdjust="spacingAndGlyphs">Jul</text>
    <text x="522.46" y="528.48" text-anchor="middle" style="font-size: 12.00px; font-family: &quot;Arial&quot;;" textLength="18.66px" lengthAdjust="spacingAndGlyphs">Oct</text>
    <line x1="59.04" y1="470.15" x2="59.04" y2="101.29" style="stroke-width: 0.75;"/>
    <line x1="59.04" y1="470.15" x2="51.84" y2="470.15" style="stroke-width: 0.75;"/>
    <line x1="59.04" y1="408.67" x2="51.84" y2="408.67" style="stroke-width: 0.75;"/>
    <line x1="59.04" y1="347.20" x2="51.84" y2="347.20" style="stroke-width: 0.75;"/>
    <line x1="59.04" y1="285.72" x2="51.84" y2="285.72" style="stroke-width: 0.75;"/>
    <line x1="59.04" y1="224.24" x2="51.84" y2="224.24" style="stroke-width: 0.75;"/>
    <line x1="59.04" y1="162.76" x2="51.84" y2="162.76" style="stroke-width: 0.75;"/>
    <line x1="59.04" y1="101.29" x2="51.84" y2="101.29" style="stroke-width: 0.75;"/>
    <text transform="translate(41.76,470.15) rotate(-90)" text-anchor="middle" style="font-size: 12.00px; font-family: &quot;Arial&quot;;" textLength="6.67px" lengthAdjust="spacingAndGlyphs">0</text>
    <text transform="translate(41.76,408.67) rotate(-90)" text-anchor="middle" style="font-size: 12.00px; font-family: &quot;Arial&quot;;" textLength="13.35px" lengthAdjust="spacingAndGlyphs">50</text>
    <text transform="translate(41.76,347.20) rotate(-90)" text-anchor="middle" style="font-size: 12.00px; font-family: &quot;Arial&quot;;" textLength="20.02px" lengthAdjust="spacingAndGlyphs">100</text>
    <text transform="translate(41.76,285.72) rotate(-90)" text-anchor="middle" style="font-size: 12.00px; font-family: &quot;Arial&quot;;" textLength="20.02px" lengthAdjust="spacingAndGlyphs">150</text>
    <text transform="translate(41.76,224.24) rotate(-90)" text-anchor="middle" style="font-size: 12.00px; font-family: &quot;Arial&quot;;" textLength="20.02px" lengthAdjust="spacingAndGlyphs">200</text>
    <text transform="translate(41.76,162.76) rotate(-90)" text-anchor="middle" style="font-size: 12.00px; font-family: &quot;Arial&quot;;" textLength="20.02px" lengthAdjust="spacingAndGlyphs">250</text>
    <text transform="translate(41.76,101.29) rotate(-90)" text-anchor="middle" style="font-size: 12.00px; font-family: &quot;Arial&quot;;" textLength="20.02px" lengthAdjust="spacingAndGlyphs">300</text>
    <polygon points="59.04,502.56 689.76,502.56 689.76,59.04 59.04,59.04 " style="stroke-width: 0.75;"/>
    <text x="374.40" y="34.70" text-anchor="middle" style="font-size: 14.40px; font-weight: bold; font-family: &quot;Arial&quot;;" textLength="98.39px" lengthAdjust="spacingAndGlyphs">San Francisco</text>
    <text x="374.40" y="557.28" text-anchor="middle" style="font-size: 12.00px; font-family: &quot;Arial&quot;;" textLength="25.35px" lengthAdjust="spacingAndGlyphs">Date</text>
    <text transform="translate(12.96,280.80) rotate(-90)" text-anchor="middle" style="font-size: 12.00px; font-family: &quot;Arial&quot;;" textLength="93.37px" lengthAdjust="spacingAndGlyphs">Number of Cases</text>
  </g>
  <g clip-path="url(#cpNTkuMDR8Njg5Ljc2fDU5LjA0fDUwMi41Ng==)">
    <circle cx="82.40" cy="470.15" r="1.80" style="stroke-width: 0.75; stroke: #FF0000; fill: #FF0000;" onclick="top.colorCounties(0)"/>
    <circle cx="84.46" cy="470.15" r="1.80" style="stroke-width: 0.75; stroke: #FF0000; fill: #FF0000;" onclick="top.colorCounties(1)"/>
    <circle cx="86.51" cy="470.15" r="1.80" style="stroke-width: 0.75; stroke: #FF0000; fill: #FF0000;" onclick="top.colorCounties(2)"/>
    <circle cx="88.57" cy="470.15" r="1.80" style="stroke-width: 0.75; stroke: #FF0000; fill: #FF0000;" onclick="top.colorCounties(3)"/>
    <circle cx="90.63" cy="467.69" r="1.80" style="stroke-width: 0.75; stroke: #FF0000; fill: #FF0000;" onclick="top.colorCounties(4)"/>
    <circle cx="92.68" cy="470.15" r="1.80" style="stroke-width: 0.75; stroke: #FF0000; fill: #FF0000;" onclick="top.colorCounties(5)"/>
    <circle cx="94.74" cy="462.77" r="1.80" style="stroke-width: 0.75; stroke: #FF0000; fill: #FF0000;" onclick="top.colorCounties(6)"/>
    <circle cx="96.79" cy="470.15" r="1.80" style="stroke-width: 0.75; stroke: #FF0000; fill: #FF0000;" onclick="top.colorCounties(7)"/>
    <circle cx="98.85" cy="464.00" r="1.80" style="stroke-width: 0.75; stroke: #FF0000; fill: #FF0000;" onclick="top.colorCounties(8)"/>
    <circle cx="100.91" cy="468.92" r="1.80" style="stroke-width: 0.75; stroke: #FF0000; fill: #FF0000;" onclick="top.colorCounties(9)"/>
    <circle cx="102.96" cy="470.15" r="1.80" style="stroke-width: 0.75; stroke: #FF0000; fill: #FF0000;" onclick="top.colorCounties(10)"/>
    <circle cx="105.02" cy="465.23" r="1.80" style="stroke-width: 0.75; stroke: #FF0000; fill: #FF0000;" onclick="top.colorCounties(11)"/>
    <circle cx="107.08" cy="464.00" r="1.80" style="stroke-width: 0.75; stroke: #FF0000; fill: #FF0000;" onclick="top.colorCounties(12)"/>
    <circle cx="109.13" cy="464.00" r="1.80" style="stroke-width: 0.75; stroke: #FF0000; fill: #FF0000;" onclick="top.colorCounties(13)"/>
    <circle cx="111.19" cy="462.77" r="1.80" style="stroke-width: 0.75; stroke: #FF0000; fill: #FF0000;" onclick="top.colorCounties(14)"/>
    <circle cx="113.25" cy="462.77" r="1.80" style="stroke-width: 0.75; stroke: #FF0000; fill: #FF0000;" onclick="top.colorCounties(15)"/>
    <circle cx="115.30" cy="466.46" r="1.80" style="stroke-width: 0.75; stroke: #FF0000; fill: #FF0000;" onclick="top.colorCounties(16)"/>
    <circle cx="117.36" cy="464.00" r="1.80" style="stroke-width: 0.75; stroke: #FF0000; fill: #FF0000;" onclick="top.colorCounties(17)"/>
    <circle cx="119.41" cy="443.10" r="1.80" style="stroke-width: 0.75; stroke: #FF0000; fill: #FF0000;" onclick="top.colorCounties(18)"/>
    <circle cx="121.47" cy="462.77" r="1.80" style="stroke-width: 0.75; stroke: #FF0000; fill: #FF0000;" onclick="top.colorCounties(19)"/>
    <circle cx="123.53" cy="464.00" r="1.80" style="stroke-width: 0.75; stroke: #FF0000; fill: #FF0000;" onclick="top.colorCounties(20)"/>
    <circle cx="125.58" cy="436.95" r="1.80" style="stroke-width: 0.75; stroke: #FF0000; fill: #FF0000;" onclick="top.colorCounties(21)"/>
    <circle cx="127.64" cy="441.87" r="1.80" style="stroke-width: 0.75; stroke: #FF0000; fill: #FF0000;" onclick="top.colorCounties(22)"/>
    <circle cx="129.70" cy="448.02" r="1.80" style="stroke-width: 0.75; stroke: #FF0000; fill: #FF0000;" onclick="top.colorCounties(23)"/>
    <circle cx="131.75" cy="434.49" r="1.80" style="stroke-width: 0.75; stroke: #FF0000; fill: #FF0000;" onclick="top.colorCounties(24)"/>
    <circle cx="133.81" cy="414.82" r="1.80" style="stroke-width: 0.75; stroke: #FF0000; fill: #FF0000;" onclick="top.colorCounties(25)"/>
    <circle cx="135.86" cy="401.30" r="1.80" style="stroke-width: 0.75; stroke: #FF0000; fill: #FF0000;" onclick="top.colorCounties(26)"/>
    <circle cx="137.92" cy="438.18" r="1.80" style="stroke-width: 0.75; stroke: #FF0000; fill: #FF0000;" onclick="top.colorCounties(27)"/>
    <circle cx="139.98" cy="427.12" r="1.80" style="stroke-width: 0.75; stroke: #FF0000; fill: #FF0000;" onclick="top.colorCounties(28)"/>
    <circle cx="142.03" cy="432.03" r="1.80" style="stroke-width: 0.75; stroke: #FF0000; fill: #FF0000;" onclick="top.colorCounties(29)"/>
    <circle cx="144.09" cy="438.18" r="1.80" style="stroke-width: 0.75; stroke: #FF0000; fill: #FF0000;" onclick="top.colorCounties(30)"/>
    <circle cx="146.15" cy="424.66" r="1.80" style="stroke-width: 0.75; stroke: #FF0000; fill: #FF0000;" onclick="top.colorCounties(31)"/>
    <circle cx="148.20" cy="454.17" r="1.80" style="stroke-width: 0.75; stroke: #FF0000; fill: #FF0000;" onclick="top.colorCounties(32)"/>
    <circle cx="150.26" cy="408.67" r="1.80" style="stroke-width: 0.75; stroke: #FF0000; fill: #FF0000;" onclick="top.colorCounties(33)"/>
    <circle cx="152.32" cy="434.49" r="1.80" style="stroke-width: 0.75; stroke: #FF0000; fill: #FF0000;" onclick="top.colorCounties(34)"/>
    <circle cx="154.37" cy="418.51" r="1.80" style="stroke-width: 0.75; stroke: #FF0000; fill: #FF0000;" onclick="top.colorCounties(35)"/>
    <circle cx="156.43" cy="451.71" r="1.80" style="stroke-width: 0.75; stroke: #FF0000; fill: #FF0000;" onclick="top.colorCounties(36)"/>
    <circle cx="158.48" cy="425.89" r="1.80" style="stroke-width: 0.75; stroke: #FF0000; fill: #FF0000;" onclick="top.colorCounties(37)"/>
    <circle cx="160.54" cy="400.07" r="1.80" style="stroke-width: 0.75; stroke: #FF0000; fill: #FF0000;" onclick="top.colorCounties(38)"/>
    <circle cx="162.60" cy="411.13" r="1.80" style="stroke-width: 0.75; stroke: #FF0000; fill: #FF0000;" onclick="top.colorCounties(39)"/>
    <circle cx="164.65" cy="380.39" r="1.80" style="stroke-width: 0.75; stroke: #FF0000; fill: #FF0000;" onclick="top.colorCounties(40)"/>
    <circle cx="166.71" cy="396.38" r="1.80" style="stroke-width: 0.75; stroke: #FF0000; fill: #FF0000;" onclick="top.colorCounties(41)"/>
    <circle cx="168.77" cy="451.71" r="1.80" style="stroke-width: 0.75; stroke: #FF0000; fill: #FF0000;" onclick="top.colorCounties(42)"/>
    <circle cx="170.82" cy="365.64" r="1.80" style="stroke-width: 0.75; stroke: #FF0000; fill: #FF0000;" onclick="top.colorCounties(43)"/>
    <circle cx="172.88" cy="433.26" r="1.80" style="stroke-width: 0.75; stroke: #FF0000; fill: #FF0000;" onclick="top.colorCounties(44)"/>
    <circle cx="174.94" cy="438.18" r="1.80" style="stroke-width: 0.75; stroke: #FF0000; fill: #FF0000;" onclick="top.colorCounties(45)"/>
    <circle cx="176.99" cy="462.77" r="1.80" style="stroke-width: 0.75; stroke: #FF0000; fill: #FF0000;" onclick="top.colorCounties(46)"/>
    <circle cx="179.05" cy="422.20" r="1.80" style="stroke-width: 0.75; stroke: #FF0000; fill: #FF0000;" onclick="top.colorCounties(47)"/>
    <circle cx="181.10" cy="373.02" r="1.80" style="stroke-width: 0.75; stroke: #FF0000; fill: #FF0000;" onclick="top.colorCounties(48)"/>
    <circle cx="183.16" cy="445.56" r="1.80" style="stroke-width: 0.75; stroke: #FF0000; fill: #FF0000;" onclick="top.colorCounties(49)"/>
    <circle cx="185.22" cy="397.61" r="1.80" style="stroke-width: 0.75; stroke: #FF0000; fill: #FF0000;" onclick="top.colorCounties(50)"/>
    <circle cx="187.27" cy="451.71" r="1.80" style="stroke-width: 0.75; stroke: #FF0000; fill: #FF0000;" onclick="top.colorCounties(51)"/>
    <circle cx="189.33" cy="467.69" r="1.80" style="stroke-width: 0.75; stroke: #FF0000; fill: #FF0000;" onclick="top.colorCounties(52)"/>
    <circle cx="191.39" cy="385.31" r="1.80" style="stroke-width: 0.75; stroke: #FF0000; fill: #FF0000;" onclick="top.colorCounties(53)"/>
    <circle cx="193.44" cy="423.43" r="1.80" style="stroke-width: 0.75; stroke: #FF0000; fill: #FF0000;" onclick="top.colorCounties(54)"/>
    <circle cx="195.50" cy="452.94" r="1.80" style="stroke-width: 0.75; stroke: #FF0000; fill: #FF0000;" onclick="top.colorCounties(55)"/>
    <circle cx="197.55" cy="403.75" r="1.80" style="stroke-width: 0.75; stroke: #FF0000; fill: #FF0000;" onclick="top.colorCounties(56)"/>
    <circle cx="199.61" cy="450.48" r="1.80" style="stroke-width: 0.75; stroke: #FF0000; fill: #FF0000;" onclick="top.colorCounties(57)"/>
    <circle cx="201.67" cy="416.05" r="1.80" style="stroke-width: 0.75; stroke: #FF0000; fill: #FF0000;" onclick="top.colorCounties(58)"/>
    <circle cx="203.72" cy="446.79" r="1.80" style="stroke-width: 0.75; stroke: #FF0000; fill: #FF0000;" onclick="top.colorCounties(59)"/>
    <circle cx="205.78" cy="455.39" r="1.80" style="stroke-width: 0.75; stroke: #FF0000; fill: #FF0000;" onclick="top.colorCounties(60)"/>
    <circle cx="207.84" cy="440.64" r="1.80" style="stroke-width: 0.75; stroke: #FF0000; fill: #FF0000;" onclick="top.colorCounties(61)"/>
    <circle cx="209.89" cy="438.18" r="1.80" style="stroke-width: 0.75; stroke: #FF0000; fill: #FF0000;" onclick="top.colorCounties(62)"/>
    <circle cx="211.95" cy="371.79" r="1.80" style="stroke-width: 0.75; stroke: #FF0000; fill: #FF0000;" onclick="top.colorCounties(63)"/>
    <circle cx="214.01" cy="396.38" r="1.80" style="stroke-width: 0.75; stroke: #FF0000; fill: #FF0000;" onclick="top.colorCounties(64)"/>
    <circle cx="216.06" cy="386.54" r="1.80" style="stroke-width: 0.75; stroke: #FF0000; fill: #FF0000;" onclick="top.colorCounties(65)"/>
    <circle cx="218.12" cy="446.79" r="1.80" style="stroke-width: 0.75; stroke: #FF0000; fill: #FF0000;" onclick="top.colorCounties(66)"/>
    <circle cx="220.17" cy="436.95" r="1.80" style="stroke-width: 0.75; stroke: #FF0000; fill: #FF0000;" onclick="top.colorCounties(67)"/>
    <circle cx="222.23" cy="408.67" r="1.80" style="stroke-width: 0.75; stroke: #FF0000; fill: #FF0000;" onclick="top.colorCounties(68)"/>
    <circle cx="224.29" cy="423.43" r="1.80" style="stroke-width: 0.75; stroke: #FF0000; fill: #FF0000;" onclick="top.colorCounties(69)"/>
    <circle cx="226.34" cy="406.21" r="1.80" style="stroke-width: 0.75; stroke: #FF0000; fill: #FF0000;" onclick="top.colorCounties(70)"/>
    <circle cx="228.40" cy="456.62" r="1.80" style="stroke-width: 0.75; stroke: #FF0000; fill: #FF0000;" onclick="top.colorCounties(71)"/>
    <circle cx="230.46" cy="441.87" r="1.80" style="stroke-width: 0.75; stroke: #FF0000; fill: #FF0000;" onclick="top.colorCounties(72)"/>
    <circle cx="232.51" cy="449.25" r="1.80" style="stroke-width: 0.75; stroke: #FF0000; fill: #FF0000;" onclick="top.colorCounties(73)"/>
    <circle cx="234.57" cy="457.85" r="1.80" style="stroke-width: 0.75; stroke: #FF0000; fill: #FF0000;" onclick="top.colorCounties(74)"/>
    <circle cx="236.63" cy="439.41" r="1.80" style="stroke-width: 0.75; stroke: #FF0000; fill: #FF0000;" onclick="top.colorCounties(75)"/>
    <circle cx="238.68" cy="429.57" r="1.80" style="stroke-width: 0.75; stroke: #FF0000; fill: #FF0000;" onclick="top.colorCounties(76)"/>
    <circle cx="240.74" cy="430.80" r="1.80" style="stroke-width: 0.75; stroke: #FF0000; fill: #FF0000;" onclick="top.colorCounties(77)"/>
    <circle cx="242.79" cy="423.43" r="1.80" style="stroke-width: 0.75; stroke: #FF0000; fill: #FF0000;" onclick="top.colorCounties(78)"/>
    <circle cx="244.85" cy="407.44" r="1.80" style="stroke-width: 0.75; stroke: #FF0000; fill: #FF0000;" onclick="top.colorCounties(79)"/>
    <circle cx="246.91" cy="466.46" r="1.80" style="stroke-width: 0.75; stroke: #FF0000; fill: #FF0000;" onclick="top.colorCounties(80)"/>
    <circle cx="248.96" cy="454.17" r="1.80" style="stroke-width: 0.75; stroke: #FF0000; fill: #FF0000;" onclick="top.colorCounties(81)"/>
    <circle cx="251.02" cy="321.37" r="1.80" style="stroke-width: 0.75; stroke: #FF0000; fill: #FF0000;" onclick="top.colorCounties(82)"/>
    <circle cx="253.08" cy="433.26" r="1.80" style="stroke-width: 0.75; stroke: #FF0000; fill: #FF0000;" onclick="top.colorCounties(83)"/>
    <circle cx="255.13" cy="449.25" r="1.80" style="stroke-width: 0.75; stroke: #FF0000; fill: #FF0000;" onclick="top.colorCounties(84)"/>
    <circle cx="257.19" cy="446.79" r="1.80" style="stroke-width: 0.75; stroke: #FF0000; fill: #FF0000;" onclick="top.colorCounties(85)"/>
    <circle cx="259.25" cy="454.17" r="1.80" style="stroke-width: 0.75; stroke: #FF0000; fill: #FF0000;" onclick="top.colorCounties(86)"/>
    <circle cx="261.30" cy="459.08" r="1.80" style="stroke-width: 0.75; stroke: #FF0000; fill: #FF0000;" onclick="top.colorCounties(87)"/>
    <circle cx="263.36" cy="434.49" r="1.80" style="stroke-width: 0.75; stroke: #FF0000; fill: #FF0000;" onclick="top.colorCounties(88)"/>
    <circle cx="265.41" cy="425.89" r="1.80" style="stroke-width: 0.75; stroke: #FF0000; fill: #FF0000;" onclick="top.colorCounties(89)"/>
    <circle cx="267.47" cy="397.61" r="1.80" style="stroke-width: 0.75; stroke: #FF0000; fill: #FF0000;" onclick="top.colorCounties(90)"/>
    <circle cx="269.53" cy="438.18" r="1.80" style="stroke-width: 0.75; stroke: #FF0000; fill: #FF0000;" onclick="top.colorCounties(91)"/>
    <circle cx="271.58" cy="455.39" r="1.80" style="stroke-width: 0.75; stroke: #FF0000; fill: #FF0000;" onclick="top.colorCounties(92)"/>
    <circle cx="273.64" cy="449.25" r="1.80" style="stroke-width: 0.75; stroke: #FF0000; fill: #FF0000;" onclick="top.colorCounties(93)"/>
    <circle cx="275.70" cy="438.18" r="1.80" style="stroke-width: 0.75; stroke: #FF0000; fill: #FF0000;" onclick="top.colorCounties(94)"/>
    <circle cx="277.75" cy="432.03" r="1.80" style="stroke-width: 0.75; stroke: #FF0000; fill: #FF0000;" onclick="top.colorCounties(95)"/>
    <circle cx="279.81" cy="403.75" r="1.80" style="stroke-width: 0.75; stroke: #FF0000; fill: #FF0000;" onclick="top.colorCounties(96)"/>
    <circle cx="281.86" cy="452.94" r="1.80" style="stroke-width: 0.75; stroke: #FF0000; fill: #FF0000;" onclick="top.colorCounties(97)"/>
    <circle cx="283.92" cy="427.12" r="1.80" style="stroke-width: 0.75; stroke: #FF0000; fill: #FF0000;" onclick="top.colorCounties(98)"/>
    <circle cx="285.98" cy="430.80" r="1.80" style="stroke-width: 0.75; stroke: #FF0000; fill: #FF0000;" onclick="top.colorCounties(99)"/>
    <circle cx="288.03" cy="452.94" r="1.80" style="stroke-width: 0.75; stroke: #FF0000; fill: #FF0000;" onclick="top.colorCounties(100)"/>
    <circle cx="290.09" cy="450.48" r="1.80" style="stroke-width: 0.75; stroke: #FF0000; fill: #FF0000;" onclick="top.colorCounties(101)"/>
    <circle cx="292.15" cy="432.03" r="1.80" style="stroke-width: 0.75; stroke: #FF0000; fill: #FF0000;" onclick="top.colorCounties(102)"/>
    <circle cx="294.20" cy="424.66" r="1.80" style="stroke-width: 0.75; stroke: #FF0000; fill: #FF0000;" onclick="top.colorCounties(103)"/>
    <circle cx="296.26" cy="434.49" r="1.80" style="stroke-width: 0.75; stroke: #FF0000; fill: #FF0000;" onclick="top.colorCounties(104)"/>
    <circle cx="298.32" cy="443.10" r="1.80" style="stroke-width: 0.75; stroke: #FF0000; fill: #FF0000;" onclick="top.colorCounties(105)"/>
    <circle cx="300.37" cy="440.64" r="1.80" style="stroke-width: 0.75; stroke: #FF0000; fill: #FF0000;" onclick="top.colorCounties(106)"/>
    <circle cx="302.43" cy="446.79" r="1.80" style="stroke-width: 0.75; stroke: #FF0000; fill: #FF0000;" onclick="top.colorCounties(107)"/>
    <circle cx="304.48" cy="456.62" r="1.80" style="stroke-width: 0.75; stroke: #FF0000; fill: #FF0000;" onclick="top.colorCounties(108)"/>
    <circle cx="306.54" cy="423.43" r="1.80" style="stroke-width: 0.75; stroke: #FF0000; fill: #FF0000;" onclick="top.colorCounties(109)"/>
    <circle cx="308.60" cy="424.66" r="1.80" style="stroke-width: 0.75; stroke: #FF0000; fill: #FF0000;" onclick="top.colorCounties(110)"/>
    <circle cx="310.65" cy="468.92" r="1.80" style="stroke-width: 0.75; stroke: #FF0000; fill: #FF0000;" onclick="top.colorCounties(111)"/>
    <circle cx="312.71" cy="470.15" r="1.80" style="stroke-width: 0.75; stroke: #FF0000; fill: #FF0000;" onclick="top.colorCounties(112)"/>
    <circle cx="314.77" cy="314.00" r="1.80" style="stroke-width: 0.75; stroke: #FF0000; fill: #FF0000;" onclick="top.colorCounties(113)"/>
    <circle cx="316.82" cy="428.34" r="1.80" style="stroke-width: 0.75; stroke: #FF0000; fill: #FF0000;" onclick="top.colorCounties(114)"/>
    <circle cx="318.88" cy="433.26" r="1.80" style="stroke-width: 0.75; stroke: #FF0000; fill: #FF0000;" onclick="top.colorCounties(115)"/>
    <circle cx="320.94" cy="411.13" r="1.80" style="stroke-width: 0.75; stroke: #FF0000; fill: #FF0000;" onclick="top.colorCounties(116)"/>
    <circle cx="322.99" cy="343.51" r="1.80" style="stroke-width: 0.75; stroke: #FF0000; fill: #FF0000;" onclick="top.colorCounties(117)"/>
    <circle cx="325.05" cy="386.54" r="1.80" style="stroke-width: 0.75; stroke: #FF0000; fill: #FF0000;" onclick="top.colorCounties(118)"/>
    <circle cx="327.10" cy="416.05" r="1.80" style="stroke-width: 0.75; stroke: #FF0000; fill: #FF0000;" onclick="top.colorCounties(119)"/>
    <circle cx="329.16" cy="409.90" r="1.80" style="stroke-width: 0.75; stroke: #FF0000; fill: #FF0000;" onclick="top.colorCounties(120)"/>
    <circle cx="331.22" cy="418.51" r="1.80" style="stroke-width: 0.75; stroke: #FF0000; fill: #FF0000;" onclick="top.colorCounties(121)"/>
    <circle cx="333.27" cy="414.82" r="1.80" style="stroke-width: 0.75; stroke: #FF0000; fill: #FF0000;" onclick="top.colorCounties(122)"/>
    <circle cx="335.33" cy="382.85" r="1.80" style="stroke-width: 0.75; stroke: #FF0000; fill: #FF0000;" onclick="top.colorCounties(123)"/>
    <circle cx="337.39" cy="470.15" r="1.80" style="stroke-width: 0.75; stroke: #FF0000; fill: #FF0000;" onclick="top.colorCounties(124)"/>
    <circle cx="339.44" cy="393.92" r="1.80" style="stroke-width: 0.75; stroke: #FF0000; fill: #FF0000;" onclick="top.colorCounties(125)"/>
    <circle cx="341.50" cy="371.79" r="1.80" style="stroke-width: 0.75; stroke: #FF0000; fill: #FF0000;" onclick="top.colorCounties(126)"/>
    <circle cx="343.55" cy="309.08" r="1.80" style="stroke-width: 0.75; stroke: #FF0000; fill: #FF0000;" onclick="top.colorCounties(127)"/>
    <circle cx="345.61" cy="435.72" r="1.80" style="stroke-width: 0.75; stroke: #FF0000; fill: #FF0000;" onclick="top.colorCounties(128)"/>
    <circle cx="347.67" cy="407.44" r="1.80" style="stroke-width: 0.75; stroke: #FF0000; fill: #FF0000;" onclick="top.colorCounties(129)"/>
    <circle cx="349.72" cy="379.16" r="1.80" style="stroke-width: 0.75; stroke: #FF0000; fill: #FF0000;" onclick="top.colorCounties(130)"/>
    <circle cx="351.78" cy="259.90" r="1.80" style="stroke-width: 0.75; stroke: #FF0000; fill: #FF0000;" onclick="top.colorCounties(131)"/>
    <circle cx="353.84" cy="334.90" r="1.80" style="stroke-width: 0.75; stroke: #FF0000; fill: #FF0000;" onclick="top.colorCounties(132)"/>
    <circle cx="355.89" cy="352.11" r="1.80" style="stroke-width: 0.75; stroke: #FF0000; fill: #FF0000;" onclick="top.colorCounties(133)"/>
    <circle cx="357.95" cy="386.54" r="1.80" style="stroke-width: 0.75; stroke: #FF0000; fill: #FF0000;" onclick="top.colorCounties(134)"/>
    <circle cx="360.01" cy="408.67" r="1.80" style="stroke-width: 0.75; stroke: #FF0000; fill: #FF0000;" onclick="top.colorCounties(135)"/>
    <circle cx="362.06" cy="401.30" r="1.80" style="stroke-width: 0.75; stroke: #FF0000; fill: #FF0000;" onclick="top.colorCounties(136)"/>
    <circle cx="364.12" cy="268.50" r="1.80" style="stroke-width: 0.75; stroke: #FF0000; fill: #FF0000;" onclick="top.colorCounties(137)"/>
    <circle cx="366.17" cy="328.75" r="1.80" style="stroke-width: 0.75; stroke: #FF0000; fill: #FF0000;" onclick="top.colorCounties(138)"/>
    <circle cx="368.23" cy="296.78" r="1.80" style="stroke-width: 0.75; stroke: #FF0000; fill: #FF0000;" onclick="top.colorCounties(139)"/>
    <circle cx="370.29" cy="364.41" r="1.80" style="stroke-width: 0.75; stroke: #FF0000; fill: #FF0000;" onclick="top.colorCounties(140)"/>
    <circle cx="372.34" cy="343.51" r="1.80" style="stroke-width: 0.75; stroke: #FF0000; fill: #FF0000;" onclick="top.colorCounties(141)"/>
    <circle cx="374.40" cy="398.84" r="1.80" style="stroke-width: 0.75; stroke: #FF0000; fill: #FF0000;" onclick="top.colorCounties(142)"/>
    <circle cx="376.46" cy="352.11" r="1.80" style="stroke-width: 0.75; stroke: #FF0000; fill: #FF0000;" onclick="top.colorCounties(143)"/>
    <circle cx="378.51" cy="341.05" r="1.80" style="stroke-width: 0.75; stroke: #FF0000; fill: #FF0000;" onclick="top.colorCounties(144)"/>
    <circle cx="380.57" cy="328.75" r="1.80" style="stroke-width: 0.75; stroke: #FF0000; fill: #FF0000;" onclick="top.colorCounties(145)"/>
    <circle cx="382.63" cy="337.36" r="1.80" style="stroke-width: 0.75; stroke: #FF0000; fill: #FF0000;" onclick="top.colorCounties(146)"/>
    <circle cx="384.68" cy="291.87" r="1.80" style="stroke-width: 0.75; stroke: #FF0000; fill: #FF0000;" onclick="top.colorCounties(147)"/>
    <circle cx="386.74" cy="359.49" r="1.80" style="stroke-width: 0.75; stroke: #FF0000; fill: #FF0000;" onclick="top.colorCounties(148)"/>
    <circle cx="388.79" cy="417.28" r="1.80" style="stroke-width: 0.75; stroke: #FF0000; fill: #FF0000;" onclick="top.colorCounties(149)"/>
    <circle cx="390.85" cy="307.85" r="1.80" style="stroke-width: 0.75; stroke: #FF0000; fill: #FF0000;" onclick="top.colorCounties(150)"/>
    <circle cx="392.91" cy="192.27" r="1.80" style="stroke-width: 0.75; stroke: #FF0000; fill: #FF0000;" onclick="top.colorCounties(151)"/>
    <circle cx="394.96" cy="283.26" r="1.80" style="stroke-width: 0.75; stroke: #FF0000; fill: #FF0000;" onclick="top.colorCounties(152)"/>
    <circle cx="397.02" cy="288.18" r="1.80" style="stroke-width: 0.75; stroke: #FF0000; fill: #FF0000;" onclick="top.colorCounties(153)"/>
    <circle cx="399.08" cy="361.95" r="1.80" style="stroke-width: 0.75; stroke: #FF0000; fill: #FF0000;" onclick="top.colorCounties(154)"/>
    <circle cx="401.13" cy="341.05" r="1.80" style="stroke-width: 0.75; stroke: #FF0000; fill: #FF0000;" onclick="top.colorCounties(155)"/>
    <circle cx="403.19" cy="380.39" r="1.80" style="stroke-width: 0.75; stroke: #FF0000; fill: #FF0000;" onclick="top.colorCounties(156)"/>
    <circle cx="405.25" cy="357.03" r="1.80" style="stroke-width: 0.75; stroke: #FF0000; fill: #FF0000;" onclick="top.colorCounties(157)"/>
    <circle cx="407.30" cy="289.41" r="1.80" style="stroke-width: 0.75; stroke: #FF0000; fill: #FF0000;" onclick="top.colorCounties(158)"/>
    <circle cx="409.36" cy="349.65" r="1.80" style="stroke-width: 0.75; stroke: #FF0000; fill: #FF0000;" onclick="top.colorCounties(159)"/>
    <circle cx="411.41" cy="339.82" r="1.80" style="stroke-width: 0.75; stroke: #FF0000; fill: #FF0000;" onclick="top.colorCounties(160)"/>
    <circle cx="413.47" cy="327.52" r="1.80" style="stroke-width: 0.75; stroke: #FF0000; fill: #FF0000;" onclick="top.colorCounties(161)"/>
    <circle cx="415.53" cy="377.93" r="1.80" style="stroke-width: 0.75; stroke: #FF0000; fill: #FF0000;" onclick="top.colorCounties(162)"/>
    <circle cx="417.58" cy="470.15" r="1.80" style="stroke-width: 0.75; stroke: #FF0000; fill: #FF0000;" onclick="top.colorCounties(163)"/>
    <circle cx="419.64" cy="210.72" r="1.80" style="stroke-width: 0.75; stroke: #FF0000; fill: #FF0000;" onclick="top.colorCounties(164)"/>
    <circle cx="421.70" cy="334.90" r="1.80" style="stroke-width: 0.75; stroke: #FF0000; fill: #FF0000;" onclick="top.colorCounties(165)"/>
    <circle cx="423.75" cy="336.13" r="1.80" style="stroke-width: 0.75; stroke: #FF0000; fill: #FF0000;" onclick="top.colorCounties(166)"/>
    <circle cx="425.81" cy="342.28" r="1.80" style="stroke-width: 0.75; stroke: #FF0000; fill: #FF0000;" onclick="top.colorCounties(167)"/>
    <circle cx="427.86" cy="304.16" r="1.80" style="stroke-width: 0.75; stroke: #FF0000; fill: #FF0000;" onclick="top.colorCounties(168)"/>
    <circle cx="429.92" cy="403.75" r="1.80" style="stroke-width: 0.75; stroke: #FF0000; fill: #FF0000;" onclick="top.colorCounties(169)"/>
    <circle cx="431.98" cy="370.56" r="1.80" style="stroke-width: 0.75; stroke: #FF0000; fill: #FF0000;" onclick="top.colorCounties(170)"/>
    <circle cx="434.03" cy="345.97" r="1.80" style="stroke-width: 0.75; stroke: #FF0000; fill: #FF0000;" onclick="top.colorCounties(171)"/>
    <circle cx="436.09" cy="368.10" r="1.80" style="stroke-width: 0.75; stroke: #FF0000; fill: #FF0000;" onclick="top.colorCounties(172)"/>
    <circle cx="438.15" cy="358.26" r="1.80" style="stroke-width: 0.75; stroke: #FF0000; fill: #FF0000;" onclick="top.colorCounties(173)"/>
    <circle cx="440.20" cy="360.72" r="1.80" style="stroke-width: 0.75; stroke: #FF0000; fill: #FF0000;" onclick="top.colorCounties(174)"/>
    <circle cx="442.26" cy="371.79" r="1.80" style="stroke-width: 0.75; stroke: #FF0000; fill: #FF0000;" onclick="top.colorCounties(175)"/>
    <circle cx="444.32" cy="390.23" r="1.80" style="stroke-width: 0.75; stroke: #FF0000; fill: #FF0000;" onclick="top.colorCounties(176)"/>
    <circle cx="446.37" cy="414.82" r="1.80" style="stroke-width: 0.75; stroke: #FF0000; fill: #FF0000;" onclick="top.colorCounties(177)"/>
    <circle cx="448.43" cy="373.02" r="1.80" style="stroke-width: 0.75; stroke: #FF0000; fill: #FF0000;" onclick="top.colorCounties(178)"/>
    <circle cx="450.48" cy="360.72" r="1.80" style="stroke-width: 0.75; stroke: #FF0000; fill: #FF0000;" onclick="top.colorCounties(179)"/>
    <circle cx="452.54" cy="389.00" r="1.80" style="stroke-width: 0.75; stroke: #FF0000; fill: #FF0000;" onclick="top.colorCounties(180)"/>
    <circle cx="454.60" cy="305.39" r="1.80" style="stroke-width: 0.75; stroke: #FF0000; fill: #FF0000;" onclick="top.colorCounties(181)"/>
    <circle cx="456.65" cy="373.02" r="1.80" style="stroke-width: 0.75; stroke: #FF0000; fill: #FF0000;" onclick="top.colorCounties(182)"/>
    <circle cx="458.71" cy="389.00" r="1.80" style="stroke-width: 0.75; stroke: #FF0000; fill: #FF0000;" onclick="top.colorCounties(183)"/>
    <circle cx="460.77" cy="408.67" r="1.80" style="stroke-width: 0.75; stroke: #FF0000; fill: #FF0000;" onclick="top.colorCounties(184)"/>
    <circle cx="462.82" cy="380.39" r="1.80" style="stroke-width: 0.75; stroke: #FF0000; fill: #FF0000;" onclick="top.colorCounties(185)"/>
    <circle cx="464.88" cy="373.02" r="1.80" style="stroke-width: 0.75; stroke: #FF0000; fill: #FF0000;" onclick="top.colorCounties(186)"/>
    <circle cx="466.94" cy="397.61" r="1.80" style="stroke-width: 0.75; stroke: #FF0000; fill: #FF0000;" onclick="top.colorCounties(187)"/>
    <circle cx="468.99" cy="366.87" r="1.80" style="stroke-width: 0.75; stroke: #FF0000; fill: #FF0000;" onclick="top.colorCounties(188)"/>
    <circle cx="471.05" cy="376.70" r="1.80" style="stroke-width: 0.75; stroke: #FF0000; fill: #FF0000;" onclick="top.colorCounties(189)"/>
    <circle cx="473.10" cy="391.46" r="1.80" style="stroke-width: 0.75; stroke: #FF0000; fill: #FF0000;" onclick="top.colorCounties(190)"/>
    <circle cx="475.16" cy="470.15" r="1.80" style="stroke-width: 0.75; stroke: #FF0000; fill: #FF0000;" onclick="top.colorCounties(191)"/>
    <circle cx="477.22" cy="353.34" r="1.80" style="stroke-width: 0.75; stroke: #FF0000; fill: #FF0000;" onclick="top.colorCounties(192)"/>
    <circle cx="479.27" cy="413.59" r="1.80" style="stroke-width: 0.75; stroke: #FF0000; fill: #FF0000;" onclick="top.colorCounties(193)"/>
    <circle cx="481.33" cy="386.54" r="1.80" style="stroke-width: 0.75; stroke: #FF0000; fill: #FF0000;" onclick="top.colorCounties(194)"/>
    <circle cx="483.39" cy="377.93" r="1.80" style="stroke-width: 0.75; stroke: #FF0000; fill: #FF0000;" onclick="top.colorCounties(195)"/>
    <circle cx="485.44" cy="422.20" r="1.80" style="stroke-width: 0.75; stroke: #FF0000; fill: #FF0000;" onclick="top.colorCounties(196)"/>
    <circle cx="487.50" cy="376.70" r="1.80" style="stroke-width: 0.75; stroke: #FF0000; fill: #FF0000;" onclick="top.colorCounties(197)"/>
    <circle cx="489.55" cy="406.21" r="1.80" style="stroke-width: 0.75; stroke: #FF0000; fill: #FF0000;" onclick="top.colorCounties(198)"/>
    <circle cx="491.61" cy="396.38" r="1.80" style="stroke-width: 0.75; stroke: #FF0000; fill: #FF0000;" onclick="top.colorCounties(199)"/>
    <circle cx="493.67" cy="373.02" r="1.80" style="stroke-width: 0.75; stroke: #FF0000; fill: #FF0000;" onclick="top.colorCounties(200)"/>
    <circle cx="495.72" cy="382.85" r="1.80" style="stroke-width: 0.75; stroke: #FF0000; fill: #FF0000;" onclick="top.colorCounties(201)"/>
    <circle cx="497.78" cy="401.30" r="1.80" style="stroke-width: 0.75; stroke: #FF0000; fill: #FF0000;" onclick="top.colorCounties(202)"/>
    <circle cx="499.84" cy="409.90" r="1.80" style="stroke-width: 0.75; stroke: #FF0000; fill: #FF0000;" onclick="top.colorCounties(203)"/>
    <circle cx="501.89" cy="393.92" r="1.80" style="stroke-width: 0.75; stroke: #FF0000; fill: #FF0000;" onclick="top.colorCounties(204)"/>
    <circle cx="503.95" cy="398.84" r="1.80" style="stroke-width: 0.75; stroke: #FF0000; fill: #FF0000;" onclick="top.colorCounties(205)"/>
    <circle cx="506.01" cy="425.89" r="1.80" style="stroke-width: 0.75; stroke: #FF0000; fill: #FF0000;" onclick="top.colorCounties(206)"/>
    <circle cx="508.06" cy="414.82" r="1.80" style="stroke-width: 0.75; stroke: #FF0000; fill: #FF0000;" onclick="top.colorCounties(207)"/>
    <circle cx="510.12" cy="357.03" r="1.80" style="stroke-width: 0.75; stroke: #FF0000; fill: #FF0000;" onclick="top.colorCounties(208)"/>
    <circle cx="512.17" cy="423.43" r="1.80" style="stroke-width: 0.75; stroke: #FF0000; fill: #FF0000;" onclick="top.colorCounties(209)"/>
    <circle cx="514.23" cy="387.77" r="1.80" style="stroke-width: 0.75; stroke: #FF0000; fill: #FF0000;" onclick="top.colorCounties(210)"/>
    <circle cx="516.29" cy="406.21" r="1.80" style="stroke-width: 0.75; stroke: #FF0000; fill: #FF0000;" onclick="top.colorCounties(211)"/>
    <circle cx="518.34" cy="417.28" r="1.80" style="stroke-width: 0.75; stroke: #FF0000; fill: #FF0000;" onclick="top.colorCounties(212)"/>
    <circle cx="520.40" cy="424.66" r="1.80" style="stroke-width: 0.75; stroke: #FF0000; fill: #FF0000;" onclick="top.colorCounties(213)"/>
    <circle cx="522.46" cy="400.07" r="1.80" style="stroke-width: 0.75; stroke: #FF0000; fill: #FF0000;" onclick="top.colorCounties(214)"/>
    <circle cx="524.51" cy="435.72" r="1.80" style="stroke-width: 0.75; stroke: #FF0000; fill: #FF0000;" onclick="top.colorCounties(215)"/>
    <circle cx="526.57" cy="403.75" r="1.80" style="stroke-width: 0.75; stroke: #FF0000; fill: #FF0000;" onclick="top.colorCounties(216)"/>
    <circle cx="528.63" cy="395.15" r="1.80" style="stroke-width: 0.75; stroke: #FF0000; fill: #FF0000;" onclick="top.colorCounties(217)"/>
    <circle cx="530.68" cy="464.00" r="1.80" style="stroke-width: 0.75; stroke: #FF0000; fill: #FF0000;" onclick="top.colorCounties(218)"/>
    <circle cx="532.74" cy="439.41" r="1.80" style="stroke-width: 0.75; stroke: #FF0000; fill: #FF0000;" onclick="top.colorCounties(219)"/>
    <circle cx="534.79" cy="435.72" r="1.80" style="stroke-width: 0.75; stroke: #FF0000; fill: #FF0000;" onclick="top.colorCounties(220)"/>
    <circle cx="536.85" cy="448.02" r="1.80" style="stroke-width: 0.75; stroke: #FF0000; fill: #FF0000;" onclick="top.colorCounties(221)"/>
    <circle cx="538.91" cy="400.07" r="1.80" style="stroke-width: 0.75; stroke: #FF0000; fill: #FF0000;" onclick="top.colorCounties(222)"/>
    <circle cx="540.96" cy="455.39" r="1.80" style="stroke-width: 0.75; stroke: #FF0000; fill: #FF0000;" onclick="top.colorCounties(223)"/>
    <circle cx="543.02" cy="417.28" r="1.80" style="stroke-width: 0.75; stroke: #FF0000; fill: #FF0000;" onclick="top.colorCounties(224)"/>
    <circle cx="545.08" cy="466.46" r="1.80" style="stroke-width: 0.75; stroke: #FF0000; fill: #FF0000;" onclick="top.colorCounties(225)"/>
    <circle cx="547.13" cy="439.41" r="1.80" style="stroke-width: 0.75; stroke: #FF0000; fill: #FF0000;" onclick="top.colorCounties(226)"/>
    <circle cx="549.19" cy="444.33" r="1.80" style="stroke-width: 0.75; stroke: #FF0000; fill: #FF0000;" onclick="top.colorCounties(227)"/>
    <circle cx="551.25" cy="382.85" r="1.80" style="stroke-width: 0.75; stroke: #FF0000; fill: #FF0000;" onclick="top.colorCounties(228)"/>
    <circle cx="553.30" cy="439.41" r="1.80" style="stroke-width: 0.75; stroke: #FF0000; fill: #FF0000;" onclick="top.colorCounties(229)"/>
    <circle cx="555.36" cy="430.80" r="1.80" style="stroke-width: 0.75; stroke: #FF0000; fill: #FF0000;" onclick="top.colorCounties(230)"/>
    <circle cx="557.41" cy="424.66" r="1.80" style="stroke-width: 0.75; stroke: #FF0000; fill: #FF0000;" onclick="top.colorCounties(231)"/>
    <circle cx="559.47" cy="440.64" r="1.80" style="stroke-width: 0.75; stroke: #FF0000; fill: #FF0000;" onclick="top.colorCounties(232)"/>
    <circle cx="561.53" cy="425.89" r="1.80" style="stroke-width: 0.75; stroke: #FF0000; fill: #FF0000;" onclick="top.colorCounties(233)"/>
    <circle cx="563.58" cy="376.70" r="1.80" style="stroke-width: 0.75; stroke: #FF0000; fill: #FF0000;" onclick="top.colorCounties(234)"/>
    <circle cx="565.64" cy="486.13" r="1.80" style="stroke-width: 0.75; stroke: #FF0000; fill: #FF0000;" onclick="top.colorCounties(235)"/>
    <circle cx="567.70" cy="430.80" r="1.80" style="stroke-width: 0.75; stroke: #FF0000; fill: #FF0000;" onclick="top.colorCounties(236)"/>
    <circle cx="569.75" cy="424.66" r="1.80" style="stroke-width: 0.75; stroke: #FF0000; fill: #FF0000;" onclick="top.colorCounties(237)"/>
    <circle cx="571.81" cy="428.34" r="1.80" style="stroke-width: 0.75; stroke: #FF0000; fill: #FF0000;" onclick="top.colorCounties(238)"/>
    <circle cx="573.86" cy="409.90" r="1.80" style="stroke-width: 0.75; stroke: #FF0000; fill: #FF0000;" onclick="top.colorCounties(239)"/>
    <circle cx="575.92" cy="424.66" r="1.80" style="stroke-width: 0.75; stroke: #FF0000; fill: #FF0000;" onclick="top.colorCounties(240)"/>
    <circle cx="577.98" cy="406.21" r="1.80" style="stroke-width: 0.75; stroke: #FF0000; fill: #FF0000;" onclick="top.colorCounties(241)"/>
    <circle cx="580.03" cy="425.89" r="1.80" style="stroke-width: 0.75; stroke: #FF0000; fill: #FF0000;" onclick="top.colorCounties(242)"/>
    <circle cx="582.09" cy="417.28" r="1.80" style="stroke-width: 0.75; stroke: #FF0000; fill: #FF0000;" onclick="top.colorCounties(243)"/>
    <circle cx="584.15" cy="373.02" r="1.80" style="stroke-width: 0.75; stroke: #FF0000; fill: #FF0000;" onclick="top.colorCounties(244)"/>
    <circle cx="586.20" cy="402.52" r="1.80" style="stroke-width: 0.75; stroke: #FF0000; fill: #FF0000;" onclick="top.colorCounties(245)"/>
    <circle cx="588.26" cy="403.75" r="1.80" style="stroke-width: 0.75; stroke: #FF0000; fill: #FF0000;" onclick="top.colorCounties(246)"/>
    <circle cx="590.32" cy="413.59" r="1.80" style="stroke-width: 0.75; stroke: #FF0000; fill: #FF0000;" onclick="top.colorCounties(247)"/>
    <circle cx="592.37" cy="414.82" r="1.80" style="stroke-width: 0.75; stroke: #FF0000; fill: #FF0000;" onclick="top.colorCounties(248)"/>
    <circle cx="594.43" cy="387.77" r="1.80" style="stroke-width: 0.75; stroke: #FF0000; fill: #FF0000;" onclick="top.colorCounties(249)"/>
    <circle cx="596.48" cy="363.18" r="1.80" style="stroke-width: 0.75; stroke: #FF0000; fill: #FF0000;" onclick="top.colorCounties(250)"/>
    <circle cx="598.54" cy="338.59" r="1.80" style="stroke-width: 0.75; stroke: #FF0000; fill: #FF0000;" onclick="top.colorCounties(251)"/>
    <circle cx="600.60" cy="322.60" r="1.80" style="stroke-width: 0.75; stroke: #FF0000; fill: #FF0000;" onclick="top.colorCounties(252)"/>
    <circle cx="602.65" cy="345.97" r="1.80" style="stroke-width: 0.75; stroke: #FF0000; fill: #FF0000;" onclick="top.colorCounties(253)"/>
    <circle cx="604.71" cy="398.84" r="1.80" style="stroke-width: 0.75; stroke: #FF0000; fill: #FF0000;" onclick="top.colorCounties(254)"/>
    <circle cx="606.77" cy="382.85" r="1.80" style="stroke-width: 0.75; stroke: #FF0000; fill: #FF0000;" onclick="top.colorCounties(255)"/>
    <circle cx="608.82" cy="349.65" r="1.80" style="stroke-width: 0.75; stroke: #FF0000; fill: #FF0000;" onclick="top.colorCounties(256)"/>
    <circle cx="610.88" cy="352.11" r="1.80" style="stroke-width: 0.75; stroke: #FF0000; fill: #FF0000;" onclick="top.colorCounties(257)"/>
    <circle cx="612.94" cy="332.44" r="1.80" style="stroke-width: 0.75; stroke: #FF0000; fill: #FF0000;" onclick="top.colorCounties(258)"/>
    <circle cx="614.99" cy="286.95" r="1.80" style="stroke-width: 0.75; stroke: #FF0000; fill: #FF0000;" onclick="top.colorCounties(259)"/>
    <circle cx="617.05" cy="357.03" r="1.80" style="stroke-width: 0.75; stroke: #FF0000; fill: #FF0000;" onclick="top.colorCounties(260)"/>
    <circle cx="619.10" cy="359.49" r="1.80" style="stroke-width: 0.75; stroke: #FF0000; fill: #FF0000;" onclick="top.colorCounties(261)"/>
    <circle cx="621.16" cy="341.05" r="1.80" style="stroke-width: 0.75; stroke: #FF0000; fill: #FF0000;" onclick="top.colorCounties(262)"/>
    <circle cx="623.22" cy="341.05" r="1.80" style="stroke-width: 0.75; stroke: #FF0000; fill: #FF0000;" onclick="top.colorCounties(263)"/>
    <circle cx="625.27" cy="231.62" r="1.80" style="stroke-width: 0.75; stroke: #FF0000; fill: #FF0000;" onclick="top.colorCounties(264)"/>
    <circle cx="627.33" cy="376.70" r="1.80" style="stroke-width: 0.75; stroke: #FF0000; fill: #FF0000;" onclick="top.colorCounties(265)"/>
    <circle cx="629.39" cy="325.06" r="1.80" style="stroke-width: 0.75; stroke: #FF0000; fill: #FF0000;" onclick="top.colorCounties(266)"/>
    <circle cx="631.44" cy="350.88" r="1.80" style="stroke-width: 0.75; stroke: #FF0000; fill: #FF0000;" onclick="top.colorCounties(267)"/>
    <circle cx="633.50" cy="322.60" r="1.80" style="stroke-width: 0.75; stroke: #FF0000; fill: #FF0000;" onclick="top.colorCounties(268)"/>
    <circle cx="635.55" cy="209.49" r="1.80" style="stroke-width: 0.75; stroke: #FF0000; fill: #FF0000;" onclick="top.colorCounties(269)"/>
    <circle cx="637.61" cy="250.06" r="1.80" style="stroke-width: 0.75; stroke: #FF0000; fill: #FF0000;" onclick="top.colorCounties(270)"/>
    <circle cx="639.67" cy="343.51" r="1.80" style="stroke-width: 0.75; stroke: #FF0000; fill: #FF0000;" onclick="top.colorCounties(271)"/>
    <circle cx="641.72" cy="198.42" r="1.80" style="stroke-width: 0.75; stroke: #FF0000; fill: #FF0000;" onclick="top.colorCounties(272)"/>
    <circle cx="643.78" cy="380.39" r="1.80" style="stroke-width: 0.75; stroke: #FF0000; fill: #FF0000;" onclick="top.colorCounties(273)"/>
    <circle cx="645.84" cy="321.37" r="1.80" style="stroke-width: 0.75; stroke: #FF0000; fill: #FF0000;" onclick="top.colorCounties(274)"/>
    <circle cx="647.89" cy="386.54" r="1.80" style="stroke-width: 0.75; stroke: #FF0000; fill: #FF0000;" onclick="top.colorCounties(275)"/>
    <circle cx="649.95" cy="275.88" r="1.80" style="stroke-width: 0.75; stroke: #FF0000; fill: #FF0000;" onclick="top.colorCounties(276)"/>
    <circle cx="652.01" cy="149.24" r="1.80" style="stroke-width: 0.75; stroke: #FF0000; fill: #FF0000;" onclick="top.colorCounties(277)"/>
    <circle cx="654.06" cy="251.29" r="1.80" style="stroke-width: 0.75; stroke: #FF0000; fill: #FF0000;" onclick="top.colorCounties(278)"/>
    <circle cx="656.12" cy="146.78" r="1.80" style="stroke-width: 0.75; stroke: #FF0000; fill: #FF0000;" onclick="top.colorCounties(279)"/>
    <circle cx="658.17" cy="117.27" r="1.80" style="stroke-width: 0.75; stroke: #FF0000; fill: #FF0000;" onclick="top.colorCounties(280)"/>
    <circle cx="660.23" cy="75.47" r="1.80" style="stroke-width: 0.75; stroke: #FF0000; fill: #FF0000;" onclick="top.colorCounties(281)"/>
    <circle cx="662.29" cy="331.21" r="1.80" style="stroke-width: 0.75; stroke: #FF0000; fill: #FF0000;" onclick="top.colorCounties(282)"/>
    <circle cx="664.34" cy="268.50" r="1.80" style="stroke-width: 0.75; stroke: #FF0000; fill: #FF0000;" onclick="top.colorCounties(283)"/>
    <circle cx="666.40" cy="170.14" r="1.80" style="stroke-width: 0.75; stroke: #FF0000; fill: #FF0000;" onclick="top.colorCounties(284)"/>
  </g>
</svg>
