<?xml version="1.0" encoding="UTF-8"?>
<svg xmlns="http://www.w3.org/2000/svg" xmlns:xlink="http://www.w3.org/1999/xlink" class="svglite" width="720.00pt" height="576.00pt" viewBox="0 0 720.00 576.00">
  <defs>
    <style type="text/css"><![CDATA[
    .svglite line, .svglite polyline, .svglite polygon, .svglite path, .svglite rect, .svglite circle {
      fill: none;
      stroke: #000000;
      stroke-linecap: round;
      stroke-linejoin: round;
      stroke-miterlimit: 10.00;
    }
    .svglite text {
      white-space: pre;
    }
  ]]></style>
  </defs>
  <rect width="100%" height="100%" style="stroke: none; fill: #FFFFFF;"/>
  <defs>
    <clipPath id="cpMC4wMHw3MjAuMDB8MC4wMHw1NzYuMDA=">
      <rect x="0.00" y="0.00" width="720.00" height="576.00"/>
    </clipPath>
  </defs>
  <g clip-path="url(#cpMC4wMHw3MjAuMDB8MC4wMHw1NzYuMDA=)">
</g>
  <defs>
    <clipPath id="cpNTkuMDR8Njg5Ljc2fDU5LjA0fDUwMi41Ng==">
      <rect x="59.04" y="59.04" width="630.72" height="443.52"/>
    </clipPath>
  </defs>
  <g clip-path="url(#cpNTkuMDR8Njg5Ljc2fDU5LjA0fDUwMi41Ng==)">
    <polyline points="82.40,480.64 84.46,480.64 86.51,480.64 88.57,480.64 90.63,480.64 92.68,480.64 94.74,480.64 96.79,480.64 98.85,480.64 100.91,480.64 102.96,479.54 105.02,480.64 107.08,480.64 109.13,480.64 111.19,480.64 113.25,480.09 115.30,480.09 117.36,480.09 119.41,480.64 121.47,480.64 123.53,480.64 125.58,478.99 127.64,479.54 129.70,480.09 131.75,480.09 133.81,477.89 135.86,477.34 137.92,477.34 139.98,479.54 142.03,479.54 144.09,477.34 146.15,477.89 148.20,477.34 150.26,476.24 152.32,476.79 154.37,477.34 156.43,475.14 158.48,475.69 160.54,477.89 162.60,476.24 164.65,473.49 166.71,477.89 168.77,475.14 170.82,472.39 172.88,471.29 174.94,472.94 176.99,475.14 179.05,470.19 181.10,472.39 183.16,477.89 185.22,480.64 187.27,475.14 189.33,472.39 191.39,476.79 193.44,477.34 195.50,468.54 197.55,476.24 199.61,470.74 201.67,474.04 203.72,472.39 205.78,461.39 207.84,477.34 209.89,469.64 211.95,474.59 214.01,471.29 216.06,480.64 218.12,462.49 220.17,480.64 222.23,465.79 224.29,480.64 226.34,473.49 228.40,480.64 230.46,471.84 232.51,475.69 234.57,474.59 236.63,476.79 238.68,472.39 240.74,474.04 242.79,480.64 244.85,468.54 246.91,477.89 248.96,480.64 251.02,467.99 253.08,476.24 255.13,471.29 257.19,473.49 259.25,474.59 261.30,476.79 263.36,477.34 265.41,471.84 267.47,470.19 269.53,466.34 271.58,477.34 273.64,471.29 275.70,466.89 277.75,467.44 279.81,467.44 281.86,466.89 283.92,460.84 285.98,460.84 288.03,450.95 290.09,463.04 292.15,453.70 294.20,480.64 296.26,469.64 298.32,464.14 300.37,460.29 302.43,428.96 304.48,466.89 306.54,420.71 308.60,421.26 310.65,450.95 312.71,453.70 314.77,431.16 316.82,427.86 318.88,444.35 320.94,376.73 322.99,430.61 325.05,465.79 327.10,432.81 329.16,408.07 331.22,467.44 333.27,382.78 335.33,458.10 337.39,353.64 339.44,386.63 341.50,177.72 343.55,367.94 345.61,367.39 347.67,415.76 349.72,347.05 351.78,321.76 353.84,399.27 355.89,375.08 357.95,367.94 360.01,382.78 362.06,329.45 364.12,400.37 366.17,315.71 368.23,402.02 370.29,412.47 372.34,390.48 374.40,300.87 376.46,398.72 378.51,251.39 380.57,369.59 382.63,338.80 384.68,407.52 386.74,351.99 388.79,447.65 390.85,368.49 392.91,341.55 394.96,400.92 397.02,386.63 399.08,392.68 401.13,449.85 403.19,463.59 405.25,452.60 407.30,453.70 409.36,393.77 411.41,426.21 413.47,316.81 415.53,315.16 417.58,155.73 419.64,75.47 421.70,431.16 423.75,331.65 425.81,246.44 427.86,391.58 429.92,410.82 431.98,438.30 434.03,376.18 436.09,398.72 438.15,460.84 440.20,391.58 442.26,426.76 444.32,424.01 446.37,459.75 448.43,279.98 450.48,362.44 452.54,394.87 454.60,356.94 456.65,446.55 458.71,389.38 460.77,438.85 462.82,416.86 464.88,415.21 466.94,403.12 468.99,417.41 471.05,422.91 473.10,448.20 475.16,373.98 477.22,453.15 479.27,445.45 481.33,431.71 483.39,432.26 485.44,453.15 487.50,480.64 489.55,438.85 491.61,480.64 493.67,426.76 495.72,437.21 497.78,447.65 499.84,464.14 501.89,463.04 503.95,454.80 506.01,465.79 508.06,474.59 510.12,471.84 512.17,486.13 514.23,475.14 516.29,470.19 518.34,466.89 520.40,471.84 522.46,447.10 524.51,450.40 526.57,439.40 528.63,461.94 530.68,468.54 532.74,476.24 534.79,460.29 536.85,435.56 538.91,445.45 540.96,452.05 543.02,460.84 545.08,459.75 547.13,474.59 549.19,457.00 551.25,464.14 553.30,106.80 555.36,448.75 557.41,454.25 559.47,445.45 561.53,473.49 563.58,439.40 565.64,446.55 567.70,446.00 569.75,440.50 571.81,440.50 573.86,443.80 575.92,463.59 577.98,445.45 580.03,446.00 582.09,446.55 584.15,442.70 586.20,441.05 588.26,448.75 590.32,447.65 592.37,439.40 594.43,436.66 596.48,422.91 598.54,426.21 600.60,480.64 602.65,371.23 604.71,444.90 606.77,417.41 608.82,388.28 610.88,392.68 612.94,396.52 614.99,388.28 617.05,400.37 619.10,391.58 621.16,389.38 623.22,398.17 625.27,379.48 627.33,370.14 629.39,347.05 631.44,304.16 633.50,319.01 635.55,324.51 637.61,480.64 639.67,273.93 641.72,392.13 643.78,380.03 645.84,215.10 647.89,333.85 649.95,310.76 652.01,312.96 654.06,245.89 656.12,193.66 658.17,302.52 660.23,243.69 662.29,270.08 664.34,200.26 666.40,216.20 " style="stroke-width: 0.75;"/>
  </g>
  <g clip-path="url(#cpMC4wMHw3MjAuMDB8MC4wMHw1NzYuMDA=)">
    <line x1="146.15" y1="502.56" x2="522.46" y2="502.56" style="stroke-width: 0.75;"/>
    <line x1="146.15" y1="502.56" x2="146.15" y2="509.76" style="stroke-width: 0.75;"/>
    <line x1="333.27" y1="502.56" x2="333.27" y2="509.76" style="stroke-width: 0.75;"/>
    <line x1="522.46" y1="502.56" x2="522.46" y2="509.76" style="stroke-width: 0.75;"/>
    <text x="146.15" y="528.48" text-anchor="middle" style="font-size: 12.00px; font-family: &quot;Arial&quot;;" textLength="18.68px" lengthAdjust="spacingAndGlyphs">Apr</text>
    <text x="333.27" y="528.48" text-anchor="middle" style="font-size: 12.00px; font-family: &quot;Arial&quot;;" textLength="15.34px" lengthAdjust="spacingAndGlyphs">Jul</text>
    <text x="522.46" y="528.48" text-anchor="middle" style="font-size: 12.00px; font-family: &quot;Arial&quot;;" textLength="18.66px" lengthAdjust="spacingAndGlyphs">Oct</text>
    <line x1="59.04" y1="480.64" x2="59.04" y2="150.78" style="stroke-width: 0.75;"/>
    <line x1="59.04" y1="480.64" x2="51.84" y2="480.64" style="stroke-width: 0.75;"/>
    <line x1="59.04" y1="370.68" x2="51.84" y2="370.68" style="stroke-width: 0.75;"/>
    <line x1="59.04" y1="260.73" x2="51.84" y2="260.73" style="stroke-width: 0.75;"/>
    <line x1="59.04" y1="150.78" x2="51.84" y2="150.78" style="stroke-width: 0.75;"/>
    <text transform="translate(41.76,480.64) rotate(-90)" text-anchor="middle" style="font-size: 12.00px; font-family: &quot;Arial&quot;;" textLength="6.67px" lengthAdjust="spacingAndGlyphs">0</text>
    <text transform="translate(41.76,370.68) rotate(-90)" text-anchor="middle" style="font-size: 12.00px; font-family: &quot;Arial&quot;;" textLength="20.02px" lengthAdjust="spacingAndGlyphs">200</text>
    <text transform="translate(41.76,260.73) rotate(-90)" text-anchor="middle" style="font-size: 12.00px; font-family: &quot;Arial&quot;;" textLength="20.02px" lengthAdjust="spacingAndGlyphs">400</text>
    <text transform="translate(41.76,150.78) rotate(-90)" text-anchor="middle" style="font-size: 12.00px; font-family: &quot;Arial&quot;;" textLength="20.02px" lengthAdjust="spacingAndGlyphs">600</text>
    <polygon points="59.04,502.56 689.76,502.56 689.76,59.04 59.04,59.04 " style="stroke-width: 0.75;"/>
    <text x="374.40" y="34.70" text-anchor="middle" style="font-size: 14.40px; font-weight: bold; font-family: &quot;Arial&quot;;" textLength="71.99px" lengthAdjust="spacingAndGlyphs">Stanislaus</text>
    <text x="374.40" y="557.28" text-anchor="middle" style="font-size: 12.00px; font-family: &quot;Arial&quot;;" textLength="25.35px" lengthAdjust="spacingAndGlyphs">Date</text>
    <text transform="translate(12.96,280.80) rotate(-90)" text-anchor="middle" style="font-size: 12.00px; font-family: &quot;Arial&quot;;" textLength="93.37px" lengthAdjust="spacingAndGlyphs">Number of Cases</text>
  </g>
  <g clip-path="url(#cpNTkuMDR8Njg5Ljc2fDU5LjA0fDUwMi41Ng==)">
    <circle cx="82.40" cy="480.64" r="1.80" style="stroke-width: 0.75; stroke: #FF0000; fill: #FF0000;" onclick="top.colorCounties(0)"/>
    <circle cx="84.46" cy="480.64" r="1.80" style="stroke-width: 0.75; stroke: #FF0000; fill: #FF0000;" onclick="top.colorCounties(1)"/>
    <circle cx="86.51" cy="480.64" r="1.80" style="stroke-width: 0.75; stroke: #FF0000; fill: #FF0000;" onclick="top.colorCounties(2)"/>
    <circle cx="88.57" cy="480.64" r="1.80" style="stroke-width: 0.75; stroke: #FF0000; fill: #FF0000;" onclick="top.colorCounties(3)"/>
    <circle cx="90.63" cy="480.64" r="1.80" style="stroke-width: 0.75; stroke: #FF0000; fill: #FF0000;" onclick="top.colorCounties(4)"/>
    <circle cx="92.68" cy="480.64" r="1.80" style="stroke-width: 0.75; stroke: #FF0000; fill: #FF0000;" onclick="top.colorCounties(5)"/>
    <circle cx="94.74" cy="480.64" r="1.80" style="stroke-width: 0.75; stroke: #FF0000; fill: #FF0000;" onclick="top.colorCounties(6)"/>
    <circle cx="96.79" cy="480.64" r="1.80" style="stroke-width: 0.75; stroke: #FF0000; fill: #FF0000;" onclick="top.colorCounties(7)"/>
    <circle cx="98.85" cy="480.64" r="1.80" style="stroke-width: 0.75; stroke: #FF0000; fill: #FF0000;" onclick="top.colorCounties(8)"/>
    <circle cx="100.91" cy="480.64" r="1.80" style="stroke-width: 0.75; stroke: #FF0000; fill: #FF0000;" onclick="top.colorCounties(9)"/>
    <circle cx="102.96" cy="479.54" r="1.80" style="stroke-width: 0.75; stroke: #FF0000; fill: #FF0000;" onclick="top.colorCounties(10)"/>
    <circle cx="105.02" cy="480.64" r="1.80" style="stroke-width: 0.75; stroke: #FF0000; fill: #FF0000;" onclick="top.colorCounties(11)"/>
    <circle cx="107.08" cy="480.64" r="1.80" style="stroke-width: 0.75; stroke: #FF0000; fill: #FF0000;" onclick="top.colorCounties(12)"/>
    <circle cx="109.13" cy="480.64" r="1.80" style="stroke-width: 0.75; stroke: #FF0000; fill: #FF0000;" onclick="top.colorCounties(13)"/>
    <circle cx="111.19" cy="480.64" r="1.80" style="stroke-width: 0.75; stroke: #FF0000; fill: #FF0000;" onclick="top.colorCounties(14)"/>
    <circle cx="113.25" cy="480.09" r="1.80" style="stroke-width: 0.75; stroke: #FF0000; fill: #FF0000;" onclick="top.colorCounties(15)"/>
    <circle cx="115.30" cy="480.09" r="1.80" style="stroke-width: 0.75; stroke: #FF0000; fill: #FF0000;" onclick="top.colorCounties(16)"/>
    <circle cx="117.36" cy="480.09" r="1.80" style="stroke-width: 0.75; stroke: #FF0000; fill: #FF0000;" onclick="top.colorCounties(17)"/>
    <circle cx="119.41" cy="480.64" r="1.80" style="stroke-width: 0.75; stroke: #FF0000; fill: #FF0000;" onclick="top.colorCounties(18)"/>
    <circle cx="121.47" cy="480.64" r="1.80" style="stroke-width: 0.75; stroke: #FF0000; fill: #FF0000;" onclick="top.colorCounties(19)"/>
    <circle cx="123.53" cy="480.64" r="1.80" style="stroke-width: 0.75; stroke: #FF0000; fill: #FF0000;" onclick="top.colorCounties(20)"/>
    <circle cx="125.58" cy="478.99" r="1.80" style="stroke-width: 0.75; stroke: #FF0000; fill: #FF0000;" onclick="top.colorCounties(21)"/>
    <circle cx="127.64" cy="479.54" r="1.80" style="stroke-width: 0.75; stroke: #FF0000; fill: #FF0000;" onclick="top.colorCounties(22)"/>
    <circle cx="129.70" cy="480.09" r="1.80" style="stroke-width: 0.75; stroke: #FF0000; fill: #FF0000;" onclick="top.colorCounties(23)"/>
    <circle cx="131.75" cy="480.09" r="1.80" style="stroke-width: 0.75; stroke: #FF0000; fill: #FF0000;" onclick="top.colorCounties(24)"/>
    <circle cx="133.81" cy="477.89" r="1.80" style="stroke-width: 0.75; stroke: #FF0000; fill: #FF0000;" onclick="top.colorCounties(25)"/>
    <circle cx="135.86" cy="477.34" r="1.80" style="stroke-width: 0.75; stroke: #FF0000; fill: #FF0000;" onclick="top.colorCounties(26)"/>
    <circle cx="137.92" cy="477.34" r="1.80" style="stroke-width: 0.75; stroke: #FF0000; fill: #FF0000;" onclick="top.colorCounties(27)"/>
    <circle cx="139.98" cy="479.54" r="1.80" style="stroke-width: 0.75; stroke: #FF0000; fill: #FF0000;" onclick="top.colorCounties(28)"/>
    <circle cx="142.03" cy="479.54" r="1.80" style="stroke-width: 0.75; stroke: #FF0000; fill: #FF0000;" onclick="top.colorCounties(29)"/>
    <circle cx="144.09" cy="477.34" r="1.80" style="stroke-width: 0.75; stroke: #FF0000; fill: #FF0000;" onclick="top.colorCounties(30)"/>
    <circle cx="146.15" cy="477.89" r="1.80" style="stroke-width: 0.75; stroke: #FF0000; fill: #FF0000;" onclick="top.colorCounties(31)"/>
    <circle cx="148.20" cy="477.34" r="1.80" style="stroke-width: 0.75; stroke: #FF0000; fill: #FF0000;" onclick="top.colorCounties(32)"/>
    <circle cx="150.26" cy="476.24" r="1.80" style="stroke-width: 0.75; stroke: #FF0000; fill: #FF0000;" onclick="top.colorCounties(33)"/>
    <circle cx="152.32" cy="476.79" r="1.80" style="stroke-width: 0.75; stroke: #FF0000; fill: #FF0000;" onclick="top.colorCounties(34)"/>
    <circle cx="154.37" cy="477.34" r="1.80" style="stroke-width: 0.75; stroke: #FF0000; fill: #FF0000;" onclick="top.colorCounties(35)"/>
    <circle cx="156.43" cy="475.14" r="1.80" style="stroke-width: 0.75; stroke: #FF0000; fill: #FF0000;" onclick="top.colorCounties(36)"/>
    <circle cx="158.48" cy="475.69" r="1.80" style="stroke-width: 0.75; stroke: #FF0000; fill: #FF0000;" onclick="top.colorCounties(37)"/>
    <circle cx="160.54" cy="477.89" r="1.80" style="stroke-width: 0.75; stroke: #FF0000; fill: #FF0000;" onclick="top.colorCounties(38)"/>
    <circle cx="162.60" cy="476.24" r="1.80" style="stroke-width: 0.75; stroke: #FF0000; fill: #FF0000;" onclick="top.colorCounties(39)"/>
    <circle cx="164.65" cy="473.49" r="1.80" style="stroke-width: 0.75; stroke: #FF0000; fill: #FF0000;" onclick="top.colorCounties(40)"/>
    <circle cx="166.71" cy="477.89" r="1.80" style="stroke-width: 0.75; stroke: #FF0000; fill: #FF0000;" onclick="top.colorCounties(41)"/>
    <circle cx="168.77" cy="475.14" r="1.80" style="stroke-width: 0.75; stroke: #FF0000; fill: #FF0000;" onclick="top.colorCounties(42)"/>
    <circle cx="170.82" cy="472.39" r="1.80" style="stroke-width: 0.75; stroke: #FF0000; fill: #FF0000;" onclick="top.colorCounties(43)"/>
    <circle cx="172.88" cy="471.29" r="1.80" style="stroke-width: 0.75; stroke: #FF0000; fill: #FF0000;" onclick="top.colorCounties(44)"/>
    <circle cx="174.94" cy="472.94" r="1.80" style="stroke-width: 0.75; stroke: #FF0000; fill: #FF0000;" onclick="top.colorCounties(45)"/>
    <circle cx="176.99" cy="475.14" r="1.80" style="stroke-width: 0.75; stroke: #FF0000; fill: #FF0000;" onclick="top.colorCounties(46)"/>
    <circle cx="179.05" cy="470.19" r="1.80" style="stroke-width: 0.75; stroke: #FF0000; fill: #FF0000;" onclick="top.colorCounties(47)"/>
    <circle cx="181.10" cy="472.39" r="1.80" style="stroke-width: 0.75; stroke: #FF0000; fill: #FF0000;" onclick="top.colorCounties(48)"/>
    <circle cx="183.16" cy="477.89" r="1.80" style="stroke-width: 0.75; stroke: #FF0000; fill: #FF0000;" onclick="top.colorCounties(49)"/>
    <circle cx="185.22" cy="480.64" r="1.80" style="stroke-width: 0.75; stroke: #FF0000; fill: #FF0000;" onclick="top.colorCounties(50)"/>
    <circle cx="187.27" cy="475.14" r="1.80" style="stroke-width: 0.75; stroke: #FF0000; fill: #FF0000;" onclick="top.colorCounties(51)"/>
    <circle cx="189.33" cy="472.39" r="1.80" style="stroke-width: 0.75; stroke: #FF0000; fill: #FF0000;" onclick="top.colorCounties(52)"/>
    <circle cx="191.39" cy="476.79" r="1.80" style="stroke-width: 0.75; stroke: #FF0000; fill: #FF0000;" onclick="top.colorCounties(53)"/>
    <circle cx="193.44" cy="477.34" r="1.80" style="stroke-width: 0.75; stroke: #FF0000; fill: #FF0000;" onclick="top.colorCounties(54)"/>
    <circle cx="195.50" cy="468.54" r="1.80" style="stroke-width: 0.75; stroke: #FF0000; fill: #FF0000;" onclick="top.colorCounties(55)"/>
    <circle cx="197.55" cy="476.24" r="1.80" style="stroke-width: 0.75; stroke: #FF0000; fill: #FF0000;" onclick="top.colorCounties(56)"/>
    <circle cx="199.61" cy="470.74" r="1.80" style="stroke-width: 0.75; stroke: #FF0000; fill: #FF0000;" onclick="top.colorCounties(57)"/>
    <circle cx="201.67" cy="474.04" r="1.80" style="stroke-width: 0.75; stroke: #FF0000; fill: #FF0000;" onclick="top.colorCounties(58)"/>
    <circle cx="203.72" cy="472.39" r="1.80" style="stroke-width: 0.75; stroke: #FF0000; fill: #FF0000;" onclick="top.colorCounties(59)"/>
    <circle cx="205.78" cy="461.39" r="1.80" style="stroke-width: 0.75; stroke: #FF0000; fill: #FF0000;" onclick="top.colorCounties(60)"/>
    <circle cx="207.84" cy="477.34" r="1.80" style="stroke-width: 0.75; stroke: #FF0000; fill: #FF0000;" onclick="top.colorCounties(61)"/>
    <circle cx="209.89" cy="469.64" r="1.80" style="stroke-width: 0.75; stroke: #FF0000; fill: #FF0000;" onclick="top.colorCounties(62)"/>
    <circle cx="211.95" cy="474.59" r="1.80" style="stroke-width: 0.75; stroke: #FF0000; fill: #FF0000;" onclick="top.colorCounties(63)"/>
    <circle cx="214.01" cy="471.29" r="1.80" style="stroke-width: 0.75; stroke: #FF0000; fill: #FF0000;" onclick="top.colorCounties(64)"/>
    <circle cx="216.06" cy="480.64" r="1.80" style="stroke-width: 0.75; stroke: #FF0000; fill: #FF0000;" onclick="top.colorCounties(65)"/>
    <circle cx="218.12" cy="462.49" r="1.80" style="stroke-width: 0.75; stroke: #FF0000; fill: #FF0000;" onclick="top.colorCounties(66)"/>
    <circle cx="220.17" cy="480.64" r="1.80" style="stroke-width: 0.75; stroke: #FF0000; fill: #FF0000;" onclick="top.colorCounties(67)"/>
    <circle cx="222.23" cy="465.79" r="1.80" style="stroke-width: 0.75; stroke: #FF0000; fill: #FF0000;" onclick="top.colorCounties(68)"/>
    <circle cx="224.29" cy="480.64" r="1.80" style="stroke-width: 0.75; stroke: #FF0000; fill: #FF0000;" onclick="top.colorCounties(69)"/>
    <circle cx="226.34" cy="473.49" r="1.80" style="stroke-width: 0.75; stroke: #FF0000; fill: #FF0000;" onclick="top.colorCounties(70)"/>
    <circle cx="228.40" cy="480.64" r="1.80" style="stroke-width: 0.75; stroke: #FF0000; fill: #FF0000;" onclick="top.colorCounties(71)"/>
    <circle cx="230.46" cy="471.84" r="1.80" style="stroke-width: 0.75; stroke: #FF0000; fill: #FF0000;" onclick="top.colorCounties(72)"/>
    <circle cx="232.51" cy="475.69" r="1.80" style="stroke-width: 0.75; stroke: #FF0000; fill: #FF0000;" onclick="top.colorCounties(73)"/>
    <circle cx="234.57" cy="474.59" r="1.80" style="stroke-width: 0.75; stroke: #FF0000; fill: #FF0000;" onclick="top.colorCounties(74)"/>
    <circle cx="236.63" cy="476.79" r="1.80" style="stroke-width: 0.75; stroke: #FF0000; fill: #FF0000;" onclick="top.colorCounties(75)"/>
    <circle cx="238.68" cy="472.39" r="1.80" style="stroke-width: 0.75; stroke: #FF0000; fill: #FF0000;" onclick="top.colorCounties(76)"/>
    <circle cx="240.74" cy="474.04" r="1.80" style="stroke-width: 0.75; stroke: #FF0000; fill: #FF0000;" onclick="top.colorCounties(77)"/>
    <circle cx="242.79" cy="480.64" r="1.80" style="stroke-width: 0.75; stroke: #FF0000; fill: #FF0000;" onclick="top.colorCounties(78)"/>
    <circle cx="244.85" cy="468.54" r="1.80" style="stroke-width: 0.75; stroke: #FF0000; fill: #FF0000;" onclick="top.colorCounties(79)"/>
    <circle cx="246.91" cy="477.89" r="1.80" style="stroke-width: 0.75; stroke: #FF0000; fill: #FF0000;" onclick="top.colorCounties(80)"/>
    <circle cx="248.96" cy="480.64" r="1.80" style="stroke-width: 0.75; stroke: #FF0000; fill: #FF0000;" onclick="top.colorCounties(81)"/>
    <circle cx="251.02" cy="467.99" r="1.80" style="stroke-width: 0.75; stroke: #FF0000; fill: #FF0000;" onclick="top.colorCounties(82)"/>
    <circle cx="253.08" cy="476.24" r="1.80" style="stroke-width: 0.75; stroke: #FF0000; fill: #FF0000;" onclick="top.colorCounties(83)"/>
    <circle cx="255.13" cy="471.29" r="1.80" style="stroke-width: 0.75; stroke: #FF0000; fill: #FF0000;" onclick="top.colorCounties(84)"/>
    <circle cx="257.19" cy="473.49" r="1.80" style="stroke-width: 0.75; stroke: #FF0000; fill: #FF0000;" onclick="top.colorCounties(85)"/>
    <circle cx="259.25" cy="474.59" r="1.80" style="stroke-width: 0.75; stroke: #FF0000; fill: #FF0000;" onclick="top.colorCounties(86)"/>
    <circle cx="261.30" cy="476.79" r="1.80" style="stroke-width: 0.75; stroke: #FF0000; fill: #FF0000;" onclick="top.colorCounties(87)"/>
    <circle cx="263.36" cy="477.34" r="1.80" style="stroke-width: 0.75; stroke: #FF0000; fill: #FF0000;" onclick="top.colorCounties(88)"/>
    <circle cx="265.41" cy="471.84" r="1.80" style="stroke-width: 0.75; stroke: #FF0000; fill: #FF0000;" onclick="top.colorCounties(89)"/>
    <circle cx="267.47" cy="470.19" r="1.80" style="stroke-width: 0.75; stroke: #FF0000; fill: #FF0000;" onclick="top.colorCounties(90)"/>
    <circle cx="269.53" cy="466.34" r="1.80" style="stroke-width: 0.75; stroke: #FF0000; fill: #FF0000;" onclick="top.colorCounties(91)"/>
    <circle cx="271.58" cy="477.34" r="1.80" style="stroke-width: 0.75; stroke: #FF0000; fill: #FF0000;" onclick="top.colorCounties(92)"/>
    <circle cx="273.64" cy="471.29" r="1.80" style="stroke-width: 0.75; stroke: #FF0000; fill: #FF0000;" onclick="top.colorCounties(93)"/>
    <circle cx="275.70" cy="466.89" r="1.80" style="stroke-width: 0.75; stroke: #FF0000; fill: #FF0000;" onclick="top.colorCounties(94)"/>
    <circle cx="277.75" cy="467.44" r="1.80" style="stroke-width: 0.75; stroke: #FF0000; fill: #FF0000;" onclick="top.colorCounties(95)"/>
    <circle cx="279.81" cy="467.44" r="1.80" style="stroke-width: 0.75; stroke: #FF0000; fill: #FF0000;" onclick="top.colorCounties(96)"/>
    <circle cx="281.86" cy="466.89" r="1.80" style="stroke-width: 0.75; stroke: #FF0000; fill: #FF0000;" onclick="top.colorCounties(97)"/>
    <circle cx="283.92" cy="460.84" r="1.80" style="stroke-width: 0.75; stroke: #FF0000; fill: #FF0000;" onclick="top.colorCounties(98)"/>
    <circle cx="285.98" cy="460.84" r="1.80" style="stroke-width: 0.75; stroke: #FF0000; fill: #FF0000;" onclick="top.colorCounties(99)"/>
    <circle cx="288.03" cy="450.95" r="1.80" style="stroke-width: 0.75; stroke: #FF0000; fill: #FF0000;" onclick="top.colorCounties(100)"/>
    <circle cx="290.09" cy="463.04" r="1.80" style="stroke-width: 0.75; stroke: #FF0000; fill: #FF0000;" onclick="top.colorCounties(101)"/>
    <circle cx="292.15" cy="453.70" r="1.80" style="stroke-width: 0.75; stroke: #FF0000; fill: #FF0000;" onclick="top.colorCounties(102)"/>
    <circle cx="294.20" cy="480.64" r="1.80" style="stroke-width: 0.75; stroke: #FF0000; fill: #FF0000;" onclick="top.colorCounties(103)"/>
    <circle cx="296.26" cy="469.64" r="1.80" style="stroke-width: 0.75; stroke: #FF0000; fill: #FF0000;" onclick="top.colorCounties(104)"/>
    <circle cx="298.32" cy="464.14" r="1.80" style="stroke-width: 0.75; stroke: #FF0000; fill: #FF0000;" onclick="top.colorCounties(105)"/>
    <circle cx="300.37" cy="460.29" r="1.80" style="stroke-width: 0.75; stroke: #FF0000; fill: #FF0000;" onclick="top.colorCounties(106)"/>
    <circle cx="302.43" cy="428.96" r="1.80" style="stroke-width: 0.75; stroke: #FF0000; fill: #FF0000;" onclick="top.colorCounties(107)"/>
    <circle cx="304.48" cy="466.89" r="1.80" style="stroke-width: 0.75; stroke: #FF0000; fill: #FF0000;" onclick="top.colorCounties(108)"/>
    <circle cx="306.54" cy="420.71" r="1.80" style="stroke-width: 0.75; stroke: #FF0000; fill: #FF0000;" onclick="top.colorCounties(109)"/>
    <circle cx="308.60" cy="421.26" r="1.80" style="stroke-width: 0.75; stroke: #FF0000; fill: #FF0000;" onclick="top.colorCounties(110)"/>
    <circle cx="310.65" cy="450.95" r="1.80" style="stroke-width: 0.75; stroke: #FF0000; fill: #FF0000;" onclick="top.colorCounties(111)"/>
    <circle cx="312.71" cy="453.70" r="1.80" style="stroke-width: 0.75; stroke: #FF0000; fill: #FF0000;" onclick="top.colorCounties(112)"/>
    <circle cx="314.77" cy="431.16" r="1.80" style="stroke-width: 0.75; stroke: #FF0000; fill: #FF0000;" onclick="top.colorCounties(113)"/>
    <circle cx="316.82" cy="427.86" r="1.80" style="stroke-width: 0.75; stroke: #FF0000; fill: #FF0000;" onclick="top.colorCounties(114)"/>
    <circle cx="318.88" cy="444.35" r="1.80" style="stroke-width: 0.75; stroke: #FF0000; fill: #FF0000;" onclick="top.colorCounties(115)"/>
    <circle cx="320.94" cy="376.73" r="1.80" style="stroke-width: 0.75; stroke: #FF0000; fill: #FF0000;" onclick="top.colorCounties(116)"/>
    <circle cx="322.99" cy="430.61" r="1.80" style="stroke-width: 0.75; stroke: #FF0000; fill: #FF0000;" onclick="top.colorCounties(117)"/>
    <circle cx="325.05" cy="465.79" r="1.80" style="stroke-width: 0.75; stroke: #FF0000; fill: #FF0000;" onclick="top.colorCounties(118)"/>
    <circle cx="327.10" cy="432.81" r="1.80" style="stroke-width: 0.75; stroke: #FF0000; fill: #FF0000;" onclick="top.colorCounties(119)"/>
    <circle cx="329.16" cy="408.07" r="1.80" style="stroke-width: 0.75; stroke: #FF0000; fill: #FF0000;" onclick="top.colorCounties(120)"/>
    <circle cx="331.22" cy="467.44" r="1.80" style="stroke-width: 0.75; stroke: #FF0000; fill: #FF0000;" onclick="top.colorCounties(121)"/>
    <circle cx="333.27" cy="382.78" r="1.80" style="stroke-width: 0.75; stroke: #FF0000; fill: #FF0000;" onclick="top.colorCounties(122)"/>
    <circle cx="335.33" cy="458.10" r="1.80" style="stroke-width: 0.75; stroke: #FF0000; fill: #FF0000;" onclick="top.colorCounties(123)"/>
    <circle cx="337.39" cy="353.64" r="1.80" style="stroke-width: 0.75; stroke: #FF0000; fill: #FF0000;" onclick="top.colorCounties(124)"/>
    <circle cx="339.44" cy="386.63" r="1.80" style="stroke-width: 0.75; stroke: #FF0000; fill: #FF0000;" onclick="top.colorCounties(125)"/>
    <circle cx="341.50" cy="177.72" r="1.80" style="stroke-width: 0.75; stroke: #FF0000; fill: #FF0000;" onclick="top.colorCounties(126)"/>
    <circle cx="343.55" cy="367.94" r="1.80" style="stroke-width: 0.75; stroke: #FF0000; fill: #FF0000;" onclick="top.colorCounties(127)"/>
    <circle cx="345.61" cy="367.39" r="1.80" style="stroke-width: 0.75; stroke: #FF0000; fill: #FF0000;" onclick="top.colorCounties(128)"/>
    <circle cx="347.67" cy="415.76" r="1.80" style="stroke-width: 0.75; stroke: #FF0000; fill: #FF0000;" onclick="top.colorCounties(129)"/>
    <circle cx="349.72" cy="347.05" r="1.80" style="stroke-width: 0.75; stroke: #FF0000; fill: #FF0000;" onclick="top.colorCounties(130)"/>
    <circle cx="351.78" cy="321.76" r="1.80" style="stroke-width: 0.75; stroke: #FF0000; fill: #FF0000;" onclick="top.colorCounties(131)"/>
    <circle cx="353.84" cy="399.27" r="1.80" style="stroke-width: 0.75; stroke: #FF0000; fill: #FF0000;" onclick="top.colorCounties(132)"/>
    <circle cx="355.89" cy="375.08" r="1.80" style="stroke-width: 0.75; stroke: #FF0000; fill: #FF0000;" onclick="top.colorCounties(133)"/>
    <circle cx="357.95" cy="367.94" r="1.80" style="stroke-width: 0.75; stroke: #FF0000; fill: #FF0000;" onclick="top.colorCounties(134)"/>
    <circle cx="360.01" cy="382.78" r="1.80" style="stroke-width: 0.75; stroke: #FF0000; fill: #FF0000;" onclick="top.colorCounties(135)"/>
    <circle cx="362.06" cy="329.45" r="1.80" style="stroke-width: 0.75; stroke: #FF0000; fill: #FF0000;" onclick="top.colorCounties(136)"/>
    <circle cx="364.12" cy="400.37" r="1.80" style="stroke-width: 0.75; stroke: #FF0000; fill: #FF0000;" onclick="top.colorCounties(137)"/>
    <circle cx="366.17" cy="315.71" r="1.80" style="stroke-width: 0.75; stroke: #FF0000; fill: #FF0000;" onclick="top.colorCounties(138)"/>
    <circle cx="368.23" cy="402.02" r="1.80" style="stroke-width: 0.75; stroke: #FF0000; fill: #FF0000;" onclick="top.colorCounties(139)"/>
    <circle cx="370.29" cy="412.47" r="1.80" style="stroke-width: 0.75; stroke: #FF0000; fill: #FF0000;" onclick="top.colorCounties(140)"/>
    <circle cx="372.34" cy="390.48" r="1.80" style="stroke-width: 0.75; stroke: #FF0000; fill: #FF0000;" onclick="top.colorCounties(141)"/>
    <circle cx="374.40" cy="300.87" r="1.80" style="stroke-width: 0.75; stroke: #FF0000; fill: #FF0000;" onclick="top.colorCounties(142)"/>
    <circle cx="376.46" cy="398.72" r="1.80" style="stroke-width: 0.75; stroke: #FF0000; fill: #FF0000;" onclick="top.colorCounties(143)"/>
    <circle cx="378.51" cy="251.39" r="1.80" style="stroke-width: 0.75; stroke: #FF0000; fill: #FF0000;" onclick="top.colorCounties(144)"/>
    <circle cx="380.57" cy="369.59" r="1.80" style="stroke-width: 0.75; stroke: #FF0000; fill: #FF0000;" onclick="top.colorCounties(145)"/>
    <circle cx="382.63" cy="338.80" r="1.80" style="stroke-width: 0.75; stroke: #FF0000; fill: #FF0000;" onclick="top.colorCounties(146)"/>
    <circle cx="384.68" cy="407.52" r="1.80" style="stroke-width: 0.75; stroke: #FF0000; fill: #FF0000;" onclick="top.colorCounties(147)"/>
    <circle cx="386.74" cy="351.99" r="1.80" style="stroke-width: 0.75; stroke: #FF0000; fill: #FF0000;" onclick="top.colorCounties(148)"/>
    <circle cx="388.79" cy="447.65" r="1.80" style="stroke-width: 0.75; stroke: #FF0000; fill: #FF0000;" onclick="top.colorCounties(149)"/>
    <circle cx="390.85" cy="368.49" r="1.80" style="stroke-width: 0.75; stroke: #FF0000; fill: #FF0000;" onclick="top.colorCounties(150)"/>
    <circle cx="392.91" cy="341.55" r="1.80" style="stroke-width: 0.75; stroke: #FF0000; fill: #FF0000;" onclick="top.colorCounties(151)"/>
    <circle cx="394.96" cy="400.92" r="1.80" style="stroke-width: 0.75; stroke: #FF0000; fill: #FF0000;" onclick="top.colorCounties(152)"/>
    <circle cx="397.02" cy="386.63" r="1.80" style="stroke-width: 0.75; stroke: #FF0000; fill: #FF0000;" onclick="top.colorCounties(153)"/>
    <circle cx="399.08" cy="392.68" r="1.80" style="stroke-width: 0.75; stroke: #FF0000; fill: #FF0000;" onclick="top.colorCounties(154)"/>
    <circle cx="401.13" cy="449.85" r="1.80" style="stroke-width: 0.75; stroke: #FF0000; fill: #FF0000;" onclick="top.colorCounties(155)"/>
    <circle cx="403.19" cy="463.59" r="1.80" style="stroke-width: 0.75; stroke: #FF0000; fill: #FF0000;" onclick="top.colorCounties(156)"/>
    <circle cx="405.25" cy="452.60" r="1.80" style="stroke-width: 0.75; stroke: #FF0000; fill: #FF0000;" onclick="top.colorCounties(157)"/>
    <circle cx="407.30" cy="453.70" r="1.80" style="stroke-width: 0.75; stroke: #FF0000; fill: #FF0000;" onclick="top.colorCounties(158)"/>
    <circle cx="409.36" cy="393.77" r="1.80" style="stroke-width: 0.75; stroke: #FF0000; fill: #FF0000;" onclick="top.colorCounties(159)"/>
    <circle cx="411.41" cy="426.21" r="1.80" style="stroke-width: 0.75; stroke: #FF0000; fill: #FF0000;" onclick="top.colorCounties(160)"/>
    <circle cx="413.47" cy="316.81" r="1.80" style="stroke-width: 0.75; stroke: #FF0000; fill: #FF0000;" onclick="top.colorCounties(161)"/>
    <circle cx="415.53" cy="315.16" r="1.80" style="stroke-width: 0.75; stroke: #FF0000; fill: #FF0000;" onclick="top.colorCounties(162)"/>
    <circle cx="417.58" cy="155.73" r="1.80" style="stroke-width: 0.75; stroke: #FF0000; fill: #FF0000;" onclick="top.colorCounties(163)"/>
    <circle cx="419.64" cy="75.47" r="1.80" style="stroke-width: 0.75; stroke: #FF0000; fill: #FF0000;" onclick="top.colorCounties(164)"/>
    <circle cx="421.70" cy="431.16" r="1.80" style="stroke-width: 0.75; stroke: #FF0000; fill: #FF0000;" onclick="top.colorCounties(165)"/>
    <circle cx="423.75" cy="331.65" r="1.80" style="stroke-width: 0.75; stroke: #FF0000; fill: #FF0000;" onclick="top.colorCounties(166)"/>
    <circle cx="425.81" cy="246.44" r="1.80" style="stroke-width: 0.75; stroke: #FF0000; fill: #FF0000;" onclick="top.colorCounties(167)"/>
    <circle cx="427.86" cy="391.58" r="1.80" style="stroke-width: 0.75; stroke: #FF0000; fill: #FF0000;" onclick="top.colorCounties(168)"/>
    <circle cx="429.92" cy="410.82" r="1.80" style="stroke-width: 0.75; stroke: #FF0000; fill: #FF0000;" onclick="top.colorCounties(169)"/>
    <circle cx="431.98" cy="438.30" r="1.80" style="stroke-width: 0.75; stroke: #FF0000; fill: #FF0000;" onclick="top.colorCounties(170)"/>
    <circle cx="434.03" cy="376.18" r="1.80" style="stroke-width: 0.75; stroke: #FF0000; fill: #FF0000;" onclick="top.colorCounties(171)"/>
    <circle cx="436.09" cy="398.72" r="1.80" style="stroke-width: 0.75; stroke: #FF0000; fill: #FF0000;" onclick="top.colorCounties(172)"/>
    <circle cx="438.15" cy="460.84" r="1.80" style="stroke-width: 0.75; stroke: #FF0000; fill: #FF0000;" onclick="top.colorCounties(173)"/>
    <circle cx="440.20" cy="391.58" r="1.80" style="stroke-width: 0.75; stroke: #FF0000; fill: #FF0000;" onclick="top.colorCounties(174)"/>
    <circle cx="442.26" cy="426.76" r="1.80" style="stroke-width: 0.75; stroke: #FF0000; fill: #FF0000;" onclick="top.colorCounties(175)"/>
    <circle cx="444.32" cy="424.01" r="1.80" style="stroke-width: 0.75; stroke: #FF0000; fill: #FF0000;" onclick="top.colorCounties(176)"/>
    <circle cx="446.37" cy="459.75" r="1.80" style="stroke-width: 0.75; stroke: #FF0000; fill: #FF0000;" onclick="top.colorCounties(177)"/>
    <circle cx="448.43" cy="279.98" r="1.80" style="stroke-width: 0.75; stroke: #FF0000; fill: #FF0000;" onclick="top.colorCounties(178)"/>
    <circle cx="450.48" cy="362.44" r="1.80" style="stroke-width: 0.75; stroke: #FF0000; fill: #FF0000;" onclick="top.colorCounties(179)"/>
    <circle cx="452.54" cy="394.87" r="1.80" style="stroke-width: 0.75; stroke: #FF0000; fill: #FF0000;" onclick="top.colorCounties(180)"/>
    <circle cx="454.60" cy="356.94" r="1.80" style="stroke-width: 0.75; stroke: #FF0000; fill: #FF0000;" onclick="top.colorCounties(181)"/>
    <circle cx="456.65" cy="446.55" r="1.80" style="stroke-width: 0.75; stroke: #FF0000; fill: #FF0000;" onclick="top.colorCounties(182)"/>
    <circle cx="458.71" cy="389.38" r="1.80" style="stroke-width: 0.75; stroke: #FF0000; fill: #FF0000;" onclick="top.colorCounties(183)"/>
    <circle cx="460.77" cy="438.85" r="1.80" style="stroke-width: 0.75; stroke: #FF0000; fill: #FF0000;" onclick="top.colorCounties(184)"/>
    <circle cx="462.82" cy="416.86" r="1.80" style="stroke-width: 0.75; stroke: #FF0000; fill: #FF0000;" onclick="top.colorCounties(185)"/>
    <circle cx="464.88" cy="415.21" r="1.80" style="stroke-width: 0.75; stroke: #FF0000; fill: #FF0000;" onclick="top.colorCounties(186)"/>
    <circle cx="466.94" cy="403.12" r="1.80" style="stroke-width: 0.75; stroke: #FF0000; fill: #FF0000;" onclick="top.colorCounties(187)"/>
    <circle cx="468.99" cy="417.41" r="1.80" style="stroke-width: 0.75; stroke: #FF0000; fill: #FF0000;" onclick="top.colorCounties(188)"/>
    <circle cx="471.05" cy="422.91" r="1.80" style="stroke-width: 0.75; stroke: #FF0000; fill: #FF0000;" onclick="top.colorCounties(189)"/>
    <circle cx="473.10" cy="448.20" r="1.80" style="stroke-width: 0.75; stroke: #FF0000; fill: #FF0000;" onclick="top.colorCounties(190)"/>
    <circle cx="475.16" cy="373.98" r="1.80" style="stroke-width: 0.75; stroke: #FF0000; fill: #FF0000;" onclick="top.colorCounties(191)"/>
    <circle cx="477.22" cy="453.15" r="1.80" style="stroke-width: 0.75; stroke: #FF0000; fill: #FF0000;" onclick="top.colorCounties(192)"/>
    <circle cx="479.27" cy="445.45" r="1.80" style="stroke-width: 0.75; stroke: #FF0000; fill: #FF0000;" onclick="top.colorCounties(193)"/>
    <circle cx="481.33" cy="431.71" r="1.80" style="stroke-width: 0.75; stroke: #FF0000; fill: #FF0000;" onclick="top.colorCounties(194)"/>
    <circle cx="483.39" cy="432.26" r="1.80" style="stroke-width: 0.75; stroke: #FF0000; fill: #FF0000;" onclick="top.colorCounties(195)"/>
    <circle cx="485.44" cy="453.15" r="1.80" style="stroke-width: 0.75; stroke: #FF0000; fill: #FF0000;" onclick="top.colorCounties(196)"/>
    <circle cx="487.50" cy="480.64" r="1.80" style="stroke-width: 0.75; stroke: #FF0000; fill: #FF0000;" onclick="top.colorCounties(197)"/>
    <circle cx="489.55" cy="438.85" r="1.80" style="stroke-width: 0.75; stroke: #FF0000; fill: #FF0000;" onclick="top.colorCounties(198)"/>
    <circle cx="491.61" cy="480.64" r="1.80" style="stroke-width: 0.75; stroke: #FF0000; fill: #FF0000;" onclick="top.colorCounties(199)"/>
    <circle cx="493.67" cy="426.76" r="1.80" style="stroke-width: 0.75; stroke: #FF0000; fill: #FF0000;" onclick="top.colorCounties(200)"/>
    <circle cx="495.72" cy="437.21" r="1.80" style="stroke-width: 0.75; stroke: #FF0000; fill: #FF0000;" onclick="top.colorCounties(201)"/>
    <circle cx="497.78" cy="447.65" r="1.80" style="stroke-width: 0.75; stroke: #FF0000; fill: #FF0000;" onclick="top.colorCounties(202)"/>
    <circle cx="499.84" cy="464.14" r="1.80" style="stroke-width: 0.75; stroke: #FF0000; fill: #FF0000;" onclick="top.colorCounties(203)"/>
    <circle cx="501.89" cy="463.04" r="1.80" style="stroke-width: 0.75; stroke: #FF0000; fill: #FF0000;" onclick="top.colorCounties(204)"/>
    <circle cx="503.95" cy="454.80" r="1.80" style="stroke-width: 0.75; stroke: #FF0000; fill: #FF0000;" onclick="top.colorCounties(205)"/>
    <circle cx="506.01" cy="465.79" r="1.80" style="stroke-width: 0.75; stroke: #FF0000; fill: #FF0000;" onclick="top.colorCounties(206)"/>
    <circle cx="508.06" cy="474.59" r="1.80" style="stroke-width: 0.75; stroke: #FF0000; fill: #FF0000;" onclick="top.colorCounties(207)"/>
    <circle cx="510.12" cy="471.84" r="1.80" style="stroke-width: 0.75; stroke: #FF0000; fill: #FF0000;" onclick="top.colorCounties(208)"/>
    <circle cx="512.17" cy="486.13" r="1.80" style="stroke-width: 0.75; stroke: #FF0000; fill: #FF0000;" onclick="top.colorCounties(209)"/>
    <circle cx="514.23" cy="475.14" r="1.80" style="stroke-width: 0.75; stroke: #FF0000; fill: #FF0000;" onclick="top.colorCounties(210)"/>
    <circle cx="516.29" cy="470.19" r="1.80" style="stroke-width: 0.75; stroke: #FF0000; fill: #FF0000;" onclick="top.colorCounties(211)"/>
    <circle cx="518.34" cy="466.89" r="1.80" style="stroke-width: 0.75; stroke: #FF0000; fill: #FF0000;" onclick="top.colorCounties(212)"/>
    <circle cx="520.40" cy="471.84" r="1.80" style="stroke-width: 0.75; stroke: #FF0000; fill: #FF0000;" onclick="top.colorCounties(213)"/>
    <circle cx="522.46" cy="447.10" r="1.80" style="stroke-width: 0.75; stroke: #FF0000; fill: #FF0000;" onclick="top.colorCounties(214)"/>
    <circle cx="524.51" cy="450.40" r="1.80" style="stroke-width: 0.75; stroke: #FF0000; fill: #FF0000;" onclick="top.colorCounties(215)"/>
    <circle cx="526.57" cy="439.40" r="1.80" style="stroke-width: 0.75; stroke: #FF0000; fill: #FF0000;" onclick="top.colorCounties(216)"/>
    <circle cx="528.63" cy="461.94" r="1.80" style="stroke-width: 0.75; stroke: #FF0000; fill: #FF0000;" onclick="top.colorCounties(217)"/>
    <circle cx="530.68" cy="468.54" r="1.80" style="stroke-width: 0.75; stroke: #FF0000; fill: #FF0000;" onclick="top.colorCounties(218)"/>
    <circle cx="532.74" cy="476.24" r="1.80" style="stroke-width: 0.75; stroke: #FF0000; fill: #FF0000;" onclick="top.colorCounties(219)"/>
    <circle cx="534.79" cy="460.29" r="1.80" style="stroke-width: 0.75; stroke: #FF0000; fill: #FF0000;" onclick="top.colorCounties(220)"/>
    <circle cx="536.85" cy="435.56" r="1.80" style="stroke-width: 0.75; stroke: #FF0000; fill: #FF0000;" onclick="top.colorCounties(221)"/>
    <circle cx="538.91" cy="445.45" r="1.80" style="stroke-width: 0.75; stroke: #FF0000; fill: #FF0000;" onclick="top.colorCounties(222)"/>
    <circle cx="540.96" cy="452.05" r="1.80" style="stroke-width: 0.75; stroke: #FF0000; fill: #FF0000;" onclick="top.colorCounties(223)"/>
    <circle cx="543.02" cy="460.84" r="1.80" style="stroke-width: 0.75; stroke: #FF0000; fill: #FF0000;" onclick="top.colorCounties(224)"/>
    <circle cx="545.08" cy="459.75" r="1.80" style="stroke-width: 0.75; stroke: #FF0000; fill: #FF0000;" onclick="top.colorCounties(225)"/>
    <circle cx="547.13" cy="474.59" r="1.80" style="stroke-width: 0.75; stroke: #FF0000; fill: #FF0000;" onclick="top.colorCounties(226)"/>
    <circle cx="549.19" cy="457.00" r="1.80" style="stroke-width: 0.75; stroke: #FF0000; fill: #FF0000;" onclick="top.colorCounties(227)"/>
    <circle cx="551.25" cy="464.14" r="1.80" style="stroke-width: 0.75; stroke: #FF0000; fill: #FF0000;" onclick="top.colorCounties(228)"/>
    <circle cx="553.30" cy="106.80" r="1.80" style="stroke-width: 0.75; stroke: #FF0000; fill: #FF0000;" onclick="top.colorCounties(229)"/>
    <circle cx="555.36" cy="448.75" r="1.80" style="stroke-width: 0.75; stroke: #FF0000; fill: #FF0000;" onclick="top.colorCounties(230)"/>
    <circle cx="557.41" cy="454.25" r="1.80" style="stroke-width: 0.75; stroke: #FF0000; fill: #FF0000;" onclick="top.colorCounties(231)"/>
    <circle cx="559.47" cy="445.45" r="1.80" style="stroke-width: 0.75; stroke: #FF0000; fill: #FF0000;" onclick="top.colorCounties(232)"/>
    <circle cx="561.53" cy="473.49" r="1.80" style="stroke-width: 0.75; stroke: #FF0000; fill: #FF0000;" onclick="top.colorCounties(233)"/>
    <circle cx="563.58" cy="439.40" r="1.80" style="stroke-width: 0.75; stroke: #FF0000; fill: #FF0000;" onclick="top.colorCounties(234)"/>
    <circle cx="565.64" cy="446.55" r="1.80" style="stroke-width: 0.75; stroke: #FF0000; fill: #FF0000;" onclick="top.colorCounties(235)"/>
    <circle cx="567.70" cy="446.00" r="1.80" style="stroke-width: 0.75; stroke: #FF0000; fill: #FF0000;" onclick="top.colorCounties(236)"/>
    <circle cx="569.75" cy="440.50" r="1.80" style="stroke-width: 0.75; stroke: #FF0000; fill: #FF0000;" onclick="top.colorCounties(237)"/>
    <circle cx="571.81" cy="440.50" r="1.80" style="stroke-width: 0.75; stroke: #FF0000; fill: #FF0000;" onclick="top.colorCounties(238)"/>
    <circle cx="573.86" cy="443.80" r="1.80" style="stroke-width: 0.75; stroke: #FF0000; fill: #FF0000;" onclick="top.colorCounties(239)"/>
    <circle cx="575.92" cy="463.59" r="1.80" style="stroke-width: 0.75; stroke: #FF0000; fill: #FF0000;" onclick="top.colorCounties(240)"/>
    <circle cx="577.98" cy="445.45" r="1.80" style="stroke-width: 0.75; stroke: #FF0000; fill: #FF0000;" onclick="top.colorCounties(241)"/>
    <circle cx="580.03" cy="446.00" r="1.80" style="stroke-width: 0.75; stroke: #FF0000; fill: #FF0000;" onclick="top.colorCounties(242)"/>
    <circle cx="582.09" cy="446.55" r="1.80" style="stroke-width: 0.75; stroke: #FF0000; fill: #FF0000;" onclick="top.colorCounties(243)"/>
    <circle cx="584.15" cy="442.70" r="1.80" style="stroke-width: 0.75; stroke: #FF0000; fill: #FF0000;" onclick="top.colorCounties(244)"/>
    <circle cx="586.20" cy="441.05" r="1.80" style="stroke-width: 0.75; stroke: #FF0000; fill: #FF0000;" onclick="top.colorCounties(245)"/>
    <circle cx="588.26" cy="448.75" r="1.80" style="stroke-width: 0.75; stroke: #FF0000; fill: #FF0000;" onclick="top.colorCounties(246)"/>
    <circle cx="590.32" cy="447.65" r="1.80" style="stroke-width: 0.75; stroke: #FF0000; fill: #FF0000;" onclick="top.colorCounties(247)"/>
    <circle cx="592.37" cy="439.40" r="1.80" style="stroke-width: 0.75; stroke: #FF0000; fill: #FF0000;" onclick="top.colorCounties(248)"/>
    <circle cx="594.43" cy="436.66" r="1.80" style="stroke-width: 0.75; stroke: #FF0000; fill: #FF0000;" onclick="top.colorCounties(249)"/>
    <circle cx="596.48" cy="422.91" r="1.80" style="stroke-width: 0.75; stroke: #FF0000; fill: #FF0000;" onclick="top.colorCounties(250)"/>
    <circle cx="598.54" cy="426.21" r="1.80" style="stroke-width: 0.75; stroke: #FF0000; fill: #FF0000;" onclick="top.colorCounties(251)"/>
    <circle cx="600.60" cy="480.64" r="1.80" style="stroke-width: 0.75; stroke: #FF0000; fill: #FF0000;" onclick="top.colorCounties(252)"/>
    <circle cx="602.65" cy="371.23" r="1.80" style="stroke-width: 0.75; stroke: #FF0000; fill: #FF0000;" onclick="top.colorCounties(253)"/>
    <circle cx="604.71" cy="444.90" r="1.80" style="stroke-width: 0.75; stroke: #FF0000; fill: #FF0000;" onclick="top.colorCounties(254)"/>
    <circle cx="606.77" cy="417.41" r="1.80" style="stroke-width: 0.75; stroke: #FF0000; fill: #FF0000;" onclick="top.colorCounties(255)"/>
    <circle cx="608.82" cy="388.28" r="1.80" style="stroke-width: 0.75; stroke: #FF0000; fill: #FF0000;" onclick="top.colorCounties(256)"/>
    <circle cx="610.88" cy="392.68" r="1.80" style="stroke-width: 0.75; stroke: #FF0000; fill: #FF0000;" onclick="top.colorCounties(257)"/>
    <circle cx="612.94" cy="396.52" r="1.80" style="stroke-width: 0.75; stroke: #FF0000; fill: #FF0000;" onclick="top.colorCounties(258)"/>
    <circle cx="614.99" cy="388.28" r="1.80" style="stroke-width: 0.75; stroke: #FF0000; fill: #FF0000;" onclick="top.colorCounties(259)"/>
    <circle cx="617.05" cy="400.37" r="1.80" style="stroke-width: 0.75; stroke: #FF0000; fill: #FF0000;" onclick="top.colorCounties(260)"/>
    <circle cx="619.10" cy="391.58" r="1.80" style="stroke-width: 0.75; stroke: #FF0000; fill: #FF0000;" onclick="top.colorCounties(261)"/>
    <circle cx="621.16" cy="389.38" r="1.80" style="stroke-width: 0.75; stroke: #FF0000; fill: #FF0000;" onclick="top.colorCounties(262)"/>
    <circle cx="623.22" cy="398.17" r="1.80" style="stroke-width: 0.75; stroke: #FF0000; fill: #FF0000;" onclick="top.colorCounties(263)"/>
    <circle cx="625.27" cy="379.48" r="1.80" style="stroke-width: 0.75; stroke: #FF0000; fill: #FF0000;" onclick="top.colorCounties(264)"/>
    <circle cx="627.33" cy="370.14" r="1.80" style="stroke-width: 0.75; stroke: #FF0000; fill: #FF0000;" onclick="top.colorCounties(265)"/>
    <circle cx="629.39" cy="347.05" r="1.80" style="stroke-width: 0.75; stroke: #FF0000; fill: #FF0000;" onclick="top.colorCounties(266)"/>
    <circle cx="631.44" cy="304.16" r="1.80" style="stroke-width: 0.75; stroke: #FF0000; fill: #FF0000;" onclick="top.colorCounties(267)"/>
    <circle cx="633.50" cy="319.01" r="1.80" style="stroke-width: 0.75; stroke: #FF0000; fill: #FF0000;" onclick="top.colorCounties(268)"/>
    <circle cx="635.55" cy="324.51" r="1.80" style="stroke-width: 0.75; stroke: #FF0000; fill: #FF0000;" onclick="top.colorCounties(269)"/>
    <circle cx="637.61" cy="480.64" r="1.80" style="stroke-width: 0.75; stroke: #FF0000; fill: #FF0000;" onclick="top.colorCounties(270)"/>
    <circle cx="639.67" cy="273.93" r="1.80" style="stroke-width: 0.75; stroke: #FF0000; fill: #FF0000;" onclick="top.colorCounties(271)"/>
    <circle cx="641.72" cy="392.13" r="1.80" style="stroke-width: 0.75; stroke: #FF0000; fill: #FF0000;" onclick="top.colorCounties(272)"/>
    <circle cx="643.78" cy="380.03" r="1.80" style="stroke-width: 0.75; stroke: #FF0000; fill: #FF0000;" onclick="top.colorCounties(273)"/>
    <circle cx="645.84" cy="215.10" r="1.80" style="stroke-width: 0.75; stroke: #FF0000; fill: #FF0000;" onclick="top.colorCounties(274)"/>
    <circle cx="647.89" cy="333.85" r="1.80" style="stroke-width: 0.75; stroke: #FF0000; fill: #FF0000;" onclick="top.colorCounties(275)"/>
    <circle cx="649.95" cy="310.76" r="1.80" style="stroke-width: 0.75; stroke: #FF0000; fill: #FF0000;" onclick="top.colorCounties(276)"/>
    <circle cx="652.01" cy="312.96" r="1.80" style="stroke-width: 0.75; stroke: #FF0000; fill: #FF0000;" onclick="top.colorCounties(277)"/>
    <circle cx="654.06" cy="245.89" r="1.80" style="stroke-width: 0.75; stroke: #FF0000; fill: #FF0000;" onclick="top.colorCounties(278)"/>
    <circle cx="656.12" cy="193.66" r="1.80" style="stroke-width: 0.75; stroke: #FF0000; fill: #FF0000;" onclick="top.colorCounties(279)"/>
    <circle cx="658.17" cy="302.52" r="1.80" style="stroke-width: 0.75; stroke: #FF0000; fill: #FF0000;" onclick="top.colorCounties(280)"/>
    <circle cx="660.23" cy="243.69" r="1.80" style="stroke-width: 0.75; stroke: #FF0000; fill: #FF0000;" onclick="top.colorCounties(281)"/>
    <circle cx="662.29" cy="270.08" r="1.80" style="stroke-width: 0.75; stroke: #FF0000; fill: #FF0000;" onclick="top.colorCounties(282)"/>
    <circle cx="664.34" cy="200.26" r="1.80" style="stroke-width: 0.75; stroke: #FF0000; fill: #FF0000;" onclick="top.colorCounties(283)"/>
    <circle cx="666.40" cy="216.20" r="1.80" style="stroke-width: 0.75; stroke: #FF0000; fill: #FF0000;" onclick="top.colorCounties(284)"/>
  </g>
</svg>
